<svg width="425" height="421" viewBox="0 0 425 421" fill="none" xmlns="http://www.w3.org/2000/svg">
<g filter="url(#filter0_i_4_9)">
<circle cx="206.104" cy="206.104" r="206.104" fill="#F7CF6A"/>
</g>
<circle cx="206.104" cy="206.104" r="202.148" stroke="white" stroke-width="7.91187"/>
<path fill-rule="evenodd" clip-rule="evenodd" d="M90.004 184.348C94.3875 184.247 97.0548 188.776 100.232 191.797C103.548 194.952 108.16 197.469 108.589 202.025C109.039 206.799 106.318 211.674 102.36 214.381C98.8246 216.8 94.2859 214.626 90.004 214.738C85.4922 214.857 80.7138 217.586 76.9829 215.046C72.9167 212.278 70.6342 206.895 71.3298 202.025C71.9775 197.491 76.9113 195.408 80.2378 192.259C83.4007 189.265 85.6499 184.448 90.004 184.348Z" fill="#EBC563"/>
<path fill-rule="evenodd" clip-rule="evenodd" d="M218.593 231.846C224.65 232.392 225.372 241.121 229.415 245.664C232.988 249.678 239.864 251.153 240.524 256.486C241.205 262.004 236.196 266.237 232.467 270.361C228.44 274.815 224.597 280.782 218.593 280.743C212.6 280.703 208.712 274.803 204.899 270.18C201.576 266.149 198.448 261.709 198.591 256.486C198.73 251.376 202.404 247.488 205.626 243.519C209.436 238.825 212.571 231.303 218.593 231.846Z" fill="#EBC563"/>
<path fill-rule="evenodd" clip-rule="evenodd" d="M193.791 155.414C199.718 154.064 206.808 156.816 210.073 161.943C213.121 166.731 208.577 172.557 208.315 178.226C208.076 183.364 211.279 188.656 208.63 193.065C205.501 198.272 199.691 203.845 193.791 202.4C187.853 200.946 188.244 192.271 184.79 187.227C182.489 183.868 177.499 182.289 177.237 178.226C176.969 174.066 181.102 171.36 183.551 167.986C186.85 163.438 188.312 156.662 193.791 155.414Z" fill="#EBC563"/>
<path fill-rule="evenodd" clip-rule="evenodd" d="M301.813 264.44C305.931 263.886 309.99 264.577 313.602 266.632C318.841 269.612 325.305 272.491 326.392 278.42C327.558 284.779 324.68 292.616 318.896 295.503C313.393 298.25 307.963 290.707 301.813 290.69C295.703 290.673 289.724 299.059 284.824 295.41C280.1 291.892 283.603 284.05 285.335 278.42C286.527 274.545 289.726 272.048 292.818 269.425C295.535 267.12 298.281 264.915 301.813 264.44Z" fill="#EBC563"/>
<path fill-rule="evenodd" clip-rule="evenodd" d="M252.728 324.94C258.15 323.165 264.619 321.296 269.19 324.71C273.988 328.294 275.422 335.261 274.455 341.171C273.593 346.446 268.539 349.433 264.564 353.007C260.925 356.278 257.573 360.023 252.728 360.704C247.181 361.483 240.873 360.945 237.023 356.877C233.223 352.863 232.623 346.456 234.242 341.171C235.575 336.82 240.968 335.834 244.388 332.832C247.378 330.207 248.947 326.178 252.728 324.94Z" fill="#EBC563"/>
<path fill-rule="evenodd" clip-rule="evenodd" d="M323.994 175.953C330.313 175.693 335.916 167.797 341.496 170.776C347.111 173.774 347.259 181.915 347.077 188.278C346.9 194.436 345.857 201.727 340.519 204.803C335.465 207.717 329.816 201.949 323.994 201.582C318.937 201.264 313.203 206.223 309.427 202.845C305.663 199.479 309.374 193.32 309.119 188.278C308.837 182.684 303.564 175.735 307.877 172.161C312.295 168.501 318.261 176.19 323.994 175.953Z" fill="#EBC563"/>
<path fill-rule="evenodd" clip-rule="evenodd" d="M251.947 77.8479C257.751 76.7978 264.195 78.4038 268.273 82.6654C272.294 86.8682 272.163 93.1743 272.179 98.9911C272.195 104.831 272.165 110.974 268.363 115.407C264.322 120.121 258.122 123.236 251.947 122.587C246.151 121.978 241.931 117.104 238.651 112.287C236.003 108.397 235.507 103.682 235.882 98.9911C236.222 94.7507 238.05 91.0546 240.624 87.6675C243.766 83.532 246.836 78.7725 251.947 77.8479Z" fill="#EBC563"/>
<path fill-rule="evenodd" clip-rule="evenodd" d="M141.775 103.986C147.036 103.971 153.578 99.7819 156.957 103.815C160.384 107.907 154.15 113.663 154.348 118.997C154.564 124.809 160.821 130.196 158.127 135.35C155.225 140.9 147.711 145.046 141.775 143.049C135.902 141.072 137.741 131.776 133.657 127.115C130.166 123.13 122.226 124.071 120.701 118.997C119.082 113.609 122.097 107.166 126.679 103.902C130.94 100.867 136.544 104.001 141.775 103.986Z" fill="#EBC563"/>
<path fill-rule="evenodd" clip-rule="evenodd" d="M133.387 290.007C139.019 291.567 139.749 299.009 142.92 303.917C145 307.137 147.469 309.767 148.533 313.45C150.206 319.245 154.57 326.13 150.663 330.725C146.783 335.288 139.289 332.287 133.387 331.264C128.806 330.471 124.572 328.839 121.213 325.624C117.764 322.325 115.527 318.162 114.77 313.45C113.84 307.658 112.904 301.208 116.552 296.614C120.449 291.707 127.348 288.335 133.387 290.007Z" fill="#EBC563"/>
<path fill-rule="evenodd" clip-rule="evenodd" d="M265.853 190.895C265.849 189.956 265.813 189.011 265.742 188.06C264.12 166.194 245.079 149.783 223.212 151.405C209.242 152.442 197.498 160.589 191.262 172.04C185.521 168.152 178.478 166.098 171.026 166.651C153.691 167.937 140.623 182.847 141.527 200.119L135.864 200.54C120.245 201.698 108.523 215.299 109.682 230.918C110.841 246.537 124.442 258.259 140.06 257.1L270.15 247.448C285.769 246.29 297.491 232.689 296.332 217.07C295.173 201.451 281.572 189.729 265.953 190.888L265.853 190.895Z" fill="#3D89A0"/>
<mask id="path-13-inside-1_4_9" fill="white">
<path fill-rule="evenodd" clip-rule="evenodd" d="M274.293 181.542C274.361 180.605 274.396 179.66 274.398 178.706C274.435 156.78 256.69 138.975 234.764 138.938C220.755 138.914 208.428 146.149 201.343 157.096C195.913 152.784 189.046 150.204 181.574 150.191C164.191 150.162 150.032 164.039 149.626 181.331L143.948 181.321C128.286 181.295 115.569 193.969 115.542 209.631C115.515 225.293 128.19 238.01 143.852 238.037L274.299 238.258C289.96 238.284 302.678 225.61 302.705 209.948C302.731 194.286 290.056 181.568 274.395 181.542L274.293 181.542Z"/>
</mask>
<path d="M274.293 181.542L272.715 181.428L272.593 183.121L274.291 183.124L274.293 181.542ZM201.343 157.096L200.359 158.335L201.724 159.419L202.672 157.956L201.343 157.096ZM149.626 181.331L149.623 182.913L151.171 182.916L151.208 181.368L149.626 181.331ZM272.816 178.704C272.814 179.62 272.78 180.528 272.715 181.428L275.872 181.656C275.942 180.682 275.979 179.7 275.98 178.709L272.816 178.704ZM234.761 140.52C255.814 140.556 272.851 157.651 272.816 178.704L275.98 178.709C276.019 155.909 257.567 137.394 234.767 137.355L234.761 140.52ZM202.672 157.956C209.477 147.441 221.312 140.497 234.761 140.52L234.767 137.355C220.198 137.331 207.38 144.857 200.015 156.236L202.672 157.956ZM181.571 151.773C188.674 151.785 195.198 154.237 200.359 158.335L202.327 155.857C196.628 151.331 189.417 148.622 181.576 148.609L181.571 151.773ZM151.208 181.368C151.594 164.935 165.051 151.745 181.571 151.773L181.576 148.609C163.331 148.578 148.47 163.144 148.044 181.293L151.208 181.368ZM143.945 182.903L149.623 182.913L149.628 179.748L143.951 179.739L143.945 182.903ZM117.124 209.634C117.149 194.846 129.158 182.878 143.945 182.903L143.951 179.739C127.415 179.711 113.988 193.093 113.96 209.628L117.124 209.634ZM143.855 236.455C129.067 236.43 117.099 224.421 117.124 209.634L113.96 209.628C113.932 226.164 127.314 239.591 143.849 239.619L143.855 236.455ZM274.301 236.676L143.855 236.455L143.849 239.619L274.296 239.84L274.301 236.676ZM301.122 209.945C301.097 224.733 289.089 236.701 274.301 236.676L274.296 239.84C290.832 239.868 304.259 226.486 304.287 209.951L301.122 209.945ZM274.392 183.124C289.18 183.149 301.147 195.158 301.122 209.945L304.287 209.951C304.315 193.415 290.933 179.988 274.397 179.96L274.392 183.124ZM274.291 183.124L274.392 183.124L274.397 179.96L274.296 179.959L274.291 183.124Z" fill="black" mask="url(#path-13-inside-1_4_9)"/>
<path d="M230.794 72.4318C231.652 74.9158 232.011 77.5444 231.853 80.1675C231.694 82.7905 231.02 85.3566 229.87 87.7193C228.719 90.0819 227.115 92.1949 225.148 93.9375C223.181 95.68 220.89 97.0181 218.406 97.8754C215.922 98.7326 213.293 99.0921 210.67 98.9335C208.047 98.7748 205.481 98.1011 203.119 96.9507C200.756 95.8003 198.643 94.1959 196.9 92.2289C195.158 90.262 193.82 87.971 192.962 85.4869L211.878 78.9594L230.794 72.4318Z" fill="#FF8832"/>
<path d="M222.195 75.3989C222.637 76.6785 222.822 78.0327 222.74 79.3839C222.658 80.7352 222.311 82.0571 221.719 83.2743C221.126 84.4914 220.3 85.5799 219.286 86.4776C218.273 87.3753 217.093 88.0646 215.813 88.5062C214.533 88.9478 213.179 89.133 211.828 89.0513C210.477 88.9695 209.155 88.6224 207.938 88.0298C206.721 87.4372 205.632 86.6107 204.734 85.5974C203.837 84.5841 203.147 83.4039 202.706 82.1243L212.45 78.7616L222.195 75.3989Z" fill="#DB7429"/>
<mask id="path-17-inside-2_4_9" fill="white">
<path d="M233.164 68.8781C233.798 71.4283 233.924 74.0784 233.533 76.6771C233.143 79.2758 232.245 81.7723 230.89 84.0238C229.535 86.2754 227.75 88.2381 225.636 89.7997C223.523 91.3614 221.123 92.4915 218.572 93.1255C216.022 93.7595 213.372 93.885 210.773 93.4949C208.175 93.1047 205.678 92.2065 203.427 90.8515C201.175 89.4966 199.213 87.7114 197.651 85.598C196.089 83.4845 194.959 81.0842 194.325 78.534L213.745 73.706L233.164 68.8781Z"/>
</mask>
<path d="M233.164 68.8781C233.798 71.4283 233.924 74.0784 233.533 76.6771C233.143 79.2758 232.245 81.7723 230.89 84.0238C229.535 86.2754 227.75 88.2381 225.636 89.7997C223.523 91.3614 221.123 92.4915 218.572 93.1255C216.022 93.7595 213.372 93.885 210.773 93.4949C208.175 93.1047 205.678 92.2065 203.427 90.8515C201.175 89.4966 199.213 87.7114 197.651 85.598C196.089 83.4845 194.959 81.0842 194.325 78.534L213.745 73.706L233.164 68.8781Z" stroke="black" stroke-width="2.37356" mask="url(#path-17-inside-2_4_9)"/>
<path d="M309.693 146.696C311.603 144.892 313.85 143.481 316.306 142.545C318.761 141.609 321.377 141.165 324.003 141.24C326.63 141.315 329.217 141.906 331.615 142.981C334.013 144.055 336.176 145.591 337.981 147.501C339.785 149.411 341.196 151.658 342.132 154.114C343.068 156.569 343.512 159.185 343.437 161.812C343.362 164.439 342.771 167.025 341.696 169.423C340.622 171.821 339.086 173.984 337.176 175.789L323.434 161.243L309.693 146.696Z" fill="#FF8832"/>
<path d="M315.94 153.309C316.924 152.379 318.081 151.653 319.346 151.17C320.611 150.688 321.958 150.46 323.312 150.498C324.665 150.537 325.997 150.841 327.233 151.395C328.468 151.948 329.582 152.739 330.512 153.724C331.442 154.708 332.168 155.865 332.651 157.13C333.133 158.395 333.361 159.742 333.323 161.096C333.284 162.449 332.98 163.781 332.426 165.017C331.873 166.252 331.081 167.366 330.097 168.296L323.018 160.802L315.94 153.309Z" fill="#DB7429"/>
<mask id="path-20-inside-3_4_9" fill="white">
<path d="M313.032 151.717C315.213 150.252 317.662 149.231 320.238 148.712C322.814 148.193 325.467 148.186 328.045 148.692C330.624 149.198 333.078 150.208 335.266 151.662C337.455 153.117 339.336 154.988 340.801 157.169C342.266 159.351 343.288 161.799 343.807 164.375C344.326 166.951 344.332 169.605 343.826 172.183C343.32 174.762 342.311 177.215 340.856 179.404C339.402 181.593 337.53 183.473 335.349 184.939L324.19 168.328L313.032 151.717Z"/>
</mask>
<path d="M313.032 151.717C315.213 150.252 317.662 149.231 320.238 148.712C322.814 148.193 325.467 148.186 328.045 148.692C330.624 149.198 333.078 150.208 335.266 151.662C337.455 153.117 339.336 154.988 340.801 157.169C342.266 159.351 343.288 161.799 343.807 164.375C344.326 166.951 344.332 169.605 343.826 172.183C343.32 174.762 342.311 177.215 340.856 179.404C339.402 181.593 337.53 183.473 335.349 184.939L324.19 168.328L313.032 151.717Z" stroke="black" stroke-width="2.37356" mask="url(#path-20-inside-3_4_9)"/>
<path d="M311.698 310.988C310.112 313.083 308.129 314.845 305.862 316.174C303.595 317.503 301.088 318.372 298.485 318.732C295.882 319.092 293.233 318.936 290.691 318.272C288.148 317.608 285.761 316.45 283.666 314.864C281.571 313.278 279.808 311.295 278.48 309.028C277.151 306.761 276.282 304.254 275.922 301.651C275.562 299.048 275.718 296.399 276.382 293.857C277.045 291.314 278.203 288.927 279.789 286.832L295.744 298.91L311.698 310.988Z" fill="#FF8832"/>
<path d="M304.447 305.498C303.63 306.577 302.608 307.485 301.441 308.17C300.273 308.854 298.981 309.302 297.64 309.487C296.299 309.673 294.935 309.592 293.625 309.25C292.315 308.908 291.086 308.312 290.006 307.495C288.927 306.678 288.019 305.656 287.335 304.488C286.65 303.32 286.202 302.029 286.017 300.688C285.832 299.347 285.912 297.983 286.254 296.673C286.596 295.363 287.192 294.133 288.009 293.054L296.228 299.276L304.447 305.498Z" fill="#DB7429"/>
<mask id="path-23-inside-4_4_9" fill="white">
<path d="M315.226 314.831C313.929 317.116 312.193 319.123 310.12 320.737C308.047 322.351 305.675 323.542 303.142 324.24C300.609 324.938 297.963 325.13 295.355 324.806C292.747 324.481 290.229 323.646 287.944 322.348C285.659 321.05 283.652 319.315 282.037 317.242C280.423 315.168 279.233 312.797 278.535 310.264C277.837 307.731 277.644 305.084 277.969 302.477C278.293 299.869 279.128 297.351 280.426 295.066L297.826 304.948L315.226 314.831Z"/>
</mask>
<path d="M315.226 314.831C313.929 317.116 312.193 319.123 310.12 320.737C308.047 322.351 305.675 323.542 303.142 324.24C300.609 324.938 297.963 325.13 295.355 324.806C292.747 324.481 290.229 323.646 287.944 322.348C285.659 321.05 283.652 319.315 282.037 317.242C280.423 315.168 279.233 312.797 278.535 310.264C277.837 307.731 277.644 305.084 277.969 302.477C278.293 299.869 279.128 297.351 280.426 295.066L297.826 304.948L315.226 314.831Z" stroke="black" stroke-width="2.37356" mask="url(#path-23-inside-4_4_9)"/>
<path d="M133.966 318.006C132.289 315.983 131.028 313.649 130.253 311.138C129.478 308.627 129.206 305.987 129.451 303.371C129.696 300.755 130.455 298.212 131.683 295.889C132.91 293.566 134.584 291.507 136.607 289.83C138.631 288.154 140.965 286.892 143.476 286.117C145.987 285.343 148.626 285.07 151.242 285.316C153.859 285.561 156.401 286.319 158.724 287.547C161.048 288.775 163.106 290.448 164.783 292.472L149.374 305.239L133.966 318.006Z" fill="#FF8832"/>
<path d="M140.97 312.203C140.106 311.161 139.456 309.958 139.057 308.665C138.658 307.371 138.518 306.012 138.644 304.664C138.771 303.316 139.161 302.006 139.794 300.809C140.426 299.612 141.288 298.552 142.331 297.688C143.373 296.824 144.575 296.175 145.869 295.776C147.163 295.376 148.522 295.236 149.87 295.362C151.218 295.489 152.527 295.879 153.724 296.512C154.921 297.145 155.982 298.007 156.845 299.049L148.908 305.626L140.97 312.203Z" fill="#DB7429"/>
<mask id="path-26-inside-5_4_9" fill="white">
<path d="M132.799 308.956C131.46 306.695 130.58 304.192 130.208 301.591C129.837 298.989 129.981 296.34 130.633 293.794C131.286 291.249 132.433 288.857 134.01 286.754C135.586 284.652 137.562 282.881 139.823 281.542C142.084 280.204 144.587 279.323 147.189 278.952C149.79 278.58 152.439 278.725 154.985 279.377C157.53 280.029 159.922 281.176 162.025 282.753C164.127 284.33 165.898 286.305 167.237 288.567L150.018 298.761L132.799 308.956Z"/>
</mask>
<path d="M132.799 308.956C131.46 306.695 130.58 304.192 130.208 301.591C129.837 298.989 129.981 296.34 130.633 293.794C131.286 291.249 132.433 288.857 134.01 286.754C135.586 284.652 137.562 282.881 139.823 281.542C142.084 280.204 144.587 279.323 147.189 278.952C149.79 278.58 152.439 278.725 154.985 279.377C157.53 280.029 159.922 281.176 162.025 282.753C164.127 284.33 165.898 286.305 167.237 288.567L150.018 298.761L132.799 308.956Z" stroke="black" stroke-width="2.37356" mask="url(#path-26-inside-5_4_9)"/>
<rect x="72.5329" y="256.815" width="12.1151" height="19.3841" rx="0.605752" transform="rotate(-26.6859 72.5329 256.815)" fill="#D6D6D6"/>
<path d="M95.3558 245.572C99.6132 254.042 88.2779 250.815 78.7127 255.622C69.1475 260.43 64.9745 271.452 60.7172 262.982C56.4598 254.512 60.7627 243.749 70.3279 238.941C79.8931 234.133 91.0985 237.102 95.3558 245.572Z" fill="#E8E8E8"/>
<path d="M70.1272 262.229C73.9941 259.873 76.5478 258.98 80.9084 258.342C80.9095 258.341 80.9099 258.342 80.9101 258.342L80.9101 258.342C80.9105 258.342 80.9114 258.342 80.9125 258.343C80.9147 258.344 80.9161 258.346 80.9171 258.348L87.0927 275.473C87.0932 275.474 87.0934 275.475 87.0935 275.476C87.0936 275.477 87.0936 275.477 87.0936 275.478C87.0935 275.479 87.0932 275.48 87.0922 275.482C87.0919 275.483 87.0915 275.484 87.0911 275.484C87.0905 275.485 87.0898 275.486 87.0893 275.487C87.0888 275.487 87.0879 275.488 87.0852 275.489L76.3166 279.372C76.3139 279.373 76.3127 279.373 76.312 279.373C76.3108 279.373 76.3091 279.373 76.3071 279.372C76.3051 279.371 76.3038 279.37 76.303 279.369C76.3025 279.368 76.3017 279.367 76.3008 279.365L70.125 262.24C70.124 262.237 70.1241 262.235 70.1249 262.232C70.1253 262.231 70.1258 262.23 70.126 262.23C70.1261 262.23 70.1262 262.23 70.1272 262.229Z" stroke="black" stroke-width="1.18678"/>
<path d="M92.2965 252.583C93.0685 254.724 92.8981 255.806 92.3993 256.414C92.1364 256.735 91.7312 256.995 91.149 257.201C90.5656 257.407 89.8416 257.546 88.9837 257.649C88.1278 257.752 87.1674 257.816 86.115 257.882C86.0282 257.887 85.9407 257.893 85.8528 257.898C84.8795 257.959 83.8365 258.024 82.7551 258.125C80.396 258.345 77.8248 258.739 75.2913 259.653C72.7579 260.567 70.5268 261.904 68.57 263.24C67.673 263.853 66.8286 264.468 66.0407 265.043C65.9695 265.095 65.8987 265.146 65.8284 265.198C64.9762 265.819 64.1961 266.382 63.4716 266.85C62.7454 267.318 62.0992 267.673 61.5184 267.886C60.9388 268.099 60.4611 268.158 60.054 268.079C59.2814 267.929 58.46 267.205 57.688 265.064C54.6712 256.699 59.8669 247.035 69.4895 243.565C79.1121 240.095 89.2798 244.218 92.2965 252.583Z" stroke="black" stroke-width="1.18678"/>
<rect x="140.737" y="105.407" width="12.1151" height="19.3841" rx="0.605752" transform="rotate(22.3113 140.737 105.407)" fill="#D6D6D6"/>
<path d="M164.198 115.255C160.599 124.025 155.598 113.353 145.694 109.289C135.79 105.224 124.734 109.307 128.333 100.537C131.931 91.7667 142.878 87.9519 152.782 92.0161C162.686 96.0804 167.797 106.485 164.198 115.255Z" fill="#E8E8E8"/>
<rect x="280.767" y="124.169" width="12.1151" height="19.3841" rx="0.605752" transform="rotate(-136.372 280.767 124.169)" fill="#D6D6D6"/>
<path d="M262.493 106.468C269.034 99.6065 269.814 111.366 277.563 118.753C285.312 126.14 297.095 126.356 290.555 133.217C284.014 140.079 272.43 139.654 264.681 132.267C256.932 124.881 255.952 113.33 262.493 106.468Z" fill="#E8E8E8"/>
<rect x="330.728" y="240.526" width="12.1151" height="19.3841" rx="0.605752" transform="rotate(-55.8522 330.728 240.526)" fill="#D6D6D6"/>
<path d="M345.178 219.584C353.023 224.906 341.552 227.612 335.543 236.472C329.534 245.331 331.261 256.99 323.416 251.668C315.571 246.347 314.082 234.851 320.091 225.991C326.101 217.132 337.332 214.263 345.178 219.584Z" fill="#E8E8E8"/>
<rect x="218.794" y="319.244" width="12.1151" height="19.3841" rx="0.605752" transform="rotate(163.78 218.794 319.244)" fill="#D6D6D6"/>
<path d="M194.307 326.155C191.659 317.053 202.22 322.285 212.499 319.295C222.779 316.305 228.885 306.224 231.532 315.326C234.18 324.429 227.994 334.232 217.714 337.222C207.435 340.213 196.955 335.258 194.307 326.155Z" fill="#E8E8E8"/>
<line x1="131.751" y1="160.276" x2="148.366" y2="154.737" stroke="#719840" stroke-width="2.37356"/>
<g filter="url(#filter1_f_4_9)">
<line x1="91.523" y1="122.709" x2="74.7373" y2="117.712" stroke="#719840" stroke-width="2.37356"/>
</g>
<line x1="210.58" y1="134.383" x2="199.914" y2="120.492" stroke="#719840" stroke-width="2.37356"/>
<line x1="172.646" y1="54.9889" x2="161.012" y2="68.0798" stroke="#719840" stroke-width="2.37356"/>
<line x1="117.333" y1="65.2734" x2="115.016" y2="82.6331" stroke="#719840" stroke-width="2.37356"/>
<g filter="url(#filter2_f_4_9)">
<line x1="262.795" y1="81.4244" x2="250.516" y2="68.9361" stroke="#719840" stroke-width="2.37356"/>
</g>
<g filter="url(#filter3_f_4_9)">
<line x1="304.509" y1="173.922" x2="287.459" y2="177.923" stroke="#719840" stroke-width="2.37356"/>
</g>
<line x1="324.427" y1="124.015" x2="308.701" y2="116.307" stroke="#719840" stroke-width="2.37356"/>
<line x1="333.964" y1="284.567" x2="316.654" y2="287.23" stroke="#719840" stroke-width="2.37356"/>
<line x1="241.955" y1="286.099" x2="247.829" y2="269.599" stroke="#719840" stroke-width="2.37356"/>
<line x1="269.228" y1="352.06" x2="257.073" y2="339.452" stroke="#719840" stroke-width="2.37356"/>
<line x1="165.716" y1="357.703" x2="162.172" y2="340.552" stroke="#719840" stroke-width="2.37356"/>
<g filter="url(#filter4_f_4_9)">
<line x1="198.021" y1="287.183" x2="185.865" y2="274.575" stroke="#719840" stroke-width="2.37356"/>
</g>
<line x1="90.9194" y1="306.612" x2="97.8607" y2="290.533" stroke="#719840" stroke-width="2.37356"/>
<line x1="67.2442" y1="202.563" x2="79.5228" y2="215.051" stroke="#719840" stroke-width="2.37356"/>
<circle cx="206.103" cy="206.104" r="189.885" stroke="url(#paint0_linear_4_9)" stroke-width="16.6149"/>
<g filter="url(#filter5_i_4_9)">
<circle cx="218.761" cy="214.016" r="205.313" stroke="black" stroke-width="1.58237"/>
</g>
<path d="M147.544 105.424C151.774 107.04 154.043 108.514 157.216 111.572C157.217 111.573 157.217 111.573 157.217 111.573L157.217 111.573C157.218 111.574 157.218 111.574 157.218 111.576C157.218 111.578 157.218 111.58 157.216 111.583L147.451 126.946C147.451 126.948 147.45 126.948 147.449 126.949C147.449 126.949 147.449 126.95 147.448 126.95C147.447 126.95 147.446 126.951 147.444 126.952C147.443 126.952 147.442 126.952 147.441 126.952C147.44 126.952 147.439 126.952 147.439 126.952C147.438 126.952 147.437 126.952 147.434 126.95L137.773 120.809C137.771 120.808 137.77 120.807 137.77 120.806C137.769 120.805 137.768 120.804 137.768 120.802C137.767 120.8 137.767 120.798 137.768 120.797C137.768 120.796 137.768 120.795 137.769 120.792L147.535 105.429C147.536 105.426 147.538 105.425 147.54 105.424C147.542 105.424 147.542 105.423 147.543 105.423C147.543 105.423 147.543 105.423 147.544 105.424Z" stroke="black" stroke-width="1.18678"/>
<path d="M168.739 117.054C167.518 118.975 166.559 119.502 165.772 119.48C165.357 119.468 164.904 119.307 164.385 118.972C163.865 118.637 163.312 118.149 162.705 117.534C162.1 116.92 161.462 116.199 160.766 115.407C160.708 115.342 160.651 115.276 160.592 115.21C159.949 114.477 159.259 113.692 158.518 112.899C156.9 111.168 155.014 109.375 152.742 107.931C150.469 106.486 148.046 105.54 145.791 104.81C144.758 104.475 143.754 104.184 142.818 103.913C142.733 103.888 142.649 103.864 142.566 103.839C141.553 103.545 140.63 103.273 139.817 102.986C139.002 102.698 138.326 102.404 137.802 102.076C137.278 101.748 136.94 101.406 136.753 101.035C136.399 100.332 136.469 99.2398 137.69 97.3193C142.46 89.8142 153.283 88.0099 161.916 93.497C170.549 98.9841 173.509 109.549 168.739 117.054Z" stroke="black" stroke-width="1.18678"/>
<path d="M286.611 126.643C282.225 125.513 279.805 124.305 276.308 121.623C276.307 121.623 276.307 121.622 276.307 121.622L276.307 121.622C276.306 121.622 276.306 121.621 276.306 121.62C276.305 121.617 276.305 121.615 276.307 121.612L284.28 105.247C284.28 105.246 284.281 105.245 284.282 105.244C284.282 105.244 284.282 105.244 284.283 105.243C284.283 105.243 284.285 105.242 284.287 105.241C284.288 105.241 284.288 105.241 284.289 105.24C284.29 105.24 284.291 105.24 284.292 105.24C284.293 105.24 284.294 105.24 284.296 105.242L294.587 110.256C294.59 110.257 294.591 110.258 294.591 110.258C294.592 110.259 294.593 110.261 294.594 110.263C294.594 110.265 294.595 110.266 294.594 110.268C294.594 110.268 294.594 110.27 294.593 110.272L286.62 126.638C286.618 126.64 286.617 126.642 286.614 126.643C286.613 126.643 286.612 126.644 286.612 126.644C286.612 126.644 286.612 126.644 286.611 126.643Z" stroke="black" stroke-width="1.18678"/>
<path d="M264.241 117.473C265.238 115.427 266.132 114.796 266.917 114.729C267.33 114.694 267.798 114.803 268.352 115.077C268.907 115.352 269.511 115.774 270.183 116.317C270.853 116.859 271.569 117.503 272.349 118.212C272.414 118.27 272.479 118.329 272.544 118.388C273.266 119.044 274.039 119.747 274.866 120.451C276.668 121.989 278.743 123.558 281.164 124.738C283.585 125.917 286.1 126.584 288.422 127.056C289.486 127.272 290.516 127.449 291.477 127.613C291.564 127.628 291.65 127.643 291.736 127.657C292.776 127.835 293.724 128.002 294.564 128.196C295.405 128.39 296.11 128.606 296.668 128.873C297.225 129.14 297.6 129.442 297.827 129.789C298.258 130.448 298.312 131.541 297.315 133.587C293.42 141.581 282.869 144.593 273.674 140.112C264.478 135.632 260.346 125.468 264.241 117.473Z" stroke="black" stroke-width="1.18678"/>
<path d="M333.024 234.246C335.757 230.635 337.805 228.868 341.627 226.674C341.628 226.674 341.629 226.673 341.629 226.673L341.629 226.673C341.629 226.673 341.63 226.673 341.632 226.674C341.634 226.674 341.636 226.675 341.638 226.677L353.666 240.342C353.667 240.343 353.667 240.344 353.668 240.344C353.668 240.345 353.668 240.345 353.668 240.346C353.669 240.347 353.669 240.349 353.669 240.351C353.669 240.352 353.669 240.352 353.669 240.353C353.668 240.354 353.668 240.355 353.668 240.356C353.667 240.356 353.667 240.357 353.665 240.359L345.072 247.923C345.07 247.925 345.069 247.925 345.068 247.925C345.067 247.926 345.065 247.926 345.063 247.926C345.061 247.926 345.059 247.925 345.058 247.925C345.057 247.924 345.056 247.924 345.054 247.922L333.026 234.257C333.024 234.255 333.023 234.252 333.023 234.25C333.023 234.249 333.024 234.248 333.024 234.248C333.024 234.247 333.024 234.247 333.024 234.246Z" stroke="black" stroke-width="1.18678"/>
<path d="M350.106 217.14C351.609 218.848 351.848 219.916 351.607 220.666C351.48 221.061 351.199 221.451 350.732 221.856C350.265 222.262 349.643 222.657 348.883 223.068C348.124 223.477 347.254 223.889 346.299 224.337C346.221 224.373 346.141 224.411 346.061 224.448C345.178 224.861 344.232 225.305 343.263 225.795C341.149 226.866 338.902 228.176 336.88 229.956C334.859 231.735 333.274 233.798 331.944 235.759C331.334 236.657 330.775 237.54 330.253 238.363C330.205 238.438 330.158 238.512 330.112 238.585C329.547 239.476 329.028 240.287 328.525 240.987C328.022 241.689 327.551 242.256 327.089 242.668C326.628 243.079 326.205 243.309 325.797 243.384C325.023 243.528 323.994 243.156 322.49 241.448C316.614 234.773 317.902 223.877 325.58 217.118C333.259 210.359 344.23 210.465 350.106 217.14Z" stroke="black" stroke-width="1.18678"/>
<path d="M220.345 315.887C215.892 316.715 213.188 316.641 208.886 315.687C208.884 315.687 208.884 315.687 208.884 315.686L208.884 315.686C208.884 315.686 208.883 315.686 208.882 315.685C208.88 315.683 208.88 315.681 208.88 315.678L209.197 297.476C209.197 297.475 209.197 297.474 209.198 297.473C209.198 297.472 209.198 297.472 209.198 297.472C209.198 297.471 209.199 297.469 209.201 297.468C209.202 297.467 209.202 297.466 209.203 297.466C209.204 297.465 209.204 297.465 209.205 297.465C209.206 297.464 209.207 297.464 209.21 297.464L220.656 297.664C220.658 297.664 220.659 297.664 220.66 297.664C220.661 297.665 220.663 297.666 220.664 297.667C220.666 297.669 220.667 297.671 220.667 297.672C220.667 297.672 220.668 297.673 220.668 297.676L220.35 315.878C220.35 315.881 220.349 315.883 220.348 315.885C220.347 315.886 220.346 315.886 220.346 315.887C220.346 315.887 220.346 315.887 220.345 315.887Z" stroke="black" stroke-width="1.18678"/>
<path d="M196.196 317.021C196.235 314.745 196.779 313.795 197.462 313.404C197.821 313.197 198.293 313.099 198.91 313.113C199.529 313.128 200.255 313.255 201.093 313.464C201.93 313.672 202.85 313.954 203.857 314.267C203.94 314.293 204.024 314.319 204.108 314.345C205.039 314.634 206.037 314.944 207.084 315.234C209.367 315.867 211.91 316.413 214.603 316.46C217.296 316.507 219.857 316.05 222.161 315.497C223.217 315.244 224.225 314.969 225.166 314.712C225.251 314.689 225.335 314.666 225.419 314.643C226.437 314.365 227.366 314.116 228.209 313.937C229.055 313.757 229.785 313.655 230.404 313.662C231.021 313.669 231.488 313.784 231.841 314.003C232.509 314.418 233.02 315.387 232.98 317.662C232.825 326.554 224.533 333.738 214.305 333.56C204.077 333.382 196.04 325.912 196.196 317.021Z" stroke="black" stroke-width="1.18678"/>
<path d="M96.9878 140.124C99.1649 141.585 101.031 143.457 102.479 145.634C103.927 147.811 104.93 150.25 105.429 152.811C105.927 155.372 105.913 158.006 105.387 160.562C104.861 163.118 103.833 165.546 102.361 167.708C100.89 169.869 99.0038 171.722 96.8113 173.159C94.6187 174.597 92.1624 175.592 89.5825 176.088C87.0026 176.583 84.3497 176.569 81.7752 176.047C79.2008 175.524 76.7552 174.503 74.5781 173.042L85.783 156.583L96.9878 140.124Z" fill="#FF8832"/>
<path d="M91.8957 147.605C93.0173 148.358 93.9785 149.322 94.7247 150.444C95.4708 151.565 95.9871 152.822 96.2441 154.141C96.5012 155.461 96.4939 156.818 96.2228 158.134C95.9516 159.451 95.4219 160.702 94.6639 161.815C93.9058 162.929 92.9343 163.883 91.8047 164.624C90.6751 165.365 89.4097 165.877 88.0806 166.133C86.7515 166.388 85.3848 166.381 84.0585 166.111C82.7322 165.842 81.4722 165.316 80.3507 164.564L86.1232 156.084L91.8957 147.605Z" fill="#DB7429"/>
<mask id="path-66-inside-6_4_9" fill="white">
<path d="M99.8099 146.397C101.781 148.123 103.39 150.217 104.545 152.56C105.701 154.903 106.38 157.449 106.545 160.053C106.709 162.656 106.356 165.267 105.504 167.735C104.652 170.203 103.319 172.48 101.581 174.436C99.8431 176.393 97.7339 177.991 95.3739 179.138C93.0139 180.285 90.4495 180.96 87.8269 181.123C85.2044 181.286 82.5751 180.935 80.0893 180.09C77.6034 179.244 75.3096 177.921 73.3389 176.195L86.5744 161.296L99.8099 146.397Z"/>
</mask>
<path d="M99.8099 146.397C101.781 148.123 103.39 150.217 104.545 152.56C105.701 154.903 106.38 157.449 106.545 160.053C106.709 162.656 106.356 165.267 105.504 167.735C104.652 170.203 103.319 172.48 101.581 174.436C99.8431 176.393 97.7339 177.991 95.3739 179.138C93.0139 180.285 90.4495 180.96 87.8269 181.123C85.2044 181.286 82.5751 180.935 80.0893 180.09C77.6034 179.244 75.3096 177.921 73.3389 176.195L86.5744 161.296L99.8099 146.397Z" stroke="black" stroke-width="2.37356" mask="url(#path-66-inside-6_4_9)"/>
<defs>
<filter id="filter0_i_4_9" x="0" y="0" width="412.208" height="412.208" filterUnits="userSpaceOnUse" color-interpolation-filters="sRGB">
<feFlood flood-opacity="0" result="BackgroundImageFix"/>
<feBlend mode="normal" in="SourceGraphic" in2="BackgroundImageFix" result="shape"/>
<feColorMatrix in="SourceAlpha" type="matrix" values="0 0 0 0 0 0 0 0 0 0 0 0 0 0 0 0 0 0 127 0" result="hardAlpha"/>
<feOffset dx="-39.5593" dy="27.6915"/>
<feComposite in2="hardAlpha" operator="arithmetic" k2="-1" k3="1"/>
<feColorMatrix type="matrix" values="0 0 0 0 0 0 0 0 0 0 0 0 0 0 0 0 0 0 0.25 0"/>
<feBlend mode="normal" in2="shape" result="effect1_innerShadow_4_9"/>
</filter>
<filter id="filter1_f_4_9" x="72.8163" y="114.992" width="20.6277" height="10.4366" filterUnits="userSpaceOnUse" color-interpolation-filters="sRGB">
<feFlood flood-opacity="0" result="BackgroundImageFix"/>
<feBlend mode="normal" in="SourceGraphic" in2="BackgroundImageFix" result="shape"/>
<feGaussianBlur stdDeviation="0.791187" result="effect1_foregroundBlur_4_9"/>
</filter>
<filter id="filter2_f_4_9" x="248.087" y="66.5217" width="17.1362" height="17.3171" filterUnits="userSpaceOnUse" color-interpolation-filters="sRGB">
<feFlood flood-opacity="0" result="BackgroundImageFix"/>
<feBlend mode="normal" in="SourceGraphic" in2="BackgroundImageFix" result="shape"/>
<feGaussianBlur stdDeviation="0.791187" result="effect1_foregroundBlur_4_9"/>
</filter>
<filter id="filter3_f_4_9" x="285.605" y="171.184" width="20.7575" height="9.47672" filterUnits="userSpaceOnUse" color-interpolation-filters="sRGB">
<feFlood flood-opacity="0" result="BackgroundImageFix"/>
<feBlend mode="normal" in="SourceGraphic" in2="BackgroundImageFix" result="shape"/>
<feGaussianBlur stdDeviation="0.791187" result="effect1_foregroundBlur_4_9"/>
</filter>
<filter id="filter4_f_4_9" x="183.428" y="272.169" width="17.0294" height="17.4202" filterUnits="userSpaceOnUse" color-interpolation-filters="sRGB">
<feFlood flood-opacity="0" result="BackgroundImageFix"/>
<feBlend mode="normal" in="SourceGraphic" in2="BackgroundImageFix" result="shape"/>
<feGaussianBlur stdDeviation="0.791187" result="effect1_foregroundBlur_4_9"/>
</filter>
<filter id="filter5_i_4_9" x="12.6572" y="7.91162" width="412.208" height="412.208" filterUnits="userSpaceOnUse" color-interpolation-filters="sRGB">
<feFlood flood-opacity="0" result="BackgroundImageFix"/>
<feBlend mode="normal" in="SourceGraphic" in2="BackgroundImageFix" result="shape"/>
<feColorMatrix in="SourceAlpha" type="matrix" values="0 0 0 0 0 0 0 0 0 0 0 0 0 0 0 0 0 0 127 0" result="hardAlpha"/>
<feOffset dx="-39.5593" dy="27.6915"/>
<feComposite in2="hardAlpha" operator="arithmetic" k2="-1" k3="1"/>
<feColorMatrix type="matrix" values="0 0 0 0 0 0 0 0 0 0 0 0 0 0 0 0 0 0 0.25 0"/>
<feBlend mode="normal" in2="shape" result="effect1_innerShadow_4_9"/>
</filter>
<linearGradient id="paint0_linear_4_9" x1="35.998" y1="323.991" x2="358.802" y2="70.4153" gradientUnits="userSpaceOnUse">
<stop stop-color="white"/>
<stop offset="1" stop-color="#DCDCDC"/>
</linearGradient>
</defs>
</svg>
