<svg width="421" height="425" viewBox="0 0 421 425" fill="none" xmlns="http://www.w3.org/2000/svg">
<g filter="url(#filter0_i_4_97)">
<circle cx="214.571" cy="206.104" r="206.104" fill="#44DBDB"/>
</g>
<circle cx="214.571" cy="206.104" r="202.148" stroke="white" stroke-width="7.91187"/>
<path fill-rule="evenodd" clip-rule="evenodd" d="M222.239 133.316C226.472 133.503 230.12 135.741 233.75 137.925C237.752 140.332 242.361 142.354 244.313 146.596C246.365 151.052 246.351 156.473 244.35 160.952C242.439 165.228 238.043 167.622 233.924 169.851C230.294 171.815 226.33 172.367 222.239 172.916C217.425 173.562 212.039 176.068 208.03 173.326C204.021 170.583 204.009 164.734 203.261 159.935C202.623 155.85 202.903 151.831 204.058 147.861C205.248 143.768 206.637 139.537 209.965 136.875C213.375 134.147 217.877 133.123 222.239 133.316Z" fill="#3ECCCC"/>
<path fill-rule="evenodd" clip-rule="evenodd" d="M297.362 103.385C302.316 104.746 302.15 112.213 305.798 115.829C308.555 118.562 314.652 117.748 315.641 121.502C316.645 125.313 311.759 128.032 309.934 131.526C308.526 134.218 308.31 137.415 306.187 139.588C303.788 142.044 300.688 143.54 297.362 144.395C293.093 145.492 287.663 148.22 284.485 145.165C281.173 141.981 285.156 136.213 284.182 131.723C283.37 127.979 279.278 125.425 279.373 121.596C279.48 117.246 281.659 113.133 284.717 110.037C288.148 106.564 292.655 102.091 297.362 103.385Z" fill="#3ECCCC"/>
<path fill-rule="evenodd" clip-rule="evenodd" d="M348.927 164.353C352.887 165.253 354.57 169.787 357.225 172.86C359.177 175.117 361.451 177.075 362.375 179.912C363.3 182.75 362.869 185.706 362.371 188.649C361.783 192.122 362.22 196.6 359.234 198.468C356.22 200.352 352.439 196.507 348.927 197.057C344.233 197.792 340.115 204.438 335.974 202.11C332.033 199.896 335.926 193.258 334.523 188.961C333.118 184.654 327.314 181.947 327.928 177.458C328.536 173.021 333.546 170.713 337.346 168.341C340.897 166.125 344.846 163.425 348.927 164.353Z" fill="#3ECCCC"/>
<path fill-rule="evenodd" clip-rule="evenodd" d="M221.44 58.9394C224.757 60.2186 225.912 64.2509 228.872 66.2179C232.059 68.3355 237.09 67.4634 239.136 70.697C241.225 73.9997 240.256 78.4526 238.942 82.1332C237.654 85.7415 235.343 89.1438 231.928 90.8818C228.734 92.5075 225.017 91.2753 221.44 91.0411C218.151 90.8257 214.831 91.089 211.905 89.5708C208.631 87.8719 205.415 85.5295 204.143 82.0669C202.851 78.5507 204.503 74.841 205.135 71.1487C205.9 66.6829 204.595 60.9686 208.222 58.2528C211.842 55.5419 217.221 57.3118 221.44 58.9394Z" fill="#3ECCCC"/>
<path fill-rule="evenodd" clip-rule="evenodd" d="M123.539 110.391C127.45 109.729 131.979 109.047 135.096 111.5C138.2 113.943 137.155 118.864 138.842 122.436C140.924 126.841 147.736 130.15 146.07 134.729C144.381 139.37 136.883 137.451 132.529 139.782C129.094 141.622 127.427 147.037 123.539 146.796C119.609 146.553 118.522 141.011 115.322 138.717C112.085 136.398 107.234 136.699 104.922 133.457C102.306 129.788 100.271 124.522 102.347 120.523C104.451 116.469 110.391 116.953 114.511 114.983C117.633 113.49 120.126 110.968 123.539 110.391Z" fill="#3ECCCC"/>
<path fill-rule="evenodd" clip-rule="evenodd" d="M222.541 229.867C227.374 229.843 232.581 229.272 236.511 232.085C240.451 234.906 242.871 239.78 243.148 244.618C243.398 248.988 240.082 252.51 237.896 256.303C236.207 259.235 234.358 261.865 231.881 264.17C229.046 266.81 226.358 269.936 222.541 270.596C218.389 271.314 214.145 270.005 210.516 267.865C206.609 265.561 201.602 262.696 201.459 258.163C201.311 253.444 208.601 251.745 209.866 247.196C211.241 242.252 205.643 236.368 208.672 232.226C211.51 228.346 217.734 229.891 222.541 229.867Z" fill="#3ECCCC"/>
<path fill-rule="evenodd" clip-rule="evenodd" d="M329.093 243.006C334.066 243.165 338.248 235.407 342.658 237.713C346.813 239.886 343.944 246.66 344.871 251.257C345.648 255.106 349.215 258.813 347.64 262.41C346.056 266.024 340.804 265.792 337.536 268.005C334.44 270.101 332.809 274.551 329.093 274.968C325.329 275.389 321.633 272.926 319.153 270.065C316.925 267.495 317.093 263.82 316.523 260.468C316.047 257.667 316.305 254.998 316.109 252.165C315.745 246.919 310.587 239.857 314.884 236.826C319.21 233.775 323.801 242.837 329.093 243.006Z" fill="#3ECCCC"/>
<path fill-rule="evenodd" clip-rule="evenodd" d="M288.981 304.223C292.582 304.864 295.789 306.275 298.958 308.102C302.534 310.163 306.659 311.801 308.517 315.487C310.506 319.433 311.194 324.463 309.19 328.401C307.25 332.214 302.494 333.329 298.57 335.034C295.491 336.372 292.33 337.427 288.981 337.181C285.813 336.948 282.801 335.732 280.362 333.697C278.039 331.757 277.544 328.571 275.748 326.134C272.674 321.967 266.074 319.591 266.142 314.414C266.206 309.511 271.559 306.018 276.038 304.02C280.077 302.217 284.626 303.447 288.981 304.223Z" fill="#3ECCCC"/>
<path fill-rule="evenodd" clip-rule="evenodd" d="M183.412 306.763C186.888 306.73 188.815 310.745 191.364 313.108C193.547 315.134 195.68 317.016 197.215 319.568C199.187 322.846 201.421 326.097 201.476 329.922C201.546 334.758 202.059 341.752 197.559 343.524C192.61 345.472 188.717 337.414 183.412 337.033C178.798 336.703 174.887 343.489 170.665 341.597C166.691 339.816 168.132 333.594 166.62 329.509C165.013 325.166 159.306 321.001 161.54 316.946C163.933 312.604 171.079 315.355 175.573 313.262C178.727 311.794 179.933 306.797 183.412 306.763Z" fill="#3ECCCC"/>
<path fill-rule="evenodd" clip-rule="evenodd" d="M116.592 203.932C119.644 203.674 122.568 204.103 125.49 205.02C129.785 206.367 135.086 206.668 137.475 210.482C139.932 214.405 138.735 219.597 137.395 224.027C136.033 228.53 134.056 233.389 129.886 235.565C125.853 237.67 120.851 236.48 116.592 234.882C113.253 233.629 111.99 229.661 108.994 227.726C105.695 225.596 100.521 226.498 98.4447 223.164C96.3389 219.784 96.8115 214.911 98.8964 211.518C100.875 208.298 105.249 207.926 108.723 206.437C111.316 205.325 113.78 204.169 116.592 203.932Z" fill="#3ECCCC"/>
<circle cx="214.572" cy="206.104" r="189.885" stroke="url(#paint0_linear_4_97)" stroke-width="16.6149"/>
<line x1="228.502" y1="165.768" x2="237.259" y2="150.6" stroke="#719840" stroke-width="2.37356"/>
<line x1="191.317" y1="247.232" x2="174.007" y2="249.895" stroke="#719840" stroke-width="2.37356"/>
<line x1="232.141" y1="339.87" x2="219.757" y2="327.486" stroke="#719840" stroke-width="2.37356"/>
<line x1="362.41" y1="256.947" x2="357.877" y2="240.03" stroke="#719840" stroke-width="2.37356"/>
<line x1="357.202" y1="139.128" x2="348.445" y2="154.295" stroke="#719840" stroke-width="2.37356"/>
<line x1="132.769" y1="88.9943" x2="115.459" y2="91.6573" stroke="#719840" stroke-width="2.37356"/>
<line x1="73.4292" y1="198.998" x2="82.1861" y2="183.83" stroke="#719840" stroke-width="2.37356"/>
<line x1="254.666" y1="64.1002" x2="245.909" y2="48.9329" stroke="#719840" stroke-width="2.37356"/>
<line x1="264.159" y1="228.491" x2="276.543" y2="240.875" stroke="#719840" stroke-width="2.37356"/>
<path d="M311.848 143.562C311.848 143.562 303.709 127.744 294.524 122.141C284.721 116.161 275.64 122.429 265.598 116.86C255.045 111.007 256.264 98.4529 245.191 93.6579C236.883 90.0605 222.088 91.7395 222.088 91.7395" stroke="#F845B0" stroke-width="8.70306" stroke-linecap="round"/>
<path d="M315.014 151.474C315.014 151.474 306.875 135.655 297.69 130.053C287.887 124.072 278.806 130.341 268.764 124.772C258.211 118.919 259.43 106.365 248.357 101.57C240.049 97.9724 225.254 99.6514 225.254 99.6514" stroke="black" stroke-width="1.58237" stroke-linecap="round"/>
<path d="M101.973 284.039C101.973 284.039 115.964 295.027 126.648 296.293C138.051 297.644 143.694 288.161 155.144 289.039C167.176 289.962 171.299 301.882 183.363 301.627C192.414 301.435 205.164 293.743 205.164 293.743" stroke="#F845B0" stroke-width="8.70306" stroke-linecap="round"/>
<path d="M111.468 276.918C111.468 276.918 125.459 287.906 136.143 289.172C147.547 290.523 153.189 281.04 164.639 281.918C176.671 282.841 180.794 294.761 192.858 294.506C201.909 294.314 214.659 286.622 214.659 286.622" stroke="black" stroke-width="1.58237" stroke-linecap="round"/>
<path d="M329.879 213.859C329.879 213.859 314.077 222.029 308.492 231.225C302.532 241.04 308.818 250.109 303.269 260.162C297.437 270.727 284.881 269.533 280.108 280.615C276.527 288.93 278.236 303.722 278.236 303.722" stroke="#F846B0" stroke-width="8.70306" stroke-linecap="round"/>
<path d="M333.043 228.1C333.043 228.1 317.241 236.27 311.656 245.466C305.696 255.281 311.983 264.35 306.433 274.403C300.602 284.968 288.045 283.774 283.272 294.856C279.691 303.171 281.4 317.963 281.4 317.963" stroke="black" stroke-width="1.58237" stroke-linecap="round"/>
<path d="M142.833 107.773C142.833 107.773 136.299 124.319 138.138 134.92C140.101 146.234 150.801 148.933 153.23 160.156C155.783 171.95 145.537 179.307 149.228 190.796C151.998 199.415 163.011 209.436 163.011 209.436" stroke="#F845B0" stroke-width="8.70306" stroke-linecap="round"/>
<path d="M148.036 98.899C148.036 98.899 141.502 115.445 143.342 126.046C145.304 137.36 156.004 140.059 158.433 151.282C160.986 163.076 150.74 170.433 154.431 181.921C157.201 190.541 168.214 200.561 168.214 200.561" stroke="black" stroke-width="1.58237" stroke-linecap="round"/>
<circle cx="224.857" cy="207.291" r="5.46414" stroke="black" stroke-width="2.52191"/>
<circle cx="103.805" cy="229.84" r="5.46414" stroke="black" stroke-width="2.52191"/>
<circle cx="110.135" cy="153.094" r="5.46414" stroke="black" stroke-width="2.52191"/>
<circle cx="189.254" cy="121.447" r="5.46414" stroke="black" stroke-width="2.52191"/>
<circle cx="191.628" cy="57.3606" r="5.46414" stroke="black" stroke-width="2.52191"/>
<circle cx="306.348" cy="183.95" r="5.46414" stroke="black" stroke-width="2.52191"/>
<circle cx="310.305" cy="84.261" r="5.46414" stroke="black" stroke-width="2.52191"/>
<circle cx="161.564" cy="340.606" r="5.46414" stroke="black" stroke-width="2.52191"/>
<circle cx="262.833" cy="358.012" r="5.46414" stroke="black" stroke-width="2.52191"/>
<circle cx="336.415" cy="297.091" r="5.46414" stroke="black" stroke-width="2.52191"/>
<g filter="url(#filter1_i_4_97)">
<circle cx="206.761" cy="218.58" r="205.313" stroke="black" stroke-width="1.58237"/>
</g>
<defs>
<filter id="filter0_i_4_97" x="8.4668" y="0" width="412.208" height="412.208" filterUnits="userSpaceOnUse" color-interpolation-filters="sRGB">
<feFlood flood-opacity="0" result="BackgroundImageFix"/>
<feBlend mode="normal" in="SourceGraphic" in2="BackgroundImageFix" result="shape"/>
<feColorMatrix in="SourceAlpha" type="matrix" values="0 0 0 0 0 0 0 0 0 0 0 0 0 0 0 0 0 0 127 0" result="hardAlpha"/>
<feOffset dx="45.0976" dy="-22.1532"/>
<feComposite in2="hardAlpha" operator="arithmetic" k2="-1" k3="1"/>
<feColorMatrix type="matrix" values="0 0 0 0 0 0 0 0 0 0 0 0 0 0 0 0 0 0 0.25 0"/>
<feBlend mode="normal" in2="shape" result="effect1_innerShadow_4_97"/>
</filter>
<filter id="filter1_i_4_97" x="0.657227" y="12.4753" width="412.208" height="412.208" filterUnits="userSpaceOnUse" color-interpolation-filters="sRGB">
<feFlood flood-opacity="0" result="BackgroundImageFix"/>
<feBlend mode="normal" in="SourceGraphic" in2="BackgroundImageFix" result="shape"/>
<feColorMatrix in="SourceAlpha" type="matrix" values="0 0 0 0 0 0 0 0 0 0 0 0 0 0 0 0 0 0 127 0" result="hardAlpha"/>
<feOffset dx="-39.5593" dy="27.6915"/>
<feComposite in2="hardAlpha" operator="arithmetic" k2="-1" k3="1"/>
<feColorMatrix type="matrix" values="0 0 0 0 0 0 0 0 0 0 0 0 0 0 0 0 0 0 0.25 0"/>
<feBlend mode="normal" in2="shape" result="effect1_innerShadow_4_97"/>
</filter>
<linearGradient id="paint0_linear_4_97" x1="44.467" y1="323.991" x2="367.271" y2="70.4156" gradientUnits="userSpaceOnUse">
<stop stop-color="#DCDCDC"/>
<stop offset="1" stop-color="white"/>
</linearGradient>
</defs>
</svg>
