<svg width="1623" height="1776" viewBox="0 0 1623 1776" fill="none" xmlns="http://www.w3.org/2000/svg">
<path fill-rule="evenodd" clip-rule="evenodd" d="M764.023 1166.08C764.263 1168.03 764.718 1169.91 765.361 1171.69C754.571 1174.37 747.229 1184.74 748.617 1196.05C750.117 1208.27 761.241 1216.96 773.464 1215.46L875.186 1202.96C887.408 1201.46 896.1 1190.34 894.6 1178.11C893.182 1166.56 883.16 1158.16 871.74 1158.55C868.949 1148.66 859.297 1142.02 848.791 1143.31C842.363 1144.1 836.964 1147.69 833.668 1152.71C829.255 1148.64 823.147 1146.46 816.719 1147.25C814.648 1147.5 812.684 1148.05 810.863 1148.84C805.672 1140.97 796.323 1136.27 786.336 1137.5C772.288 1139.23 762.298 1152.02 764.023 1166.08Z" fill="#D25454"/>
<path fill-rule="evenodd" clip-rule="evenodd" d="M1253.26 1723.02C1253.5 1724.98 1253.95 1726.86 1254.6 1728.64C1243.81 1731.31 1236.46 1741.68 1237.85 1752.99C1239.35 1765.22 1250.48 1773.91 1262.7 1772.41L1364.42 1759.91C1376.64 1758.41 1385.34 1747.28 1383.84 1735.06C1382.42 1723.5 1372.4 1715.1 1360.98 1715.49C1358.19 1705.61 1348.53 1698.96 1338.03 1700.25C1331.6 1701.04 1326.2 1704.63 1322.9 1709.66C1318.49 1705.58 1312.38 1703.4 1305.96 1704.19C1303.88 1704.44 1301.92 1704.99 1300.1 1705.78C1294.91 1697.91 1285.56 1693.22 1275.57 1694.44C1261.52 1696.17 1251.53 1708.96 1253.26 1723.02Z" fill="#D25454"/>
<path fill-rule="evenodd" clip-rule="evenodd" d="M245.052 1698.49C245.292 1700.45 245.747 1702.33 246.39 1704.11C235.6 1706.78 228.259 1717.16 229.647 1728.47C231.147 1740.69 242.271 1749.38 254.493 1747.88L356.215 1735.38C368.438 1733.88 377.13 1722.75 375.63 1710.53C374.212 1698.98 364.19 1690.58 352.771 1690.96C349.98 1681.08 340.328 1674.43 329.822 1675.72C323.394 1676.51 317.995 1680.11 314.699 1685.13C310.286 1681.05 304.178 1678.87 297.75 1679.66C295.678 1679.92 293.714 1680.46 291.892 1681.25C286.701 1673.39 277.352 1668.69 267.365 1669.92C253.317 1671.64 243.327 1684.44 245.052 1698.49Z" fill="#D25454"/>
<path fill-rule="evenodd" clip-rule="evenodd" d="M1028.86 1189.13C1026.33 1187.27 1023.3 1186.02 1019.96 1185.61C1009.92 1184.37 1000.74 1191.25 999.003 1201.11C987.677 1200.84 977.775 1209.21 976.367 1220.69C974.867 1232.91 983.559 1244.03 995.781 1245.54L1097.5 1258.03C1109.73 1259.53 1120.85 1250.84 1122.35 1238.62C1123.82 1226.62 1115.47 1215.67 1103.59 1213.86C1102.73 1204.12 1095.17 1195.97 1085.08 1194.73C1082.99 1194.47 1080.93 1194.53 1078.95 1194.86C1076.49 1184.22 1067.62 1175.74 1056.15 1174.33C1044.52 1172.9 1033.73 1179.16 1028.86 1189.13Z" fill="#D25454"/>
<path fill-rule="evenodd" clip-rule="evenodd" d="M1515.72 1655.09C1513.19 1653.23 1510.16 1651.97 1506.83 1651.56C1496.78 1650.33 1487.6 1657.21 1485.87 1667.07C1474.54 1666.8 1464.64 1675.16 1463.23 1686.64C1461.73 1698.87 1470.42 1709.99 1482.65 1711.49L1584.37 1723.99C1596.59 1725.49 1607.71 1716.8 1609.21 1704.58C1610.69 1692.57 1602.33 1681.63 1590.45 1679.82C1589.59 1670.08 1582.03 1661.93 1571.94 1660.69C1569.85 1660.43 1567.79 1660.49 1565.82 1660.82C1563.36 1650.17 1554.48 1641.69 1543.01 1640.28C1531.39 1638.86 1520.59 1645.12 1515.72 1655.09Z" fill="#D25454"/>
<path fill-rule="evenodd" clip-rule="evenodd" d="M540.728 1629.77C538.198 1627.91 535.171 1626.66 531.834 1626.25C521.785 1625.01 512.61 1631.89 510.873 1641.75C499.547 1641.48 489.646 1649.85 488.237 1661.33C486.737 1673.55 495.429 1684.67 507.652 1686.18L609.373 1698.67C621.596 1700.17 632.72 1691.48 634.22 1679.26C635.693 1667.26 627.335 1656.31 615.458 1654.5C614.594 1644.76 607.038 1636.61 596.948 1635.37C594.857 1635.11 592.799 1635.17 590.823 1635.51C588.366 1624.86 579.488 1616.38 568.018 1614.97C556.394 1613.54 545.597 1619.8 540.728 1629.77Z" fill="#D25454"/>
<path fill-rule="evenodd" clip-rule="evenodd" d="M564.687 1200.21C562.157 1198.35 559.129 1197.09 555.792 1196.68C545.743 1195.45 536.568 1202.33 534.831 1212.19C523.506 1211.92 513.606 1220.28 512.197 1231.76C510.697 1243.99 519.39 1255.11 531.612 1256.61L633.334 1269.11C645.556 1270.61 656.68 1261.92 658.18 1249.7C659.653 1237.69 651.295 1226.75 639.417 1224.94C638.554 1215.2 630.998 1207.05 620.907 1205.81C618.816 1205.55 616.759 1205.61 614.782 1205.94C612.325 1195.29 603.448 1186.81 591.978 1185.4C580.353 1183.98 569.556 1190.24 564.687 1200.21Z" fill="#D25454"/>
<path fill-rule="evenodd" clip-rule="evenodd" d="M1049.18 1644.01C1046.65 1642.15 1043.62 1640.9 1040.28 1640.49C1030.24 1639.25 1021.06 1646.13 1019.32 1655.99C1008 1655.72 998.098 1664.09 996.689 1675.57C995.189 1687.79 1003.88 1698.92 1016.1 1700.42L1117.83 1712.91C1130.05 1714.42 1141.17 1705.72 1142.67 1693.5C1144.15 1681.5 1135.79 1670.55 1123.91 1668.74C1123.05 1659 1115.49 1650.85 1105.4 1649.61C1103.31 1649.35 1101.25 1649.41 1099.27 1649.75C1096.82 1639.1 1087.94 1630.62 1076.47 1629.21C1064.85 1627.78 1054.05 1634.04 1049.18 1644.01Z" fill="#D25454"/>
<path fill-rule="evenodd" clip-rule="evenodd" d="M55.2057 1647.18C52.6761 1645.32 49.6487 1644.06 46.3115 1643.65C36.2629 1642.42 27.0875 1649.3 25.3508 1659.16C14.025 1658.89 4.12467 1667.25 2.71579 1678.73C1.21588 1690.95 9.90814 1702.08 22.1305 1703.58L123.852 1716.08C136.075 1717.58 147.199 1708.89 148.699 1696.67C150.172 1684.66 141.814 1673.72 129.936 1671.91C129.073 1662.17 121.517 1654.01 111.426 1652.77C109.335 1652.52 107.277 1652.57 105.301 1652.91C102.844 1642.26 93.9662 1633.78 82.4963 1632.37C70.8718 1630.94 60.075 1637.21 55.2057 1647.18Z" fill="#D25454"/>
<path fill-rule="evenodd" clip-rule="evenodd" d="M291.408 1185.28C291.267 1184.56 291.15 1183.82 291.058 1183.08C288.959 1165.97 301.12 1150.39 318.222 1148.29C329.15 1146.95 339.45 1151.43 346.011 1159.31C349.84 1155.43 354.955 1152.76 360.783 1152.05C374.341 1150.38 386.697 1159.88 388.648 1173.33L393.064 1172.79C405.287 1171.29 416.411 1179.98 417.911 1192.2C419.41 1204.43 410.718 1215.55 398.496 1217.05L296.774 1229.55C284.552 1231.05 273.427 1222.36 271.928 1210.14C270.428 1197.92 279.12 1186.79 291.342 1185.29L291.408 1185.28Z" fill="#D25454"/>
<path fill-rule="evenodd" clip-rule="evenodd" d="M771.158 1705.83C771.017 1705.1 770.9 1704.37 770.809 1703.63C768.709 1686.51 780.871 1670.94 797.973 1668.84C808.9 1667.5 819.2 1671.98 825.762 1679.85C829.59 1675.98 834.705 1673.31 840.533 1672.6C854.091 1670.93 866.447 1680.43 868.398 1693.88L872.815 1693.34C885.037 1691.84 896.161 1700.53 897.661 1712.75C899.161 1724.98 890.469 1736.1 878.246 1737.6L776.525 1750.1C764.302 1751.6 753.178 1742.91 751.678 1730.69C750.178 1718.46 758.871 1707.34 771.093 1705.84L771.158 1705.83Z" fill="#D25454"/>
<path fill-rule="evenodd" clip-rule="evenodd" d="M643.961 41.0752C643.721 43.033 643.266 44.9121 642.623 46.6917C653.414 49.365 660.755 59.7372 659.367 71.0489C657.867 83.2714 646.743 91.9625 634.521 90.461L532.799 77.9642C520.577 76.4626 511.884 65.3371 513.384 53.1145C514.802 41.5578 524.825 33.1582 536.244 33.5467C539.035 23.6609 548.687 17.0154 559.194 18.3062C565.621 19.0958 571.02 22.6903 574.317 27.7133C578.729 23.6372 584.837 21.4564 591.265 22.246C593.336 22.5005 595.3 23.0461 597.122 23.8369C602.313 15.9693 611.662 11.2729 621.648 12.4998C635.696 14.2256 645.686 27.0193 643.961 41.0752Z" fill="#D25454"/>
<path fill-rule="evenodd" clip-rule="evenodd" d="M1372.46 41.0752C1372.22 43.0331 1371.77 44.9121 1371.12 46.6917C1381.91 49.365 1389.26 59.7372 1387.87 71.0489C1386.37 83.2714 1375.24 91.9625 1363.02 90.461L1261.3 77.9642C1249.08 76.4626 1240.39 65.3371 1241.89 53.1145C1243.3 41.5578 1253.33 33.1582 1264.75 33.5467C1267.54 23.6609 1277.19 17.0155 1287.69 18.3062C1294.12 19.0958 1299.52 22.6903 1302.82 27.7133C1307.23 23.6372 1313.34 21.4564 1319.77 22.246C1321.84 22.5005 1323.8 23.0461 1325.62 23.8369C1330.81 15.9693 1340.16 11.2729 1350.15 12.4998C1364.2 14.2256 1374.19 27.0193 1372.46 41.0752Z" fill="#D25454"/>
<path fill-rule="evenodd" clip-rule="evenodd" d="M369.742 683.02C369.502 684.978 369.047 686.857 368.404 688.636C379.194 691.31 386.535 701.682 385.147 712.993C383.647 725.216 372.523 733.907 360.301 732.406L258.579 719.909C246.356 718.407 237.664 707.282 239.164 695.059C240.582 683.503 250.604 675.103 262.023 675.491C264.814 665.605 274.466 658.959 284.973 660.25C291.4 661.04 296.8 664.634 300.096 669.658C304.508 665.582 310.616 663.401 317.044 664.191C319.116 664.445 321.081 664.991 322.903 665.782C328.093 657.914 337.442 653.218 347.429 654.445C361.477 656.17 371.467 668.964 369.742 683.02Z" fill="#D25454"/>
<path fill-rule="evenodd" clip-rule="evenodd" d="M1377.95 658.493C1377.71 660.451 1377.25 662.33 1376.61 664.11C1387.4 666.783 1394.74 677.155 1393.35 688.467C1391.85 700.689 1380.73 709.38 1368.51 707.879L1266.78 695.382C1254.56 693.88 1245.87 682.755 1247.37 670.532C1248.79 658.976 1258.81 650.576 1270.23 650.964C1273.02 641.078 1282.67 634.433 1293.18 635.724C1299.61 636.513 1305.01 640.108 1308.3 645.131C1312.71 641.055 1318.82 638.874 1325.25 639.663C1327.32 639.918 1329.29 640.464 1331.11 641.255C1336.3 633.387 1345.65 628.691 1355.63 629.918C1369.68 631.644 1379.67 644.437 1377.95 658.493Z" fill="#D25454"/>
<path fill-rule="evenodd" clip-rule="evenodd" d="M379.128 64.1293C381.657 62.2705 384.684 61.0159 388.02 60.606C398.069 59.3715 407.244 66.251 408.981 76.1123C420.308 75.84 430.209 84.2052 431.618 95.6866C433.118 107.909 424.426 119.035 412.203 120.536L310.481 133.033C298.259 134.535 287.135 125.844 285.635 113.621C284.162 101.618 292.519 90.6722 304.396 88.8613C305.259 79.1211 312.815 70.9682 322.906 69.7285C324.998 69.4715 327.056 69.5292 329.033 69.8644C331.49 59.2154 340.367 50.7356 351.837 49.3265C363.462 47.8984 374.258 54.1614 379.128 64.1293Z" fill="#D25454"/>
<path fill-rule="evenodd" clip-rule="evenodd" d="M107.279 615.088C109.809 613.228 112.837 611.973 116.174 611.563C126.223 610.328 135.398 617.208 137.135 627.069C148.46 626.799 158.36 635.163 159.769 646.644C161.269 658.866 152.576 669.992 140.354 671.493L38.6322 683.99C26.4098 685.492 15.2858 676.801 13.7859 664.578C12.3128 652.574 20.6702 641.629 32.5475 639.818C33.4105 630.078 40.9668 621.925 51.0578 620.686C53.1494 620.429 55.2071 620.486 57.1835 620.821C59.6409 610.172 68.5183 601.693 79.9882 600.283C91.6131 598.855 102.41 605.119 107.279 615.088Z" fill="#D25454"/>
<path fill-rule="evenodd" clip-rule="evenodd" d="M1082.27 589.771C1084.8 587.911 1087.83 586.656 1091.17 586.246C1101.21 585.012 1110.39 591.891 1112.13 601.752C1123.45 601.48 1133.35 609.845 1134.76 621.326C1136.26 633.549 1127.57 644.675 1115.35 646.176L1013.63 658.673C1001.4 660.174 990.28 651.483 988.78 639.261C987.307 627.257 995.665 616.311 1007.54 614.501C1008.41 604.762 1015.96 596.61 1026.05 595.37C1028.14 595.113 1030.2 595.171 1032.18 595.506C1034.63 584.856 1043.51 576.376 1054.98 574.967C1066.61 573.539 1077.4 579.802 1082.27 589.771Z" fill="#D25454"/>
<path fill-rule="evenodd" clip-rule="evenodd" d="M843.298 75.2085C845.827 73.3489 848.855 72.0937 852.192 71.6837C862.241 70.4492 871.416 77.3285 873.153 87.1896C884.479 86.9188 894.378 95.2836 895.787 106.764C897.287 118.987 888.595 130.112 876.372 131.614L774.651 144.11C762.428 145.612 751.304 136.921 749.804 124.698C748.331 112.694 756.689 101.748 768.567 99.9384C769.43 90.1985 776.986 82.0461 787.077 80.8064C789.168 80.5495 791.226 80.607 793.202 80.9419C795.659 70.293 804.537 61.8132 816.007 60.4041C827.631 58.9759 838.428 65.2397 843.298 75.2085Z" fill="#D25454"/>
<path fill-rule="evenodd" clip-rule="evenodd" d="M573.821 604.011C576.351 602.152 579.378 600.897 582.715 600.487C592.764 599.252 601.939 606.132 603.676 615.993C615.002 615.722 624.902 624.087 626.311 635.567C627.811 647.79 619.118 658.915 606.896 660.417L505.174 672.914C492.952 674.415 481.828 665.724 480.328 653.502C478.855 641.498 487.212 630.552 499.09 628.742C499.953 619.002 507.509 610.849 517.6 609.609C519.691 609.352 521.749 609.41 523.726 609.745C526.183 599.096 535.06 590.616 546.53 589.207C558.155 587.779 568.952 594.043 573.821 604.011Z" fill="#D25454"/>
<path fill-rule="evenodd" clip-rule="evenodd" d="M1567.79 607.175C1570.32 605.316 1573.35 604.061 1576.69 603.651C1586.74 602.417 1595.91 609.296 1597.65 619.157C1608.97 618.886 1618.88 627.251 1620.28 638.732C1621.78 650.954 1613.09 662.08 1600.87 663.581L1499.15 676.078C1486.93 677.58 1475.8 668.889 1474.3 656.666C1472.83 644.662 1481.19 633.716 1493.06 631.906C1493.93 622.166 1501.48 614.014 1511.57 612.774C1513.67 612.517 1515.72 612.575 1517.7 612.909C1520.16 602.261 1529.03 593.781 1540.5 592.372C1552.13 590.944 1562.92 597.207 1567.79 607.175Z" fill="#D25454"/>
<path fill-rule="evenodd" clip-rule="evenodd" d="M1116.58 60.2806C1116.72 59.556 1116.83 58.8214 1116.93 58.0774C1119.03 40.9658 1106.86 25.3909 1089.76 23.2899C1078.83 21.9474 1068.53 26.4305 1061.97 34.3064C1058.14 30.427 1053.03 27.7634 1047.2 27.0474C1033.64 25.3818 1021.29 34.876 1019.34 48.3344L1014.92 47.7918C1002.7 46.2903 991.573 54.9814 990.074 67.2039C988.574 79.4265 997.266 90.5521 1009.49 92.0536L1111.21 104.55C1123.43 106.052 1134.56 97.3609 1136.06 85.1383C1137.56 72.9158 1128.86 61.7902 1116.64 60.2886L1116.58 60.2806Z" fill="#D25454"/>
<path fill-rule="evenodd" clip-rule="evenodd" d="M851.842 665.83C851.983 665.105 852.1 664.37 852.191 663.626C854.291 646.514 842.129 630.939 825.027 628.838C814.1 627.496 803.8 631.979 797.238 639.855C793.41 635.976 788.295 633.312 782.467 632.596C768.909 630.931 756.553 640.425 754.602 653.884L750.185 653.341C737.963 651.839 726.839 660.53 725.339 672.753C723.839 684.975 732.531 696.101 744.754 697.603L846.475 710.099C858.698 711.601 869.822 702.91 871.322 690.687C872.822 678.465 864.129 667.339 851.907 665.838L851.842 665.83Z" fill="#D25454"/>
<mask id="path-24-inside-1_13_1380" fill="white">
<path fill-rule="evenodd" clip-rule="evenodd" d="M757.806 1170.44C757.978 1172.41 758.367 1174.3 758.948 1176.1C748.07 1178.4 740.372 1188.51 741.364 1199.86C742.437 1212.13 753.251 1221.2 765.519 1220.13L867.614 1211.19C879.881 1210.12 888.957 1199.3 887.884 1187.04C886.87 1175.44 877.147 1166.69 865.722 1166.68C863.277 1156.71 853.863 1149.73 843.318 1150.65C836.866 1151.21 831.345 1154.62 827.876 1159.52C823.608 1155.3 817.579 1152.9 811.128 1153.47C809.049 1153.65 807.067 1154.13 805.218 1154.85C800.305 1146.81 791.126 1141.79 781.102 1142.67C767.003 1143.9 756.572 1156.34 757.806 1170.44Z"/>
</mask>
<path d="M758.948 1176.1L760.454 1175.62L760.992 1177.29L759.274 1177.65L758.948 1176.1ZM765.519 1220.13L765.657 1221.71L765.519 1220.13ZM867.614 1211.19L867.476 1209.62L867.614 1211.19ZM865.722 1166.68L865.72 1168.26L864.48 1168.26L864.185 1167.06L865.722 1166.68ZM827.876 1159.52L829.168 1160.44L828.089 1161.96L826.762 1160.65L827.876 1159.52ZM805.218 1154.85L805.797 1156.33L804.561 1156.81L803.868 1155.68L805.218 1154.85ZM781.103 1142.67L780.965 1141.09L781.103 1142.67ZM757.442 1176.59C756.825 1174.68 756.412 1172.67 756.23 1170.58L759.383 1170.31C759.544 1172.15 759.909 1173.93 760.454 1175.62L757.442 1176.59ZM739.788 1200C738.725 1187.84 746.97 1177.01 758.621 1174.56L759.274 1177.65C749.171 1179.78 742.019 1189.18 742.941 1199.72L739.788 1200ZM765.657 1221.71C752.519 1222.86 740.937 1213.14 739.788 1200L742.941 1199.72C743.937 1211.12 753.984 1219.55 765.381 1218.55L765.657 1221.71ZM867.752 1212.77L765.657 1221.71L765.381 1218.55L867.476 1209.62L867.752 1212.77ZM889.46 1186.9C890.609 1200.04 880.89 1211.62 867.752 1212.77L867.476 1209.62C878.873 1208.62 887.304 1198.57 886.308 1187.17L889.46 1186.9ZM865.723 1165.1C877.961 1165.11 888.374 1174.48 889.46 1186.9L886.308 1187.17C885.365 1176.4 876.333 1168.28 865.72 1168.26L865.723 1165.1ZM843.18 1149.07C854.515 1148.08 864.632 1155.58 867.259 1166.31L864.185 1167.06C861.923 1157.83 853.211 1151.37 843.456 1152.23L843.18 1149.07ZM826.584 1158.61C830.31 1153.34 836.246 1149.68 843.18 1149.07L843.456 1152.23C837.487 1152.75 832.38 1155.9 829.168 1160.44L826.584 1158.61ZM826.762 1160.65C822.811 1156.73 817.234 1154.52 811.266 1155.04L810.99 1151.89C817.925 1151.28 824.405 1153.86 828.99 1158.4L826.762 1160.65ZM811.266 1155.04C809.34 1155.21 807.506 1155.65 805.797 1156.33L804.639 1153.38C806.627 1152.6 808.758 1152.09 810.99 1151.89L811.266 1155.04ZM780.965 1141.09C791.61 1140.16 801.355 1145.49 806.569 1154.03L803.868 1155.68C799.256 1148.13 790.642 1143.42 781.24 1144.24L780.965 1141.09ZM756.23 1170.58C754.92 1155.61 765.993 1142.4 780.965 1141.09L781.24 1144.24C768.012 1145.4 758.225 1157.07 759.383 1170.31L756.23 1170.58Z" fill="black" mask="url(#path-24-inside-1_13_1380)"/>
<mask id="path-26-inside-2_13_1380" fill="white">
<path fill-rule="evenodd" clip-rule="evenodd" d="M1246.25 1715.52C1246.43 1717.49 1246.81 1719.38 1247.39 1721.18C1236.52 1723.48 1228.82 1733.59 1229.81 1744.94C1230.88 1757.21 1241.7 1766.28 1253.96 1765.21L1356.06 1756.27C1368.33 1755.2 1377.4 1744.38 1376.33 1732.11C1375.32 1720.52 1365.59 1711.77 1354.17 1711.76C1351.72 1701.78 1342.31 1694.8 1331.77 1695.73C1325.31 1696.29 1319.79 1699.7 1316.32 1704.6C1312.05 1700.37 1306.03 1697.98 1299.57 1698.54C1297.5 1698.73 1295.51 1699.2 1293.67 1699.93C1288.75 1691.89 1279.57 1686.87 1269.55 1687.74C1255.45 1688.98 1245.02 1701.41 1246.25 1715.52Z"/>
</mask>
<path d="M1247.39 1721.18L1248.9 1720.7L1249.44 1722.37L1247.72 1722.73L1247.39 1721.18ZM1253.96 1765.21L1253.83 1763.63L1253.96 1765.21ZM1356.06 1756.27L1356.2 1757.85L1356.06 1756.27ZM1354.17 1711.76L1354.17 1713.34L1352.93 1713.34L1352.63 1712.14L1354.17 1711.76ZM1316.32 1704.6L1317.61 1705.51L1316.54 1707.04L1315.21 1705.73L1316.32 1704.6ZM1293.67 1699.93L1294.24 1701.4L1293.01 1701.89L1292.31 1700.75L1293.67 1699.93ZM1269.55 1687.74L1269.41 1686.17L1269.55 1687.74ZM1245.89 1721.67C1245.27 1719.75 1244.86 1717.74 1244.68 1715.66L1247.83 1715.38C1247.99 1717.23 1248.36 1719.01 1248.9 1720.7L1245.89 1721.67ZM1228.23 1745.08C1227.17 1732.92 1235.42 1722.09 1247.07 1719.63L1247.72 1722.73C1237.62 1724.86 1230.46 1734.26 1231.39 1744.8L1228.23 1745.08ZM1254.1 1766.78C1240.96 1767.93 1229.38 1758.22 1228.23 1745.08L1231.39 1744.8C1232.38 1756.2 1242.43 1764.63 1253.83 1763.63L1254.1 1766.78ZM1356.2 1757.85L1254.1 1766.78L1253.83 1763.63L1355.92 1754.69L1356.2 1757.85ZM1377.91 1731.98C1379.06 1745.11 1369.34 1756.7 1356.2 1757.85L1355.92 1754.69C1367.32 1753.7 1375.75 1743.65 1374.75 1732.25L1377.91 1731.98ZM1354.17 1710.18C1366.41 1710.19 1376.82 1719.55 1377.91 1731.98L1374.75 1732.25C1373.81 1721.48 1364.78 1713.35 1354.17 1713.34L1354.17 1710.18ZM1331.63 1694.15C1342.96 1693.16 1353.08 1700.66 1355.71 1711.38L1352.63 1712.14C1350.37 1702.91 1341.66 1696.45 1331.9 1697.3L1331.63 1694.15ZM1315.03 1703.69C1318.76 1698.42 1324.69 1694.76 1331.63 1694.15L1331.9 1697.3C1325.93 1697.83 1320.83 1700.97 1317.61 1705.51L1315.03 1703.69ZM1315.21 1705.73C1311.26 1701.81 1305.68 1699.6 1299.71 1700.12L1299.44 1696.97C1306.37 1696.36 1312.85 1698.94 1317.44 1703.48L1315.21 1705.73ZM1299.71 1700.12C1297.79 1700.29 1295.95 1700.73 1294.24 1701.4L1293.09 1698.46C1295.07 1697.68 1297.2 1697.16 1299.44 1696.97L1299.71 1700.12ZM1269.41 1686.17C1280.06 1685.24 1289.8 1690.57 1295.02 1699.1L1292.31 1700.75C1287.7 1693.2 1279.09 1688.5 1269.69 1689.32L1269.41 1686.17ZM1244.68 1715.66C1243.37 1700.68 1254.44 1687.48 1269.41 1686.17L1269.69 1689.32C1256.46 1690.48 1246.67 1702.15 1247.83 1715.38L1244.68 1715.66Z" fill="black" mask="url(#path-26-inside-2_13_1380)"/>
<mask id="path-28-inside-3_13_1380" fill="white">
<path fill-rule="evenodd" clip-rule="evenodd" d="M239.629 1691C239.801 1692.96 240.19 1694.85 240.771 1696.66C229.894 1698.95 222.195 1709.06 223.188 1720.41C224.26 1732.68 235.075 1741.75 247.342 1740.68L349.438 1731.74C361.705 1730.67 370.78 1719.85 369.707 1707.59C368.693 1695.99 358.97 1687.24 347.544 1687.23C345.1 1677.26 335.686 1670.28 325.14 1671.2C318.689 1671.76 313.168 1675.17 309.698 1680.07C305.43 1675.85 299.402 1673.45 292.951 1674.02C290.872 1674.2 288.89 1674.68 287.042 1675.4C282.129 1667.36 272.949 1662.34 262.926 1663.22C248.826 1664.45 238.396 1676.89 239.629 1691Z"/>
</mask>
<path d="M240.771 1696.66L242.277 1696.17L242.816 1697.84L241.098 1698.2L240.771 1696.66ZM247.342 1740.68L247.204 1739.1L247.342 1740.68ZM349.438 1731.74L349.576 1733.32L349.438 1731.74ZM347.544 1687.23L347.543 1688.82L346.302 1688.81L346.007 1687.61L347.544 1687.23ZM309.699 1680.07L310.99 1680.99L309.912 1682.51L308.585 1681.2L309.699 1680.07ZM287.042 1675.4L287.621 1676.88L286.384 1677.36L285.692 1676.23L287.042 1675.4ZM262.926 1663.22L262.788 1661.64L262.926 1663.22ZM239.265 1697.14C238.648 1695.23 238.236 1693.22 238.053 1691.13L241.206 1690.86C241.367 1692.7 241.733 1694.48 242.277 1696.17L239.265 1697.14ZM221.612 1720.55C220.548 1708.39 228.794 1697.57 240.445 1695.11L241.098 1698.2C230.994 1700.34 223.842 1709.73 224.764 1720.28L221.612 1720.55ZM247.48 1742.26C234.342 1743.41 222.76 1733.69 221.612 1720.55L224.764 1720.28C225.761 1731.67 235.808 1740.1 247.204 1739.1L247.48 1742.26ZM349.576 1733.32L247.48 1742.26L247.204 1739.1L349.3 1730.17L349.576 1733.32ZM371.284 1707.45C372.433 1720.59 362.714 1732.17 349.576 1733.32L349.3 1730.17C360.697 1729.17 369.128 1719.12 368.131 1707.73L371.284 1707.45ZM347.546 1685.65C359.784 1685.66 370.198 1695.03 371.284 1707.45L368.131 1707.73C367.189 1696.95 358.156 1688.83 347.543 1688.82L347.546 1685.65ZM325.003 1669.62C336.338 1668.63 346.455 1676.13 349.081 1686.86L346.007 1687.61C343.746 1678.38 335.033 1671.92 325.278 1672.78L325.003 1669.62ZM308.407 1679.16C312.133 1673.89 318.068 1670.23 325.003 1669.62L325.278 1672.78C319.31 1673.3 314.203 1676.45 310.99 1680.99L308.407 1679.16ZM308.585 1681.2C304.633 1677.28 299.058 1675.07 293.089 1675.59L292.814 1672.44C299.748 1671.84 306.228 1674.41 310.812 1678.95L308.585 1681.2ZM293.089 1675.59C291.163 1675.76 289.329 1676.2 287.621 1676.88L286.463 1673.93C288.451 1673.15 290.582 1672.64 292.814 1672.44L293.089 1675.59ZM262.788 1661.64C273.433 1660.71 283.178 1666.04 288.392 1674.58L285.692 1676.23C281.079 1668.68 272.465 1663.97 263.064 1664.79L262.788 1661.64ZM238.053 1691.13C236.744 1676.16 247.817 1662.95 262.788 1661.64L263.064 1664.79C249.835 1665.95 240.049 1677.62 241.206 1690.86L238.053 1691.13Z" fill="black" mask="url(#path-28-inside-3_13_1380)"/>
<mask id="path-30-inside-4_13_1380" fill="white">
<path fill-rule="evenodd" clip-rule="evenodd" d="M1021.46 1181.2C1018.87 1179.43 1015.8 1178.28 1012.45 1177.99C1002.36 1177.11 993.434 1184.3 992.042 1194.22C980.712 1194.34 971.109 1203.05 970.101 1214.57C969.028 1226.84 978.103 1237.65 990.371 1238.73L1092.47 1247.67C1104.73 1248.74 1115.55 1239.67 1116.62 1227.4C1117.67 1215.35 1108.94 1204.7 1097.01 1203.31C1095.81 1193.6 1087.97 1185.72 1077.84 1184.83C1075.74 1184.65 1073.69 1184.78 1071.73 1185.18C1068.9 1174.63 1059.73 1166.46 1048.22 1165.45C1036.55 1164.43 1025.98 1171.07 1021.46 1181.2Z"/>
</mask>
<path d="M1021.46 1181.2L1022.91 1181.85L1022.13 1183.58L1020.57 1182.51L1021.46 1181.2ZM992.042 1194.22L993.609 1194.44L993.42 1195.79L992.059 1195.8L992.042 1194.22ZM990.371 1238.73L990.509 1237.15L990.371 1238.73ZM1092.47 1247.67L1092.33 1249.24L1092.47 1247.67ZM1097.01 1203.31L1096.82 1204.88L1095.59 1204.74L1095.44 1203.5L1097.01 1203.31ZM1071.73 1185.18L1072.04 1186.73L1070.58 1187.03L1070.2 1185.59L1071.73 1185.18ZM1048.22 1165.45L1048.08 1167.03L1048.22 1165.45ZM1020.57 1182.51C1018.19 1180.89 1015.38 1179.84 1012.31 1179.57L1012.59 1176.41C1016.21 1176.73 1019.54 1177.98 1022.35 1179.9L1020.57 1182.51ZM1012.31 1179.57C1003.07 1178.76 994.885 1185.35 993.609 1194.44L990.475 1194C991.983 1183.25 1001.66 1175.46 1012.59 1176.41L1012.31 1179.57ZM992.059 1195.8C981.536 1195.92 972.614 1204 971.678 1214.71L968.525 1214.43C969.604 1202.09 979.889 1192.77 992.024 1192.64L992.059 1195.8ZM971.678 1214.71C970.681 1226.11 979.112 1236.15 990.509 1237.15L990.233 1240.3C977.095 1239.15 967.376 1227.57 968.525 1214.43L971.678 1214.71ZM990.509 1237.15L1092.6 1246.09L1092.33 1249.24L990.233 1240.3L990.509 1237.15ZM1092.6 1246.09C1104 1247.09 1114.05 1238.66 1115.04 1227.26L1118.2 1227.54C1117.05 1240.67 1105.47 1250.39 1092.33 1249.24L1092.6 1246.09ZM1115.04 1227.26C1116.02 1216.07 1107.91 1206.18 1096.82 1204.88L1097.19 1201.74C1109.97 1203.23 1119.33 1214.63 1118.2 1227.54L1115.04 1227.26ZM1095.44 1203.5C1094.33 1194.52 1087.07 1187.23 1077.7 1186.41L1077.98 1183.26C1088.87 1184.21 1097.29 1192.68 1098.58 1203.11L1095.44 1203.5ZM1077.7 1186.41C1075.76 1186.24 1073.86 1186.36 1072.04 1186.73L1071.41 1183.63C1073.52 1183.2 1075.73 1183.06 1077.98 1183.26L1077.7 1186.41ZM1070.2 1185.59C1067.54 1175.66 1058.91 1167.98 1048.08 1167.03L1048.36 1163.88C1060.55 1164.95 1070.26 1173.6 1073.25 1184.77L1070.2 1185.59ZM1048.08 1167.03C1037.11 1166.07 1027.16 1172.31 1022.91 1181.85L1020.02 1180.56C1024.8 1169.83 1036 1162.8 1048.36 1163.88L1048.08 1167.03Z" fill="black" mask="url(#path-30-inside-4_13_1380)"/>
<mask id="path-32-inside-5_13_1380" fill="white">
<path fill-rule="evenodd" clip-rule="evenodd" d="M1509.12 1660.61C1506.52 1658.84 1503.45 1657.69 1500.1 1657.4C1490.02 1656.52 1481.09 1663.71 1479.7 1673.63C1468.37 1673.75 1458.76 1682.46 1457.76 1693.98C1456.68 1706.25 1465.76 1717.06 1478.03 1718.14L1580.12 1727.07C1592.39 1728.15 1603.2 1719.07 1604.28 1706.81C1605.33 1694.76 1596.6 1684.11 1584.66 1682.72C1583.46 1673.01 1575.62 1665.13 1565.5 1664.24C1563.4 1664.06 1561.34 1664.19 1559.38 1664.59C1556.55 1654.03 1547.39 1645.87 1535.87 1644.86C1524.21 1643.84 1513.63 1650.48 1509.12 1660.61Z"/>
</mask>
<path d="M1509.12 1660.61L1510.56 1661.26L1509.79 1662.99L1508.22 1661.92L1509.12 1660.61ZM1500.1 1657.4L1500.24 1655.82L1500.24 1655.82L1500.1 1657.4ZM1479.7 1673.63L1481.26 1673.85L1481.07 1675.2L1479.71 1675.21L1479.7 1673.63ZM1457.76 1693.98L1459.33 1694.12L1459.33 1694.12L1457.76 1693.98ZM1478.03 1718.14L1477.89 1719.71L1477.89 1719.71L1478.03 1718.14ZM1580.12 1727.07L1580.26 1725.5L1580.26 1725.5L1580.12 1727.07ZM1604.28 1706.81L1602.7 1706.67L1604.28 1706.81ZM1584.66 1682.72L1584.48 1684.29L1583.24 1684.14L1583.09 1682.91L1584.66 1682.72ZM1565.5 1664.24L1565.63 1662.67L1565.63 1662.67L1565.5 1664.24ZM1559.38 1664.59L1559.7 1666.14L1558.24 1666.44L1557.85 1665L1559.38 1664.59ZM1535.87 1644.86L1535.74 1646.44L1535.87 1644.86ZM1508.22 1661.92C1505.85 1660.3 1503.04 1659.24 1499.97 1658.98L1500.24 1655.82C1503.87 1656.14 1507.2 1657.39 1510.01 1659.3L1508.22 1661.92ZM1499.97 1658.98C1490.72 1658.17 1482.54 1664.76 1481.26 1673.85L1478.13 1673.41C1479.64 1662.66 1489.31 1654.87 1500.24 1655.82L1499.97 1658.98ZM1479.71 1675.21C1469.19 1675.33 1460.27 1683.41 1459.33 1694.12L1456.18 1693.84C1457.26 1681.5 1467.54 1672.18 1479.68 1672.05L1479.71 1675.21ZM1459.33 1694.12C1458.34 1705.52 1466.77 1715.56 1478.17 1716.56L1477.89 1719.71C1464.75 1718.56 1455.03 1706.98 1456.18 1693.84L1459.33 1694.12ZM1478.17 1716.56L1580.26 1725.5L1579.98 1728.65L1477.89 1719.71L1478.17 1716.56ZM1580.26 1725.5C1591.66 1726.5 1601.7 1718.07 1602.7 1706.67L1605.85 1706.94C1604.7 1720.08 1593.12 1729.8 1579.98 1728.65L1580.26 1725.5ZM1602.7 1706.67C1603.68 1695.48 1595.56 1685.58 1584.48 1684.29L1584.85 1681.15C1597.63 1682.64 1606.98 1694.04 1605.85 1706.94L1602.7 1706.67ZM1583.09 1682.91C1581.98 1673.93 1574.73 1666.64 1565.36 1665.82L1565.63 1662.67C1576.52 1663.62 1584.94 1672.09 1586.23 1682.52L1583.09 1682.91ZM1565.36 1665.82C1563.41 1665.65 1561.51 1665.77 1559.7 1666.14L1559.06 1663.04C1561.17 1662.61 1563.38 1662.47 1565.63 1662.67L1565.36 1665.82ZM1557.85 1665C1555.19 1655.07 1546.56 1647.39 1535.74 1646.44L1536.01 1643.29C1548.21 1644.35 1557.92 1653 1560.91 1664.18L1557.85 1665ZM1535.74 1646.44C1524.76 1645.48 1514.81 1651.72 1510.56 1661.26L1507.67 1659.97C1512.45 1649.24 1523.65 1642.2 1536.01 1643.29L1535.74 1646.44Z" fill="black" mask="url(#path-32-inside-5_13_1380)"/>
<mask id="path-34-inside-6_13_1380" fill="white">
<path fill-rule="evenodd" clip-rule="evenodd" d="M533.331 1636.08C530.738 1634.31 527.668 1633.17 524.319 1632.87C514.233 1631.99 505.303 1639.18 503.911 1649.1C492.583 1649.22 482.98 1657.93 481.972 1669.45C480.899 1681.72 489.974 1692.54 502.242 1693.61L604.337 1702.55C616.605 1703.62 627.419 1694.55 628.492 1682.28C629.545 1670.23 620.811 1659.58 608.877 1658.19C607.675 1648.49 599.839 1640.6 589.711 1639.72C587.612 1639.53 585.559 1639.66 583.596 1640.06C580.768 1629.51 571.601 1621.34 560.089 1620.34C548.421 1619.31 537.849 1625.95 533.331 1636.08Z"/>
</mask>
<path d="M533.331 1636.08L534.776 1636.73L534.004 1638.46L532.439 1637.39L533.331 1636.08ZM503.911 1649.1L505.478 1649.32L505.289 1650.67L503.929 1650.68L503.911 1649.1ZM502.242 1693.61L502.104 1695.19L502.242 1693.61ZM604.337 1702.55L604.475 1700.97L604.337 1702.55ZM608.877 1658.19L608.694 1659.76L607.46 1659.62L607.307 1658.38L608.877 1658.19ZM583.596 1640.06L583.914 1641.61L582.453 1641.92L582.067 1640.47L583.596 1640.06ZM560.089 1620.34L560.226 1618.76L560.089 1620.34ZM532.439 1637.39C530.064 1635.77 527.253 1634.72 524.181 1634.45L524.456 1631.3C528.083 1631.61 531.411 1632.86 534.223 1634.78L532.439 1637.39ZM524.181 1634.45C514.939 1633.64 506.754 1640.23 505.478 1649.32L502.344 1648.88C503.852 1638.14 513.527 1630.34 524.456 1631.3L524.181 1634.45ZM503.929 1650.68C493.406 1650.8 484.484 1658.89 483.548 1669.59L480.396 1669.32C481.475 1656.97 491.759 1647.65 503.894 1647.52L503.929 1650.68ZM483.548 1669.59C482.552 1680.99 490.983 1691.04 502.38 1692.03L502.104 1695.19C488.966 1694.04 479.247 1682.45 480.396 1669.32L483.548 1669.59ZM502.38 1692.03L604.475 1700.97L604.2 1704.12L502.104 1695.19L502.38 1692.03ZM604.475 1700.97C615.872 1701.97 625.919 1693.54 626.915 1682.14L630.068 1682.42C628.919 1695.56 617.337 1705.27 604.2 1704.12L604.475 1700.97ZM626.915 1682.14C627.894 1670.95 619.779 1661.06 608.694 1659.76L609.061 1656.62C621.842 1658.11 631.196 1669.51 630.068 1682.42L626.915 1682.14ZM607.307 1658.38C606.194 1649.41 598.941 1642.11 589.573 1641.29L589.849 1638.14C600.736 1639.09 609.155 1647.57 610.447 1658L607.307 1658.38ZM589.573 1641.29C587.629 1641.12 585.729 1641.24 583.914 1641.61L583.277 1638.51C585.388 1638.08 587.596 1637.94 589.849 1638.14L589.573 1641.29ZM582.067 1640.47C579.406 1630.54 570.779 1622.86 559.951 1621.91L560.226 1618.76C572.423 1619.83 582.13 1628.48 585.124 1639.66L582.067 1640.47ZM559.951 1621.91C548.977 1620.95 539.028 1627.19 534.776 1636.73L531.885 1635.44C536.67 1624.71 547.865 1617.68 560.226 1618.76L559.951 1621.91Z" fill="black" mask="url(#path-34-inside-6_13_1380)"/>
<mask id="path-36-inside-7_13_1380" fill="white">
<path fill-rule="evenodd" clip-rule="evenodd" d="M569.942 1195.44C567.349 1193.67 564.28 1192.52 560.93 1192.23C550.844 1191.35 541.914 1198.54 540.523 1208.46C529.195 1208.59 519.592 1217.29 518.584 1228.81C517.512 1241.08 526.587 1251.9 538.854 1252.97L640.95 1261.91C653.217 1262.98 664.031 1253.91 665.104 1241.64C666.158 1229.59 657.423 1218.94 645.489 1217.55C644.286 1207.85 636.45 1199.96 626.322 1199.07C624.224 1198.89 622.17 1199.02 620.207 1199.42C617.38 1188.87 608.212 1180.7 596.7 1179.69C585.032 1178.67 574.46 1185.31 569.942 1195.44Z"/>
</mask>
<path d="M569.942 1195.44L571.387 1196.09L570.616 1197.82L569.05 1196.75L569.942 1195.44ZM540.523 1208.46L542.09 1208.68L541.901 1210.03L540.541 1210.04L540.523 1208.46ZM645.489 1217.55L645.305 1219.12L644.071 1218.98L643.918 1217.74L645.489 1217.55ZM620.207 1199.42L620.526 1200.97L619.065 1201.27L618.679 1199.83L620.207 1199.42ZM596.7 1179.69L596.838 1178.12L596.7 1179.69ZM569.05 1196.75C566.675 1195.13 563.865 1194.08 560.792 1193.81L561.068 1190.65C564.695 1190.97 568.023 1192.22 570.834 1194.14L569.05 1196.75ZM560.792 1193.81C551.55 1193 543.365 1199.59 542.09 1208.68L538.956 1208.24C540.464 1197.5 550.139 1189.7 561.068 1190.65L560.792 1193.81ZM540.541 1210.04C530.018 1210.16 521.097 1218.25 520.161 1228.95L517.008 1228.68C518.087 1216.33 528.371 1207.01 540.506 1206.88L540.541 1210.04ZM520.161 1228.95C519.164 1240.35 527.595 1250.4 538.992 1251.39L538.717 1254.55C525.579 1253.4 515.859 1241.81 517.008 1228.68L520.161 1228.95ZM538.992 1251.39L641.088 1260.33L640.812 1263.48L538.717 1254.55L538.992 1251.39ZM641.088 1260.33C652.485 1261.33 662.531 1252.9 663.528 1241.5L666.681 1241.78C665.532 1254.92 653.95 1264.63 640.812 1263.48L641.088 1260.33ZM663.528 1241.5C664.507 1230.31 656.392 1220.42 645.305 1219.12L645.672 1215.98C658.454 1217.47 667.809 1228.87 666.681 1241.78L663.528 1241.5ZM643.918 1217.74C642.806 1208.76 635.553 1201.47 626.185 1200.65L626.46 1197.5C637.348 1198.45 645.767 1206.93 647.059 1217.35L643.918 1217.74ZM626.185 1200.65C624.24 1200.48 622.341 1200.6 620.526 1200.97L619.889 1197.87C622 1197.44 624.207 1197.3 626.46 1197.5L626.185 1200.65ZM618.679 1199.83C616.018 1189.9 607.39 1182.22 596.562 1181.27L596.838 1178.12C609.034 1179.19 618.742 1187.84 621.736 1199.01L618.679 1199.83ZM596.562 1181.27C585.588 1180.31 575.64 1186.55 571.387 1196.09L568.497 1194.8C573.282 1184.07 584.477 1177.04 596.838 1178.12L596.562 1181.27Z" fill="black" mask="url(#path-36-inside-7_13_1380)"/>
<mask id="path-38-inside-8_13_1380" fill="white">
<path fill-rule="evenodd" clip-rule="evenodd" d="M1040.99 1639.25C1038.4 1637.48 1035.33 1636.33 1031.98 1636.04C1021.89 1635.15 1012.96 1642.35 1011.57 1652.26C1000.24 1652.39 990.641 1661.09 989.633 1672.62C988.56 1684.88 997.636 1695.7 1009.9 1696.77L1112 1705.71C1124.27 1706.78 1135.08 1697.71 1136.15 1685.44C1137.21 1673.39 1128.47 1662.75 1116.54 1661.35C1115.33 1651.65 1107.5 1643.77 1097.37 1642.88C1095.27 1642.7 1093.22 1642.82 1091.26 1643.23C1088.43 1632.67 1079.26 1624.51 1067.75 1623.5C1056.08 1622.48 1045.51 1629.12 1040.99 1639.25Z"/>
</mask>
<path d="M1040.99 1639.25L1042.44 1639.89L1041.66 1641.62L1040.1 1640.56L1040.99 1639.25ZM1011.57 1652.26L1013.14 1652.48L1012.95 1653.83L1011.59 1653.85L1011.57 1652.26ZM1116.54 1661.35L1116.35 1662.92L1115.12 1662.78L1114.97 1661.55L1116.54 1661.35ZM1091.26 1643.23L1091.57 1644.78L1090.11 1645.08L1089.73 1643.64L1091.26 1643.23ZM1067.75 1623.5L1067.89 1621.92L1067.75 1623.5ZM1040.1 1640.56C1037.72 1638.93 1034.91 1637.88 1031.84 1637.61L1032.12 1634.46C1035.74 1634.78 1039.07 1636.02 1041.88 1637.94L1040.1 1640.56ZM1031.84 1637.61C1022.6 1636.8 1014.41 1643.4 1013.14 1652.48L1010 1652.04C1011.51 1641.3 1021.19 1633.5 1032.12 1634.46L1031.84 1637.61ZM1011.59 1653.85C1001.07 1653.96 992.145 1662.05 991.209 1672.76L988.057 1672.48C989.136 1660.14 999.42 1650.82 1011.55 1650.68L1011.59 1653.85ZM991.209 1672.76C990.213 1684.15 998.644 1694.2 1010.04 1695.2L1009.77 1698.35C996.627 1697.2 986.908 1685.62 988.057 1672.48L991.209 1672.76ZM1010.04 1695.2L1112.14 1704.13L1111.86 1707.29L1009.77 1698.35L1010.04 1695.2ZM1112.14 1704.13C1123.53 1705.13 1133.58 1696.7 1134.58 1685.31L1137.73 1685.58C1136.58 1698.72 1125 1708.44 1111.86 1707.29L1112.14 1704.13ZM1134.58 1685.31C1135.56 1674.11 1127.44 1664.22 1116.35 1662.92L1116.72 1659.78C1129.5 1661.27 1138.86 1672.68 1137.73 1685.58L1134.58 1685.31ZM1114.97 1661.55C1113.85 1652.57 1106.6 1645.28 1097.23 1644.46L1097.51 1641.3C1108.4 1642.26 1116.82 1650.73 1118.11 1661.16L1114.97 1661.55ZM1097.23 1644.46C1095.29 1644.29 1093.39 1644.41 1091.57 1644.78L1090.94 1641.68C1093.05 1641.24 1095.26 1641.11 1097.51 1641.3L1097.23 1644.46ZM1089.73 1643.64C1087.07 1633.7 1078.44 1626.02 1067.61 1625.08L1067.89 1621.92C1080.08 1622.99 1089.79 1631.64 1092.78 1642.82L1089.73 1643.64ZM1067.61 1625.08C1056.64 1624.12 1046.69 1630.36 1042.44 1639.89L1039.55 1638.6C1044.33 1627.87 1055.53 1620.84 1067.89 1621.92L1067.61 1625.08Z" fill="black" mask="url(#path-38-inside-8_13_1380)"/>
<mask id="path-40-inside-9_13_1380" fill="white">
<path fill-rule="evenodd" clip-rule="evenodd" d="M56.51 1657.45C53.9172 1655.68 50.848 1654.53 47.4987 1654.23C37.4133 1653.35 28.4835 1660.55 27.0917 1670.46C15.7628 1670.59 6.15978 1679.29 5.15218 1690.81C4.07951 1703.08 13.1546 1713.9 25.422 1714.97L127.517 1723.91C139.785 1724.98 150.599 1715.91 151.672 1703.64C152.725 1691.59 143.991 1680.95 132.057 1679.55C130.855 1669.85 123.019 1661.96 112.891 1661.08C110.792 1660.89 108.738 1661.02 106.775 1661.43C103.948 1650.87 94.7798 1642.71 83.2677 1641.7C71.6004 1640.68 61.0286 1647.31 56.51 1657.45Z"/>
</mask>
<path d="M56.5101 1657.45L57.9552 1658.09L57.1834 1659.82L55.6181 1658.75L56.5101 1657.45ZM27.0917 1670.46L28.6587 1670.68L28.4696 1672.03L27.1091 1672.04L27.0917 1670.46ZM132.057 1679.55L131.874 1681.12L130.64 1680.98L130.487 1679.75L132.057 1679.55ZM106.775 1661.43L107.094 1662.98L105.632 1663.28L105.246 1661.84L106.775 1661.43ZM83.2677 1641.7L83.4056 1640.12L83.2677 1641.7ZM55.6181 1658.75C53.2435 1657.13 50.4329 1656.08 47.3609 1655.81L47.6366 1652.66C51.2631 1652.97 54.5909 1654.22 57.402 1656.14L55.6181 1658.75ZM47.3609 1655.81C38.1192 1655 29.9342 1661.59 28.6587 1670.68L25.5247 1670.24C27.0328 1659.5 36.7073 1651.7 47.6366 1652.66L47.3609 1655.81ZM27.1091 1672.04C16.5859 1672.16 7.66454 1680.25 6.72853 1690.95L3.57584 1690.68C4.65503 1678.33 14.9397 1669.01 27.0742 1668.88L27.1091 1672.04ZM6.72853 1690.95C5.73199 1702.35 14.1631 1712.4 25.5598 1713.4L25.2842 1716.55C12.1462 1715.4 2.42704 1703.81 3.57584 1690.68L6.72853 1690.95ZM25.5598 1713.4L127.655 1722.33L127.38 1725.49L25.2842 1716.55L25.5598 1713.4ZM127.655 1722.33C139.052 1723.33 149.099 1714.9 150.095 1703.5L153.248 1703.78C152.099 1716.92 140.518 1726.64 127.38 1725.49L127.655 1722.33ZM150.095 1703.5C151.074 1692.31 142.96 1682.42 131.874 1681.12L132.241 1677.98C145.022 1679.47 154.376 1690.88 153.248 1703.78L150.095 1703.5ZM130.487 1679.75C129.374 1670.77 122.122 1663.47 112.753 1662.65L113.029 1659.5C123.916 1660.45 132.335 1668.93 133.628 1679.36L130.487 1679.75ZM112.753 1662.65C110.809 1662.48 108.908 1662.6 107.094 1662.98L106.456 1659.88C108.568 1659.44 110.776 1659.3 113.029 1659.5L112.753 1662.65ZM105.246 1661.84C102.586 1651.9 93.9578 1644.22 83.1299 1643.27L83.4056 1640.12C95.6019 1641.19 105.31 1649.84 108.303 1661.02L105.246 1661.84ZM83.1299 1643.27C72.1559 1642.31 62.2076 1648.55 57.9552 1658.09L55.0649 1656.8C59.8497 1646.07 71.0448 1639.04 83.4056 1640.12L83.1299 1643.27Z" fill="black" mask="url(#path-40-inside-9_13_1380)"/>
<mask id="path-42-inside-10_13_1380" fill="white">
<path fill-rule="evenodd" clip-rule="evenodd" d="M284.047 1191.37C283.932 1190.64 283.84 1189.9 283.775 1189.15C282.273 1171.98 294.971 1156.84 312.136 1155.34C323.103 1154.38 333.241 1159.22 339.523 1167.32C343.485 1163.57 348.689 1161.09 354.539 1160.58C368.147 1159.39 380.165 1169.31 381.644 1182.82L386.077 1182.44C398.345 1181.36 409.159 1190.44 410.232 1202.7C411.304 1214.97 402.229 1225.79 389.962 1226.86L287.866 1235.8C275.599 1236.87 264.785 1227.8 263.712 1215.53C262.639 1203.26 271.714 1192.45 283.982 1191.37L284.047 1191.37Z"/>
</mask>
<path d="M284.047 1191.37L285.61 1191.12L285.877 1192.8L284.185 1192.94L284.047 1191.37ZM312.136 1155.34L311.998 1153.76L312.136 1155.34ZM339.523 1167.32L340.61 1168.47L339.342 1169.66L338.273 1168.28L339.523 1167.32ZM381.644 1182.82L381.782 1184.4L380.24 1184.54L380.071 1183L381.644 1182.82ZM386.077 1182.44L386.215 1184.01L386.077 1182.44ZM389.962 1226.86L390.1 1228.44L389.962 1226.86ZM287.866 1235.8L287.729 1234.22L287.866 1235.8ZM285.351 1189.01C285.414 1189.72 285.5 1190.43 285.61 1191.12L282.485 1191.62C282.363 1190.85 282.267 1190.07 282.199 1189.29L285.351 1189.01ZM312.274 1156.91C295.98 1158.34 283.926 1172.71 285.351 1189.01L282.199 1189.29C280.621 1171.25 293.962 1155.34 311.998 1153.76L312.274 1156.91ZM338.273 1168.28C332.306 1160.59 322.683 1156 312.274 1156.91L311.998 1153.76C323.524 1152.75 334.176 1157.84 340.774 1166.35L338.273 1168.28ZM354.677 1162.15C349.195 1162.63 344.322 1164.96 340.61 1168.47L338.437 1166.16C342.649 1162.19 348.184 1159.54 354.401 1159L354.677 1162.15ZM380.071 1183C378.685 1170.33 367.425 1161.04 354.677 1162.15L354.401 1159C368.869 1157.73 381.645 1168.28 383.217 1182.65L380.071 1183ZM386.215 1184.01L381.782 1184.4L381.507 1181.25L385.939 1180.86L386.215 1184.01ZM408.655 1202.84C407.659 1191.45 397.612 1183.01 386.215 1184.01L385.939 1180.86C399.077 1179.71 410.659 1189.43 411.808 1202.57L408.655 1202.84ZM389.824 1225.28C401.221 1224.29 409.652 1214.24 408.655 1202.84L411.808 1202.57C412.957 1215.7 403.238 1227.29 390.1 1228.44L389.824 1225.28ZM287.729 1234.22L389.824 1225.28L390.1 1228.44L288.004 1237.37L287.729 1234.22ZM265.288 1215.39C266.285 1226.79 276.332 1235.22 287.729 1234.22L288.004 1237.37C274.866 1238.52 263.285 1228.81 262.136 1215.67L265.288 1215.39ZM284.12 1192.95C272.723 1193.95 264.292 1204 265.288 1215.39L262.136 1215.67C260.987 1202.53 270.706 1190.95 283.844 1189.8L284.12 1192.95ZM284.185 1192.94L284.12 1192.95L283.844 1189.8L283.91 1189.79L284.185 1192.94Z" fill="black" mask="url(#path-42-inside-10_13_1380)"/>
<mask id="path-44-inside-11_13_1380" fill="white">
<path fill-rule="evenodd" clip-rule="evenodd" d="M776.448 1698.47C776.332 1697.74 776.241 1697 776.176 1696.25C774.674 1679.08 787.372 1663.94 804.537 1662.44C815.504 1661.47 825.641 1666.31 831.924 1674.41C835.886 1670.67 841.09 1668.19 846.94 1667.68C860.548 1666.48 872.566 1676.41 874.045 1689.92L878.479 1689.54C890.747 1688.46 901.561 1697.54 902.633 1709.8C903.706 1722.07 894.631 1732.89 882.364 1733.96L780.268 1742.9C768.001 1743.97 757.187 1734.9 756.114 1722.63C755.041 1710.36 764.116 1699.55 776.384 1698.47L776.448 1698.47Z"/>
</mask>
<path d="M776.448 1698.47L778.011 1698.22L778.278 1699.9L776.586 1700.04L776.448 1698.47ZM804.537 1662.44L804.675 1664.01L804.537 1662.44ZM831.924 1674.41L833.011 1675.56L831.743 1676.76L830.674 1675.38L831.924 1674.41ZM874.045 1689.92L874.183 1691.5L872.641 1691.64L872.472 1690.1L874.045 1689.92ZM878.479 1689.54L878.341 1687.96L878.479 1689.54ZM882.364 1733.96L882.226 1732.38L882.364 1733.96ZM780.268 1742.9L780.406 1744.47L780.268 1742.9ZM776.384 1698.47L776.246 1696.9L776.384 1698.47ZM777.752 1696.11C777.814 1696.82 777.901 1697.53 778.011 1698.22L774.885 1698.72C774.764 1697.95 774.668 1697.17 774.6 1696.39L777.752 1696.11ZM804.675 1664.01C788.381 1665.44 776.327 1679.81 777.752 1696.11L774.6 1696.39C773.022 1678.35 786.362 1662.44 804.399 1660.86L804.675 1664.01ZM830.674 1675.38C824.706 1667.69 815.083 1663.1 804.675 1664.01L804.399 1660.86C815.924 1659.85 826.576 1664.94 833.174 1673.44L830.674 1675.38ZM847.078 1669.25C841.596 1669.73 836.723 1672.06 833.011 1675.56L830.837 1673.26C835.049 1669.29 840.584 1666.64 846.802 1666.1L847.078 1669.25ZM872.472 1690.1C871.086 1677.43 859.826 1668.14 847.078 1669.25L846.802 1666.1C861.27 1664.83 874.046 1675.38 875.618 1689.75L872.472 1690.1ZM878.617 1691.11L874.183 1691.5L873.907 1688.35L878.341 1687.96L878.617 1691.11ZM901.057 1709.94C900.061 1698.54 890.014 1690.11 878.617 1691.11L878.341 1687.96C891.479 1686.81 903.061 1696.53 904.21 1709.67L901.057 1709.94ZM882.226 1732.38C893.623 1731.39 902.054 1721.34 901.057 1709.94L904.21 1709.67C905.359 1722.8 895.639 1734.39 882.502 1735.54L882.226 1732.38ZM780.13 1741.32L882.226 1732.38L882.502 1735.54L780.406 1744.47L780.13 1741.32ZM757.69 1722.49C758.687 1733.89 768.734 1742.32 780.13 1741.32L780.406 1744.47C767.268 1745.62 755.686 1735.91 754.538 1722.77L757.69 1722.49ZM776.522 1700.05C765.125 1701.05 756.694 1711.09 757.69 1722.49L754.538 1722.77C753.389 1709.63 763.108 1698.05 776.246 1696.9L776.522 1700.05ZM776.586 1700.04L776.522 1700.05L776.246 1696.9L776.31 1696.89L776.586 1700.04Z" fill="black" mask="url(#path-44-inside-11_13_1380)"/>
<path fill-rule="evenodd" clip-rule="evenodd" d="M1262.64 1191.08C1262.88 1193.03 1263.34 1194.91 1263.98 1196.69C1253.19 1199.37 1245.85 1209.74 1247.24 1221.05C1248.74 1233.27 1259.86 1241.96 1272.08 1240.46L1373.81 1227.96C1386.03 1226.46 1394.72 1215.34 1393.22 1203.11C1391.8 1191.56 1381.78 1183.16 1370.36 1183.55C1367.57 1173.66 1357.92 1167.02 1347.41 1168.31C1340.98 1169.1 1335.59 1172.69 1332.29 1177.71C1327.88 1173.64 1321.77 1171.46 1315.34 1172.25C1313.27 1172.5 1311.31 1173.05 1309.48 1173.84C1304.29 1165.97 1294.94 1161.27 1284.96 1162.5C1270.91 1164.23 1260.92 1177.02 1262.64 1191.08Z" fill="#D25454"/>
<mask id="path-47-inside-12_13_1380" fill="white">
<path fill-rule="evenodd" clip-rule="evenodd" d="M1256.43 1195.44C1256.6 1197.41 1256.99 1199.3 1257.57 1201.1C1246.69 1203.4 1238.99 1213.51 1239.99 1224.86C1241.06 1237.13 1251.87 1246.2 1264.14 1245.13L1366.24 1236.19C1378.5 1235.12 1387.58 1224.3 1386.51 1212.04C1385.49 1200.44 1375.77 1191.69 1364.34 1191.68C1361.9 1181.71 1352.48 1174.73 1341.94 1175.65C1335.49 1176.21 1329.97 1179.62 1326.5 1184.52C1322.23 1180.3 1316.2 1177.9 1309.75 1178.47C1307.67 1178.65 1305.69 1179.13 1303.84 1179.85C1298.93 1171.81 1289.75 1166.79 1279.72 1167.67C1265.62 1168.9 1255.19 1181.34 1256.43 1195.44Z"/>
</mask>
<path d="M1257.57 1201.1L1259.08 1200.62L1259.61 1202.29L1257.9 1202.65L1257.57 1201.1ZM1364.34 1191.68L1364.34 1193.26L1363.1 1193.26L1362.81 1192.06L1364.34 1191.68ZM1326.5 1184.52L1327.79 1185.44L1326.71 1186.96L1325.38 1185.65L1326.5 1184.52ZM1303.84 1179.85L1304.42 1181.33L1303.18 1181.81L1302.49 1180.68L1303.84 1179.85ZM1279.72 1167.67L1279.59 1166.09L1279.72 1167.67ZM1256.06 1201.59C1255.45 1199.68 1255.03 1197.67 1254.85 1195.58L1258 1195.31C1258.17 1197.15 1258.53 1198.93 1259.08 1200.62L1256.06 1201.59ZM1238.41 1225C1237.35 1212.84 1245.59 1202.01 1257.24 1199.56L1257.9 1202.65C1247.79 1204.78 1240.64 1214.18 1241.56 1224.72L1238.41 1225ZM1264.28 1246.71C1251.14 1247.86 1239.56 1238.14 1238.41 1225L1241.56 1224.72C1242.56 1236.12 1252.61 1244.55 1264 1243.55L1264.28 1246.71ZM1366.37 1237.77L1264.28 1246.71L1264 1243.55L1366.1 1234.62L1366.37 1237.77ZM1388.08 1211.9C1389.23 1225.04 1379.51 1236.62 1366.37 1237.77L1366.1 1234.62C1377.49 1233.62 1385.93 1223.57 1384.93 1212.17L1388.08 1211.9ZM1364.34 1190.1C1376.58 1190.11 1387 1199.48 1388.08 1211.9L1384.93 1212.17C1383.99 1201.4 1374.95 1193.28 1364.34 1193.26L1364.34 1190.1ZM1341.8 1174.07C1353.14 1173.08 1363.25 1180.58 1365.88 1191.31L1362.81 1192.06C1360.54 1182.83 1351.83 1176.37 1342.08 1177.23L1341.8 1174.07ZM1325.21 1183.61C1328.93 1178.34 1334.87 1174.68 1341.8 1174.07L1342.08 1177.23C1336.11 1177.75 1331 1180.9 1327.79 1185.44L1325.21 1183.61ZM1325.38 1185.65C1321.43 1181.73 1315.86 1179.52 1309.89 1180.04L1309.61 1176.89C1316.55 1176.28 1323.03 1178.86 1327.61 1183.4L1325.38 1185.65ZM1309.89 1180.04C1307.96 1180.21 1306.13 1180.65 1304.42 1181.33L1303.26 1178.38C1305.25 1177.6 1307.38 1177.09 1309.61 1176.89L1309.89 1180.04ZM1279.59 1166.09C1290.23 1165.16 1299.98 1170.49 1305.19 1179.03L1302.49 1180.68C1297.88 1173.13 1289.26 1168.42 1279.86 1169.24L1279.59 1166.09ZM1254.85 1195.58C1253.54 1180.61 1264.61 1167.4 1279.59 1166.09L1279.86 1169.24C1266.63 1170.4 1256.85 1182.07 1258 1195.31L1254.85 1195.58Z" fill="black" mask="url(#path-47-inside-12_13_1380)"/>
<mask id="path-49-inside-13_13_1380" fill="white">
<path fill-rule="evenodd" clip-rule="evenodd" d="M650.178 45.445C650.006 47.4101 649.617 49.3039 649.037 51.1049C659.914 53.3999 667.613 63.5093 666.62 74.8626C665.547 87.1301 654.733 96.2043 642.466 95.1304L540.37 86.1933C528.103 85.1194 519.028 74.3042 520.1 62.0367C521.115 50.438 530.837 41.6939 542.263 41.6826C544.707 31.7053 554.121 24.7267 564.666 25.6498C571.118 26.2145 576.639 29.6184 580.108 34.5234C584.376 30.2955 590.405 27.9025 596.856 28.4673C598.935 28.6493 600.918 29.1261 602.766 29.8529C607.679 21.8087 616.859 16.7887 626.882 17.6661C640.982 18.9004 651.412 31.3374 650.178 45.445Z"/>
</mask>
<path d="M649.037 51.1048L647.531 50.6192L646.992 52.2906L648.71 52.6531L649.037 51.1048ZM542.263 41.6824L542.264 43.2648L543.504 43.2636L543.8 42.0591L542.263 41.6824ZM580.108 34.5233L578.817 35.437L579.895 36.962L581.222 35.6475L580.108 34.5233ZM602.766 29.8528L602.187 31.3254L603.424 31.8118L604.116 30.6777L602.766 29.8528ZM626.882 17.666L627.02 16.0896L626.882 17.666ZM650.543 51.5904C651.159 49.6773 651.572 47.6669 651.754 45.5829L648.602 45.3069C648.44 47.153 648.075 48.9303 647.531 50.6192L650.543 51.5904ZM668.196 75.0005C669.26 62.8403 661.014 52.0147 649.363 49.5565L648.71 52.6531C658.814 54.7848 665.966 64.1781 665.044 74.7245L668.196 75.0005ZM642.328 96.7067C655.466 97.8568 667.047 88.1385 668.196 75.0005L665.044 74.7245C664.047 86.1214 654 94.5516 642.603 93.554L642.328 96.7067ZM540.232 87.7695L642.328 96.7067L642.603 93.554L540.508 84.6168L540.232 87.7695ZM518.524 61.8986C517.375 75.0367 527.094 86.6195 540.232 87.7695L540.508 84.6168C529.111 83.6192 520.68 73.5714 521.677 62.1746L518.524 61.8986ZM542.261 40.1001C530.023 40.1122 519.61 49.4759 518.524 61.8986L521.677 62.1746C522.619 51.3999 531.651 43.2753 542.264 43.2648L542.261 40.1001ZM564.804 24.0733C553.469 23.081 543.353 30.5824 540.726 41.3058L543.8 42.0591C546.061 32.8279 554.774 26.3721 564.528 27.226L564.804 24.0733ZM581.4 33.6096C577.674 28.3412 571.738 24.6803 564.804 24.0733L564.528 27.226C570.497 27.7485 575.604 30.8954 578.817 35.437L581.4 33.6096ZM581.222 35.6475C585.174 31.7328 590.75 29.521 596.718 30.0435L596.994 26.8908C590.06 26.2838 583.579 28.858 578.995 33.3991L581.222 35.6475ZM596.718 30.0435C598.645 30.2121 600.478 30.6535 602.187 31.3254L603.345 28.3802C601.357 27.5984 599.226 27.0862 596.994 26.8908L596.718 30.0435ZM627.02 16.0896C616.375 15.1578 606.63 20.4911 601.415 29.0279L604.116 30.6777C608.729 23.1262 617.342 18.4194 626.744 19.2423L627.02 16.0896ZM651.754 45.5829C653.064 30.6055 641.991 17.4002 627.02 16.0896L626.744 19.2423C639.972 20.4003 649.759 32.0691 648.602 45.3069L651.754 45.5829Z" fill="black" mask="url(#path-49-inside-13_13_1380)"/>
<mask id="path-51-inside-14_13_1380" fill="white">
<path fill-rule="evenodd" clip-rule="evenodd" d="M1378.68 45.445C1378.51 47.4101 1378.12 49.3039 1377.54 51.1049C1388.42 53.3998 1396.11 63.5093 1395.12 74.8626C1394.05 87.1301 1383.23 96.2043 1370.97 95.1304L1268.87 86.1933C1256.6 85.1194 1247.53 74.3042 1248.6 62.0367C1249.62 50.438 1259.34 41.6939 1270.76 41.6826C1273.21 31.7053 1282.62 24.7267 1293.17 25.6498C1299.62 26.2145 1305.14 29.6184 1308.61 34.5234C1312.88 30.2955 1318.91 27.9025 1325.36 28.4673C1327.44 28.6493 1329.42 29.126 1331.27 29.8529C1336.18 21.8087 1345.36 16.7887 1355.38 17.6661C1369.48 18.9004 1379.91 31.3374 1378.68 45.445Z"/>
</mask>
<path d="M1377.54 51.1048L1376.03 50.6192L1375.49 52.2906L1377.21 52.6531L1377.54 51.1048ZM1270.76 41.6824L1270.77 43.2648L1272.01 43.2636L1272.3 42.0591L1270.76 41.6824ZM1308.61 34.5233L1307.32 35.437L1308.4 36.962L1309.72 35.6475L1308.61 34.5233ZM1331.27 29.8528L1330.69 31.3254L1331.92 31.8117L1332.62 30.6777L1331.27 29.8528ZM1355.38 17.666L1355.52 16.0896L1355.38 17.666ZM1379.04 51.5904C1379.66 49.6773 1380.07 47.6669 1380.26 45.5829L1377.1 45.3069C1376.94 47.153 1376.58 48.9303 1376.03 50.6192L1379.04 51.5904ZM1396.7 75.0005C1397.76 62.8403 1389.52 52.0146 1377.86 49.5565L1377.21 52.6531C1387.31 54.7848 1394.47 64.1781 1393.54 74.7245L1396.7 75.0005ZM1370.83 96.7067C1383.97 97.8567 1395.55 88.1385 1396.7 75.0005L1393.54 74.7245C1392.55 86.1214 1382.5 94.5516 1371.1 93.554L1370.83 96.7067ZM1268.73 87.7695L1370.83 96.7067L1371.1 93.554L1269.01 84.6168L1268.73 87.7695ZM1247.03 61.8986C1245.88 75.0367 1255.6 86.6195 1268.73 87.7695L1269.01 84.6168C1257.61 83.6192 1249.18 73.5714 1250.18 62.1746L1247.03 61.8986ZM1270.76 40.1001C1258.52 40.1122 1248.11 49.4759 1247.03 61.8986L1250.18 62.1746C1251.12 51.3999 1260.15 43.2754 1270.77 43.2648L1270.76 40.1001ZM1293.31 24.0733C1281.97 23.081 1271.85 30.5824 1269.23 41.3058L1272.3 42.0591C1274.56 32.8279 1283.27 26.3721 1293.03 27.226L1293.31 24.0733ZM1309.9 33.6096C1306.18 28.3412 1300.24 24.6803 1293.31 24.0733L1293.03 27.226C1299 27.7485 1304.11 30.8954 1307.32 35.437L1309.9 33.6096ZM1309.72 35.6475C1313.67 31.7328 1319.25 29.521 1325.22 30.0435L1325.5 26.8908C1318.56 26.2838 1312.08 28.858 1307.5 33.3991L1309.72 35.6475ZM1325.22 30.0435C1327.15 30.2121 1328.98 30.6535 1330.69 31.3254L1331.85 28.3802C1329.86 27.5983 1327.73 27.0862 1325.5 26.8908L1325.22 30.0435ZM1355.52 16.0896C1344.88 15.1578 1335.13 20.4911 1329.92 29.0278L1332.62 30.6777C1337.23 23.1262 1345.84 18.4194 1355.25 19.2423L1355.52 16.0896ZM1380.26 45.5829C1381.57 30.6055 1370.49 17.4002 1355.52 16.0896L1355.25 19.2423C1368.47 20.4003 1378.26 32.0691 1377.1 45.3069L1380.26 45.5829Z" fill="black" mask="url(#path-51-inside-14_13_1380)"/>
<mask id="path-53-inside-15_13_1380" fill="white">
<path fill-rule="evenodd" clip-rule="evenodd" d="M376.747 675.523C376.575 677.488 376.186 679.381 375.605 681.182C386.483 683.477 394.182 693.586 393.189 704.94C392.117 717.207 381.303 726.282 369.035 725.208L266.94 716.271C254.672 715.197 245.597 704.382 246.67 692.114C247.684 680.516 257.406 671.772 268.831 671.76C271.275 661.782 280.69 654.803 291.235 655.726C297.687 656.291 303.208 659.695 306.678 664.601C310.945 660.373 316.974 657.98 323.426 658.544C325.505 658.726 327.487 659.203 329.335 659.93C334.248 651.886 343.427 646.866 353.45 647.744C367.55 648.978 377.98 661.415 376.747 675.523Z"/>
</mask>
<path d="M375.605 681.182L374.099 680.697L373.56 682.368L375.279 682.73L375.605 681.182ZM268.831 671.76L268.833 673.342L270.073 673.341L270.368 672.137L268.831 671.76ZM306.677 664.601L305.386 665.515L306.464 667.04L307.791 665.725L306.677 664.601ZM329.335 659.93L328.756 661.402L329.992 661.889L330.685 660.755L329.335 659.93ZM353.45 647.744L353.588 646.167L353.45 647.744ZM377.111 681.668C377.728 679.755 378.141 677.745 378.323 675.661L375.17 675.385C375.009 677.231 374.644 679.008 374.099 680.697L377.111 681.668ZM394.766 705.078C395.829 692.918 387.583 682.092 375.932 679.634L375.279 682.73C385.383 684.862 392.535 694.255 391.613 704.802L394.766 705.078ZM368.897 726.784C382.035 727.934 393.617 718.216 394.766 705.078L391.613 704.802C390.616 716.199 380.57 724.629 369.173 723.632L368.897 726.784ZM266.802 717.847L368.897 726.784L369.173 723.632L267.077 714.694L266.802 717.847ZM245.093 691.976C243.945 705.114 253.664 716.697 266.802 717.847L267.077 714.694C255.681 713.697 247.25 703.649 248.246 692.252L245.093 691.976ZM268.829 670.178C256.592 670.19 246.18 679.554 245.093 691.976L248.246 692.252C249.188 681.478 258.22 673.353 268.833 673.342L268.829 670.178ZM291.373 654.15C280.037 653.158 269.921 660.66 267.294 671.383L270.368 672.137C272.629 662.905 281.342 656.449 291.097 657.303L291.373 654.15ZM307.969 663.687C304.243 658.418 298.307 654.757 291.373 654.15L291.097 657.303C297.066 657.825 302.173 660.973 305.386 665.515L307.969 663.687ZM307.791 665.725C311.743 661.81 317.319 659.598 323.288 660.121L323.564 656.968C316.629 656.361 310.148 658.935 305.564 663.477L307.791 665.725ZM323.288 660.121C325.214 660.289 327.048 660.731 328.756 661.402L329.914 658.457C327.926 657.676 325.795 657.163 323.564 656.968L323.288 660.121ZM353.588 646.167C342.944 645.236 333.199 650.569 327.984 659.105L330.685 660.755C335.298 653.204 343.911 648.497 353.312 649.32L353.588 646.167ZM378.323 675.661C379.633 660.683 368.559 647.478 353.588 646.167L353.312 649.32C366.541 650.478 376.328 662.147 375.17 675.385L378.323 675.661Z" fill="black" mask="url(#path-53-inside-15_13_1380)"/>
<mask id="path-55-inside-16_13_1380" fill="white">
<path fill-rule="evenodd" clip-rule="evenodd" d="M1383.37 650.996C1383.2 652.961 1382.81 654.855 1382.23 656.656C1393.11 658.951 1400.8 669.06 1399.81 680.413C1398.74 692.681 1387.93 701.755 1375.66 700.681L1273.56 691.744C1261.29 690.67 1252.22 679.855 1253.29 667.587C1254.31 655.988 1264.03 647.244 1275.46 647.233C1277.9 637.256 1287.31 630.277 1297.86 631.2C1304.31 631.765 1309.83 635.168 1313.3 640.073C1317.57 635.846 1323.6 633.453 1330.05 634.018C1332.13 634.2 1334.11 634.677 1335.96 635.404C1340.87 627.36 1350.05 622.34 1360.07 623.217C1374.17 624.451 1384.6 636.888 1383.37 650.996Z"/>
</mask>
<path d="M1382.23 656.656L1380.72 656.17L1380.18 657.841L1381.9 658.204L1382.23 656.656ZM1275.46 647.233L1275.46 648.816L1276.7 648.814L1276.99 647.61L1275.46 647.233ZM1313.3 640.074L1312.01 640.987L1313.09 642.512L1314.42 641.198L1313.3 640.074ZM1335.96 635.404L1335.38 636.876L1336.62 637.363L1337.31 636.229L1335.96 635.404ZM1360.07 623.217L1359.94 624.793L1360.07 623.217ZM1383.73 657.141C1384.35 655.228 1384.76 653.218 1384.95 651.134L1381.79 650.858C1381.63 652.704 1381.27 654.481 1380.72 656.17L1383.73 657.141ZM1401.39 680.551C1402.45 668.391 1394.21 657.566 1382.56 655.107L1381.9 658.204C1392.01 660.336 1399.16 669.729 1398.24 680.275L1401.39 680.551ZM1375.52 702.258C1388.66 703.408 1400.24 693.689 1401.39 680.551L1398.24 680.275C1397.24 691.672 1387.19 700.102 1375.8 699.105L1375.52 702.258ZM1273.42 693.32L1375.52 702.258L1375.8 699.105L1273.7 690.168L1273.42 693.32ZM1251.72 667.449C1250.57 680.587 1260.29 692.17 1273.42 693.32L1273.7 690.168C1262.3 689.17 1253.87 679.122 1254.87 667.725L1251.72 667.449ZM1275.45 645.651C1263.22 645.662 1252.8 655.026 1251.72 667.449L1254.87 667.725C1255.81 656.95 1264.84 648.826 1275.46 648.816L1275.45 645.651ZM1298 629.624C1286.66 628.631 1276.55 636.133 1273.92 646.857L1276.99 647.61C1279.25 638.378 1287.97 631.922 1297.72 632.776L1298 629.624ZM1314.59 639.16C1310.87 633.891 1304.93 630.231 1298 629.624L1297.72 632.776C1303.69 633.299 1308.8 636.446 1312.01 640.987L1314.59 639.16ZM1314.42 641.198C1318.37 637.284 1323.94 635.072 1329.91 635.595L1330.19 632.442C1323.25 631.835 1316.77 634.409 1312.19 638.949L1314.42 641.198ZM1329.91 635.595C1331.84 635.763 1333.67 636.205 1335.38 636.876L1336.54 633.931C1334.55 633.149 1332.42 632.637 1330.19 632.442L1329.91 635.595ZM1360.21 621.641C1349.57 620.709 1339.82 626.042 1334.61 634.579L1337.31 636.229C1341.92 628.677 1350.53 623.97 1359.94 624.793L1360.21 621.641ZM1384.95 651.134C1386.26 636.157 1375.18 622.951 1360.21 621.641L1359.94 624.793C1373.16 625.951 1382.95 637.62 1381.79 650.858L1384.95 651.134Z" fill="black" mask="url(#path-55-inside-16_13_1380)"/>
<mask id="path-57-inside-17_13_1380" fill="white">
<path fill-rule="evenodd" clip-rule="evenodd" d="M386.524 56.2027C389.117 54.4327 392.186 53.2842 395.536 52.991C405.621 52.1081 414.551 59.3034 415.943 69.2189C427.272 69.3423 436.876 78.0481 437.883 89.5717C438.956 101.839 429.881 112.655 417.613 113.728L315.518 122.666C303.251 123.739 292.436 114.665 291.364 102.398C290.31 90.3503 299.044 79.7034 310.976 78.3082C312.179 68.6042 320.015 60.7205 330.143 59.8339C332.241 59.6502 334.295 59.7795 336.259 60.1832C339.086 49.6264 348.254 41.4617 359.766 40.4539C371.434 39.4326 382.006 46.0697 386.524 56.2027Z"/>
</mask>
<path d="M386.524 56.2026L385.079 56.8472L385.85 58.5781L387.416 57.5095L386.524 56.2026ZM415.943 69.2188L414.376 69.4389L414.565 70.7863L415.925 70.8011L415.943 69.2188ZM310.976 78.3081L311.16 79.8797L312.394 79.7355L312.546 78.5025L310.976 78.3081ZM336.258 60.1831L335.94 61.733L337.401 62.0335L337.787 60.5923L336.258 60.1831ZM359.766 40.4538L359.628 38.8774L359.766 40.4538ZM387.416 57.5095C389.79 55.8885 392.601 54.8362 395.673 54.5672L395.398 51.4145C391.771 51.732 388.443 52.9767 385.632 54.8957L387.416 57.5095ZM395.673 54.5672C404.915 53.7582 413.1 60.3519 414.376 69.4389L417.51 68.9986C416.001 58.2547 406.327 50.4578 395.398 51.4145L395.673 54.5672ZM415.925 70.8011C426.449 70.9157 435.371 79.0048 436.307 89.7096L439.459 89.4336C438.38 77.0913 428.095 67.7686 415.96 67.6365L415.925 70.8011ZM436.307 89.7096C437.303 101.106 428.872 111.154 417.475 112.152L417.751 115.305C430.889 114.155 440.608 102.572 439.459 89.4336L436.307 89.7096ZM417.475 112.152L315.38 121.089L315.656 124.242L417.751 115.305L417.475 112.152ZM315.38 121.089C303.983 122.087 293.936 113.656 292.94 102.26L289.787 102.536C290.936 115.674 302.518 125.392 315.656 124.242L315.38 121.089ZM292.94 102.26C291.961 91.0674 300.075 81.1759 311.16 79.8797L310.792 76.7364C298.012 78.2308 288.659 89.6329 289.787 102.536L292.94 102.26ZM312.546 78.5025C313.659 69.5235 320.912 62.2303 330.28 61.4102L330.005 58.2575C319.117 59.2105 310.698 67.6848 309.406 78.1136L312.546 78.5025ZM330.28 61.4102C332.225 61.24 334.125 61.3599 335.94 61.733L336.577 58.6331C334.465 58.1989 332.258 58.0602 330.005 58.2575L330.28 61.4102ZM337.787 60.5923C340.448 50.6572 349.075 42.978 359.903 42.0302L359.628 38.8774C347.431 39.9451 337.724 48.5954 334.73 59.7738L337.787 60.5923ZM359.903 42.0302C370.878 41.0695 380.826 47.3112 385.079 56.8472L387.969 55.5581C383.184 44.828 371.989 37.7954 359.628 38.8774L359.903 42.0302Z" fill="black" mask="url(#path-57-inside-17_13_1380)"/>
<mask id="path-59-inside-18_13_1380" fill="white">
<path fill-rule="evenodd" clip-rule="evenodd" d="M113.884 620.612C116.477 618.842 119.547 617.693 122.897 617.4C132.982 616.517 141.912 623.712 143.304 633.628C154.632 633.753 164.235 642.458 165.242 653.981C166.315 666.248 157.24 677.064 144.973 678.138L42.8772 687.075C30.6098 688.149 19.7956 679.074 18.7229 666.807C17.6694 654.759 26.4043 644.111 38.3382 642.717C39.5402 633.013 47.3763 625.128 57.5047 624.242C59.6029 624.058 61.6564 624.187 63.6191 624.591C66.4468 614.035 75.6143 605.871 87.126 604.863C98.7938 603.841 109.366 610.479 113.884 620.612Z"/>
</mask>
<path d="M113.884 620.612L112.439 621.256L113.211 622.988L114.776 621.919L113.884 620.612ZM122.897 617.4L122.759 615.823L122.759 615.823L122.897 617.4ZM143.304 633.628L141.737 633.848L141.926 635.196L143.287 635.21L143.304 633.628ZM165.242 653.981L163.666 654.119L163.666 654.119L165.242 653.981ZM144.973 678.138L145.111 679.714L145.111 679.714L144.973 678.138ZM42.8772 687.075L42.7392 685.498L42.7392 685.498L42.8772 687.075ZM18.7229 666.807L20.2993 666.669L18.7229 666.807ZM38.3383 642.717L38.5218 644.289L39.7559 644.145L39.9086 642.912L38.3383 642.717ZM57.5047 624.242L57.3667 622.666L57.3667 622.666L57.5047 624.242ZM63.6191 624.591L63.3005 626.141L64.7616 626.441L65.1476 625L63.6191 624.591ZM87.126 604.863L87.2639 606.439L87.126 604.863ZM114.776 621.919C117.151 620.298 119.962 619.245 123.035 618.976L122.759 615.823C119.132 616.141 115.803 617.386 112.992 619.305L114.776 621.919ZM123.035 618.976C132.277 618.167 140.461 624.761 141.737 633.848L144.871 633.408C143.363 622.664 133.688 614.867 122.759 615.823L123.035 618.976ZM143.287 635.21C153.809 635.326 162.73 643.415 163.666 654.119L166.819 653.843C165.74 641.501 155.455 632.179 143.321 632.046L143.287 635.21ZM163.666 654.119C164.663 665.516 156.231 675.564 144.835 676.561L145.111 679.714C158.249 678.564 167.968 666.981 166.819 653.843L163.666 654.119ZM144.835 676.561L42.7392 685.498L43.0152 688.651L145.111 679.714L144.835 676.561ZM42.7392 685.498C31.3424 686.496 21.2958 678.066 20.2993 666.669L17.1465 666.945C18.2953 680.083 29.8771 689.801 43.0152 688.651L42.7392 685.498ZM20.2993 666.669C19.3205 655.476 27.4356 645.584 38.5218 644.289L38.1547 641.145C25.3729 642.638 16.0182 654.041 17.1465 666.945L20.2993 666.669ZM39.9086 642.912C41.0208 633.932 48.2739 626.638 57.6427 625.818L57.3667 622.666C46.4788 623.619 38.0596 632.093 36.7679 642.523L39.9086 642.912ZM57.6427 625.818C59.5866 625.648 61.4863 625.768 63.3005 626.141L63.9376 623.041C61.8264 622.607 59.6192 622.468 57.3667 622.666L57.6427 625.818ZM65.1476 625C67.8088 615.066 76.4364 607.387 87.2639 606.439L86.988 603.286C74.7921 604.354 65.0848 613.004 62.0906 624.181L65.1476 625ZM87.2639 606.439C98.2384 605.479 108.187 611.72 112.439 621.256L115.329 619.968C110.545 609.237 99.3493 602.204 86.988 603.286L87.2639 606.439Z" fill="black" mask="url(#path-59-inside-18_13_1380)"/>
<mask id="path-61-inside-19_13_1380" fill="white">
<path fill-rule="evenodd" clip-rule="evenodd" d="M1089.67 596.084C1092.26 594.314 1095.33 593.165 1098.68 592.872C1108.77 591.989 1117.7 599.185 1119.09 609.101C1130.42 609.225 1140.02 617.931 1141.03 629.454C1142.1 641.721 1133.03 652.537 1120.76 653.61L1018.66 662.548C1006.4 663.621 995.581 654.547 994.508 642.28C993.455 630.232 1002.19 619.584 1014.12 618.19C1015.33 608.486 1023.16 600.602 1033.29 599.716C1035.39 599.532 1037.44 599.661 1039.4 600.065C1042.23 589.508 1051.4 581.343 1062.91 580.335C1074.58 579.314 1085.15 585.951 1089.67 596.084Z"/>
</mask>
<path d="M1089.67 596.084L1088.22 596.728L1089 598.459L1090.56 597.391L1089.67 596.084ZM1119.09 609.101L1117.52 609.321L1117.71 610.668L1119.07 610.683L1119.09 609.101ZM1014.12 618.19L1014.31 619.762L1015.54 619.617L1015.69 618.384L1014.12 618.19ZM1039.4 600.065L1039.09 601.615L1040.55 601.915L1040.93 600.474L1039.4 600.065ZM1062.91 580.335L1062.77 578.759L1062.91 580.335ZM1090.56 597.391C1092.94 595.77 1095.75 594.717 1098.82 594.448L1098.54 591.295C1094.92 591.613 1091.59 592.858 1088.78 594.777L1090.56 597.391ZM1098.82 594.448C1108.06 593.639 1116.25 600.233 1117.52 609.321L1120.66 608.881C1119.15 598.136 1109.47 590.339 1098.54 591.295L1098.82 594.448ZM1119.07 610.683C1129.59 610.798 1138.52 618.887 1139.45 629.592L1142.6 629.316C1141.52 616.974 1131.24 607.651 1119.11 607.519L1119.07 610.683ZM1139.45 629.592C1140.45 640.989 1132.02 651.036 1120.62 652.034L1120.9 655.187C1134.03 654.037 1143.75 642.454 1142.6 629.316L1139.45 629.592ZM1120.62 652.034L1018.52 660.971L1018.8 664.124L1120.9 655.187L1120.62 652.034ZM1018.52 660.971C1007.13 661.969 997.081 653.539 996.085 642.142L992.932 642.418C994.081 655.556 1005.66 665.274 1018.8 664.124L1018.52 660.971ZM996.085 642.142C995.106 630.949 1003.22 621.057 1014.31 619.762L1013.94 616.618C1001.16 618.112 991.804 629.514 992.932 642.418L996.085 642.142ZM1015.69 618.384C1016.81 609.405 1024.06 602.112 1033.43 601.292L1033.15 598.139C1022.26 599.092 1013.84 607.567 1012.55 617.996L1015.69 618.384ZM1033.43 601.292C1035.37 601.122 1037.27 601.242 1039.09 601.615L1039.72 598.515C1037.61 598.081 1035.4 597.942 1033.15 598.139L1033.43 601.292ZM1040.93 600.474C1043.59 590.539 1052.22 582.86 1063.05 581.912L1062.77 578.759C1050.58 579.827 1040.87 588.477 1037.88 599.655L1040.93 600.474ZM1063.05 581.912C1074.02 580.951 1083.97 587.193 1088.22 596.728L1091.11 595.439C1086.33 584.709 1075.13 577.677 1062.77 578.759L1063.05 581.912Z" fill="black" mask="url(#path-61-inside-19_13_1380)"/>
<mask id="path-63-inside-20_13_1380" fill="white">
<path fill-rule="evenodd" clip-rule="evenodd" d="M838.042 70.4434C840.635 68.6733 843.705 67.5248 847.054 67.2315C857.14 66.3487 866.07 73.5446 867.461 83.4607C878.79 83.5851 888.392 92.2906 889.4 103.813C890.472 116.081 881.397 126.896 869.13 127.97L767.034 136.907C754.767 137.981 743.953 128.907 742.88 116.639C741.827 104.591 750.562 93.9435 762.496 92.5496C763.698 82.8455 771.534 74.9616 781.662 74.075C783.76 73.8913 785.814 74.0205 787.777 74.424C790.604 63.8673 799.772 55.7027 811.284 54.695C822.952 53.6736 833.524 60.3106 838.042 70.4434Z"/>
</mask>
<path d="M838.042 70.4433L836.597 71.0878L837.369 72.8187L838.934 71.7502L838.042 70.4433ZM867.461 83.4606L865.894 83.6806L866.083 85.0279L867.444 85.0429L867.461 83.4606ZM762.495 92.5495L762.679 94.1212L763.913 93.977L764.066 92.7439L762.495 92.5495ZM787.777 74.4239L787.458 75.9739L788.919 76.2743L789.305 74.8331L787.777 74.4239ZM811.284 54.6948L811.146 53.1185L811.284 54.6948ZM838.934 71.7502C841.309 70.1291 844.12 69.0767 847.192 68.8078L846.916 65.6551C843.289 65.9725 839.961 67.2173 837.15 69.1364L838.934 71.7502ZM847.192 68.8078C856.434 67.9988 864.619 74.593 865.894 83.6806L869.028 83.2405C867.52 72.4959 857.846 64.6983 846.916 65.6551L847.192 68.8078ZM867.444 85.0429C877.966 85.1584 886.887 93.2472 887.823 103.951L890.976 103.675C889.897 91.3338 879.613 82.0115 867.479 81.8783L867.444 85.0429ZM887.823 103.951C888.82 115.348 880.389 125.396 868.992 126.394L869.268 129.546C882.406 128.396 892.125 116.813 890.976 103.675L887.823 103.951ZM868.992 126.394L766.896 135.331L767.172 138.483L869.268 129.546L868.992 126.394ZM766.896 135.331C755.5 136.328 745.453 127.898 744.456 116.501L741.304 116.777C742.452 129.915 754.034 139.634 767.172 138.483L766.896 135.331ZM744.456 116.501C743.478 105.308 751.593 95.4161 762.679 94.1212L762.312 90.9778C749.53 92.4707 740.175 103.874 741.304 116.777L744.456 116.501ZM764.066 92.7439C765.178 83.7647 772.431 76.4713 781.8 75.6512L781.524 72.4985C770.636 73.4516 762.217 81.9261 760.925 92.3551L764.066 92.7439ZM781.8 75.6512C783.744 75.481 785.644 75.6009 787.458 75.9739L788.096 72.8739C785.984 72.4399 783.777 72.3013 781.524 72.4985L781.8 75.6512ZM789.305 74.8331C791.966 64.8981 800.594 57.219 811.422 56.2712L811.146 53.1185C798.95 54.1861 789.242 62.8363 786.248 74.0146L789.305 74.8331ZM811.422 56.2712C822.396 55.3105 832.345 61.5521 836.597 71.0878L839.487 69.7987C834.703 59.0689 823.507 52.0364 811.146 53.1185L811.422 56.2712Z" fill="black" mask="url(#path-63-inside-20_13_1380)"/>
<mask id="path-65-inside-21_13_1380" fill="white">
<path fill-rule="evenodd" clip-rule="evenodd" d="M582.009 599.248C584.602 597.478 587.672 596.33 591.021 596.037C601.107 595.154 610.036 602.349 611.428 612.264C622.757 612.389 632.359 621.094 633.367 632.617C634.439 644.885 625.364 655.7 613.097 656.774L511.001 665.711C498.734 666.785 487.92 657.711 486.847 645.443C485.794 633.395 494.529 622.747 506.463 621.353C507.665 611.65 515.501 603.766 525.629 602.879C527.727 602.696 529.781 602.825 531.744 603.228C534.572 592.672 543.739 584.507 555.251 583.499C566.919 582.478 577.491 589.115 582.009 599.248Z"/>
</mask>
<path d="M582.009 599.248L580.564 599.893L581.336 601.624L582.901 600.555L582.009 599.248ZM611.428 612.264L609.861 612.485L610.05 613.832L611.411 613.847L611.428 612.264ZM506.463 621.353L506.646 622.925L507.88 622.781L508.033 621.548L506.463 621.353ZM531.744 603.228L531.425 604.778L532.887 605.079L533.273 603.638L531.744 603.228ZM555.251 583.499L555.113 581.923L555.251 583.499ZM582.901 600.555C585.276 598.934 588.087 597.882 591.159 597.613L590.883 594.46C587.257 594.778 583.929 596.022 581.117 597.941L582.901 600.555ZM591.159 597.613C600.401 596.804 608.585 603.398 609.861 612.485L612.995 612.044C611.487 601.3 601.812 593.503 590.883 594.46L591.159 597.613ZM611.411 613.847C621.933 613.962 630.854 622.051 631.79 632.755L634.943 632.479C633.864 620.138 623.58 610.815 611.446 610.682L611.411 613.847ZM631.79 632.755C632.787 644.152 624.356 654.2 612.959 655.198L613.235 658.35C626.373 657.2 636.092 645.617 634.943 632.479L631.79 632.755ZM612.959 655.198L510.864 664.135L511.139 667.287L613.235 658.35L612.959 655.198ZM510.864 664.135C499.467 665.132 489.42 656.702 488.424 645.305L485.271 645.581C486.42 658.719 498.001 668.437 511.139 667.287L510.864 664.135ZM488.424 645.305C487.445 634.112 495.56 624.22 506.646 622.925L506.279 619.782C493.497 621.275 484.143 632.678 485.271 645.581L488.424 645.305ZM508.033 621.548C509.146 612.569 516.398 605.276 525.767 604.456L525.491 601.303C514.604 602.256 506.185 610.73 504.892 621.159L508.033 621.548ZM525.767 604.456C527.711 604.285 529.611 604.405 531.425 604.778L532.063 601.678C529.951 601.244 527.744 601.106 525.491 601.303L525.767 604.456ZM533.273 603.638C535.934 593.703 544.561 586.024 555.389 585.076L555.113 581.923C542.917 582.991 533.21 591.641 530.216 602.819L533.273 603.638ZM555.389 585.076C566.363 584.115 576.312 590.357 580.564 599.893L583.455 598.604C578.67 587.874 567.475 580.841 555.113 581.923L555.389 585.076Z" fill="black" mask="url(#path-65-inside-21_13_1380)"/>
<mask id="path-67-inside-22_13_1380" fill="white">
<path fill-rule="evenodd" clip-rule="evenodd" d="M1566.49 617.445C1569.08 615.675 1572.15 614.527 1575.5 614.234C1585.59 613.351 1594.52 620.547 1595.91 630.462C1607.24 630.586 1616.84 639.292 1617.85 650.815C1618.92 663.083 1609.85 673.898 1597.58 674.972L1495.48 683.909C1483.21 684.983 1472.4 675.908 1471.33 663.641C1470.27 651.593 1479.01 640.946 1490.94 639.551C1492.14 629.847 1499.98 621.964 1510.11 621.077C1512.21 620.894 1514.26 621.023 1516.22 621.426C1519.05 610.87 1528.22 602.705 1539.73 601.697C1551.4 600.676 1561.97 607.313 1566.49 617.445Z"/>
</mask>
<path d="M1566.49 617.445L1565.04 618.09L1565.82 619.821L1567.38 618.752L1566.49 617.445ZM1595.91 630.462L1594.34 630.682L1594.53 632.03L1595.89 632.045L1595.91 630.462ZM1490.94 639.551L1491.13 641.123L1492.36 640.979L1492.51 639.746L1490.94 639.551ZM1516.22 621.427L1515.91 622.976L1517.37 623.277L1517.75 621.836L1516.22 621.427ZM1539.73 601.697L1539.87 603.274L1539.73 601.697ZM1567.38 618.752C1569.76 617.131 1572.57 616.079 1575.64 615.81L1575.36 612.657C1571.74 612.975 1568.41 614.22 1565.6 616.138L1567.38 618.752ZM1575.64 615.81C1584.88 615.001 1593.07 621.595 1594.34 630.682L1597.47 630.242C1595.97 619.498 1586.29 611.701 1575.36 612.657L1575.64 615.81ZM1595.89 632.045C1606.41 632.16 1615.34 640.249 1616.27 650.953L1619.42 650.677C1618.34 638.335 1608.06 629.013 1595.93 628.88L1595.89 632.045ZM1616.27 650.953C1617.27 662.35 1608.84 672.398 1597.44 673.395L1597.72 676.548C1610.85 675.398 1620.57 663.815 1619.42 650.677L1616.27 650.953ZM1597.44 673.395L1495.34 682.332L1495.62 685.485L1597.72 676.548L1597.44 673.395ZM1495.34 682.332C1483.95 683.33 1473.9 674.9 1472.9 663.503L1469.75 663.779C1470.9 676.917 1482.48 686.635 1495.62 685.485L1495.34 682.332ZM1472.9 663.503C1471.93 652.31 1480.04 642.418 1491.13 641.123L1490.76 637.98C1477.98 639.473 1468.62 650.876 1469.75 663.779L1472.9 663.503ZM1492.51 639.746C1493.63 630.767 1500.88 623.474 1510.25 622.654L1509.97 619.501C1499.08 620.454 1490.66 628.928 1489.37 639.357L1492.51 639.746ZM1510.25 622.654C1512.19 622.483 1514.09 622.603 1515.91 622.976L1516.54 619.877C1514.43 619.442 1512.22 619.304 1509.97 619.501L1510.25 622.654ZM1517.75 621.836C1520.41 611.901 1529.04 604.222 1539.87 603.274L1539.59 600.121C1527.4 601.189 1517.69 609.839 1514.7 621.017L1517.75 621.836ZM1539.87 603.274C1550.84 602.313 1560.79 608.554 1565.04 618.09L1567.93 616.801C1563.15 606.071 1551.95 599.039 1539.59 600.121L1539.87 603.274Z" fill="black" mask="url(#path-67-inside-22_13_1380)"/>
<mask id="path-69-inside-23_13_1380" fill="white">
<path fill-rule="evenodd" clip-rule="evenodd" d="M1123.94 66.3677C1124.05 65.6384 1124.14 64.8999 1124.21 64.1528C1125.71 46.9784 1113.01 31.8376 1095.85 30.3351C1084.88 29.375 1074.74 34.215 1068.46 42.3152C1064.5 38.5721 1059.3 36.0889 1053.45 35.5768C1039.84 34.3856 1027.82 44.3058 1026.34 57.8244L1021.91 57.4363C1009.64 56.3625 998.825 65.4367 997.753 77.7042C996.68 89.9716 1005.76 100.787 1018.02 101.861L1120.12 110.798C1132.39 111.872 1143.2 102.798 1144.27 90.5301C1145.34 78.2626 1136.27 67.4473 1124 66.3735L1123.94 66.3677Z"/>
</mask>
<path d="M1123.94 66.3677L1122.37 66.1191L1122.11 67.796L1123.8 67.9441L1123.94 66.3677ZM1068.46 42.3152L1067.37 43.4653L1068.64 44.6633L1069.71 43.285L1068.46 42.3152ZM1026.34 57.8244L1026.2 59.4007L1027.74 59.5357L1027.91 57.9967L1026.34 57.8244ZM1124 66.3735L1124.14 64.7971L1124 66.3735ZM1122.63 64.0149C1122.57 64.7248 1122.48 65.4265 1122.37 66.1191L1125.5 66.6163C1125.62 65.8503 1125.72 65.0749 1125.79 64.2908L1122.63 64.0149ZM1095.71 31.9114C1112 33.3377 1124.06 47.7102 1122.63 64.0149L1125.79 64.2908C1127.36 46.2466 1114.02 30.3376 1095.99 28.7587L1095.71 31.9114ZM1069.71 43.285C1075.68 35.5917 1085.3 31.0002 1095.71 31.9114L1095.99 28.7587C1084.46 27.7498 1073.81 32.8384 1067.21 41.3453L1069.71 43.285ZM1053.31 37.1532C1058.79 37.6331 1063.66 39.9584 1067.37 43.4653L1069.55 41.165C1065.34 37.1859 1059.8 34.5447 1053.58 34.0005L1053.31 37.1532ZM1027.91 57.9967C1029.3 45.3309 1040.56 36.0373 1053.31 37.1532L1053.58 34.0005C1039.12 32.734 1026.34 43.2808 1024.77 57.652L1027.91 57.9967ZM1021.77 59.0127L1026.2 59.4007L1026.48 56.248L1022.04 55.86L1021.77 59.0127ZM999.329 77.8422C1000.33 66.4453 1010.37 58.015 1021.77 59.0127L1022.04 55.86C1008.91 54.7099 997.325 64.4281 996.176 77.5662L999.329 77.8422ZM1018.16 100.284C1006.76 99.2868 998.333 89.239 999.329 77.8422L996.176 77.5662C995.028 90.7043 1004.75 102.287 1017.88 103.437L1018.16 100.284ZM1120.26 109.222L1018.16 100.284L1017.88 103.437L1119.98 112.374L1120.26 109.222ZM1142.7 90.3921C1141.7 101.789 1131.65 110.219 1120.26 109.222L1119.98 112.374C1133.12 113.524 1144.7 103.806 1145.85 90.6681L1142.7 90.3921ZM1123.86 67.9498C1135.26 68.9475 1143.69 78.9952 1142.7 90.3921L1145.85 90.6681C1147 77.53 1137.28 65.9472 1124.14 64.7971L1123.86 67.9498ZM1123.8 67.9441L1123.86 67.9498L1124.14 64.7971L1124.07 64.7914L1123.8 67.9441Z" fill="black" mask="url(#path-69-inside-23_13_1380)"/>
<mask id="path-71-inside-24_13_1380" fill="white">
<path fill-rule="evenodd" clip-rule="evenodd" d="M846.552 658.467C846.667 657.738 846.759 657 846.824 656.253C848.326 639.078 835.628 623.938 818.463 622.435C807.496 621.475 797.358 626.315 791.076 634.415C787.114 630.671 781.91 628.188 776.06 627.676C762.452 626.485 750.434 636.405 748.954 649.924L744.521 649.536C732.253 648.462 721.439 657.536 720.366 669.804C719.294 682.071 728.369 692.886 740.636 693.96L842.732 702.897C854.999 703.971 865.813 694.897 866.886 682.63C867.959 670.362 858.883 659.547 846.616 658.473L846.552 658.467Z"/>
</mask>
<path d="M846.552 658.467L844.989 658.219L844.722 659.896L846.414 660.044L846.552 658.467ZM818.463 622.435L818.325 624.011L818.463 622.435ZM791.076 634.415L789.989 635.565L791.257 636.763L792.326 635.385L791.076 634.415ZM748.954 649.924L748.817 651.5L750.359 651.635L750.527 650.096L748.954 649.924ZM845.248 656.115C845.185 656.825 845.099 657.526 844.989 658.219L848.114 658.716C848.236 657.95 848.332 657.175 848.4 656.391L845.248 656.115ZM818.325 624.011C834.619 625.438 846.673 639.81 845.248 656.115L848.4 656.391C849.978 638.347 836.637 622.438 818.601 620.859L818.325 624.011ZM792.326 635.385C798.293 627.691 807.916 623.1 818.325 624.011L818.601 620.859C807.075 619.85 796.424 624.938 789.826 633.445L792.326 635.385ZM775.922 629.252C781.404 629.732 786.277 632.058 789.989 635.565L792.163 633.264C787.951 629.285 782.416 626.644 776.198 626.1L775.922 629.252ZM750.527 650.096C751.913 637.43 763.174 628.136 775.922 629.252L776.198 626.1C761.73 624.833 748.954 635.38 747.381 649.752L750.527 650.096ZM744.383 651.112L748.817 651.5L749.092 648.348L744.658 647.959L744.383 651.112ZM721.943 669.942C722.939 658.545 732.986 650.115 744.383 651.112L744.658 647.959C731.52 646.809 719.939 656.528 718.79 669.666L721.943 669.942ZM740.774 692.384C729.377 691.386 720.946 681.339 721.943 669.942L718.79 669.666C717.641 682.804 727.36 694.387 740.498 695.537L740.774 692.384ZM842.869 701.321L740.774 692.384L740.498 695.537L842.594 704.474L842.869 701.321ZM865.31 682.492C864.313 693.889 854.266 702.319 842.869 701.321L842.594 704.474C855.732 705.624 867.313 695.906 868.462 682.768L865.31 682.492ZM846.478 660.049C857.875 661.047 866.306 671.095 865.31 682.492L868.462 682.768C869.611 669.63 859.892 658.047 846.754 656.897L846.478 660.049ZM846.414 660.044L846.478 660.049L846.754 656.897L846.689 656.891L846.414 660.044Z" fill="black" mask="url(#path-71-inside-24_13_1380)"/>
</svg>
