<svg width="354" height="365" viewBox="0 0 354 365" fill="none" xmlns="http://www.w3.org/2000/svg">
<path d="M66.5186 354.045C36.6963 319.452 12.8386 195.391 17.6101 51.0507L253.803 52.2436C253.803 201.117 231.734 324.223 206.087 354.045C146.92 372.655 88.3883 361.799 66.5186 354.045Z" fill="white"/>
<path d="M314.044 122.028C290.186 102.464 261.159 120.636 250.224 131.571L252.61 89.8198H282.432C305.694 89.8198 334.323 97.8121 346.252 132.167C358.181 166.523 340.288 191.812 325.973 205.53L229.945 292.611L241.278 233.563C258.455 246.924 296.548 211.296 313.448 191.812C323.587 180.122 337.902 141.591 314.044 122.028Z" fill="white"/>
<path d="M85.8335 335.837C64.1436 310.677 46.7917 187.37 50.2621 82.3913L222.046 83.2589C222.046 191.535 205.996 314.147 187.342 335.837C144.309 349.371 101.739 341.476 85.8335 335.837Z" fill="#63AF50"/>
<ellipse cx="138.689" cy="82.2286" rx="101.992" ry="21.6347" fill="white"/>
<ellipse cx="135.707" cy="51.0507" rx="118.096" ry="25.0507" fill="#D9D9D9"/>
<path fill-rule="evenodd" clip-rule="evenodd" d="M221.116 67.9645C202.118 73.7213 170.044 77.3208 133.712 76.9792C100.733 76.6691 71.3232 73.1782 52.0508 67.9646C65.4583 60.8492 98.2533 55.8223 136.583 55.8223C174.913 55.8223 207.708 60.8492 221.116 67.9645Z" fill="#396931"/>
<path d="M237.829 32.0563L236.651 31.8703L236.42 33.3297L237.895 33.2474L237.829 32.0563ZM237.96 32.049L239.151 31.9765L239.078 30.7918L237.893 30.858L237.96 32.049ZM239.771 69.5843L238.579 69.6267L238.623 70.8493L239.844 70.775L239.771 69.5843ZM268.819 67.8163L268.747 66.6256L268.747 66.6256L268.819 67.8163ZM319.309 180.668L320.163 181.501L320.174 181.49L320.185 181.477L319.309 180.668ZM229.544 272.608L228.69 271.775L228.434 272.038L228.37 272.399L229.544 272.608ZM208.668 336.192L209.094 337.306L209.412 337.185L209.618 336.914L208.668 336.192ZM69.357 344.671L68.5025 345.504L68.7233 345.73L69.0274 345.818L69.357 344.671ZM2.13104 45.2077L0.939916 45.1428L0.937245 45.1918L0.938606 45.2408L2.13104 45.2077ZM2.13104 45.2076L3.32217 45.2726L3.32591 45.2039L3.32173 45.1352L2.13104 45.2076ZM236.936 214.098L235.748 213.997L235.686 214.722L236.303 215.109L236.936 214.098ZM305.974 167.736L305.027 167.011L305.027 167.011L305.974 167.736ZM302.329 98.0444L301.63 99.0111L301.63 99.0111L302.329 98.0444ZM240.637 109.899L239.777 109.072L239.441 109.422L239.444 109.908L240.637 109.899ZM239.007 32.2424C239.083 31.7592 239.108 31.2731 239.078 30.7858L236.697 30.9307C236.716 31.2413 236.7 31.554 236.651 31.8703L239.007 32.2424ZM237.893 30.858L237.762 30.8653L237.895 33.2474L238.026 33.24L237.893 30.858ZM240.963 69.542C240.526 57.2269 239.924 44.6908 239.151 31.9765L236.769 32.1215C237.542 44.8157 238.142 57.3317 238.579 69.6267L240.963 69.542ZM239.844 70.775L268.892 69.007L268.747 66.6256L239.699 68.3936L239.844 70.775ZM268.892 69.007C280.378 68.3079 293.232 69.5082 304.91 74.9752C316.557 80.4277 327.11 90.157 333.993 106.668L336.195 105.75C329.084 88.693 318.108 78.5195 305.922 72.8144C293.766 67.1238 280.479 65.9116 268.747 66.6256L268.892 69.007ZM333.993 106.668C347.721 139.597 331.759 165.435 318.433 179.858L320.185 181.477C333.769 166.775 350.455 139.954 336.195 105.75L333.993 106.668ZM318.456 179.835L228.69 271.775L230.397 273.442L320.163 181.501L318.456 179.835ZM209.618 336.914C213.875 331.308 217.785 322.897 221.306 312.128C224.833 301.342 227.994 288.115 230.718 272.817L228.37 272.399C225.658 287.625 222.521 300.738 219.039 311.387C215.551 322.054 211.74 330.174 207.718 335.471L209.618 336.914ZM69.0274 345.818C91.5141 352.282 150.87 359.589 209.094 337.306L208.241 335.078C150.61 357.134 91.8006 349.882 69.6866 343.525L69.0274 345.818ZM0.938606 45.2408C2.94376 117.494 11.7917 184.261 24.134 237.078C30.3049 263.486 37.3538 286.425 44.8672 304.829C52.3701 323.207 60.3749 337.16 68.5025 345.504L70.2115 343.839C62.4047 335.824 54.5397 322.209 47.076 303.927C39.6229 285.671 32.6083 262.858 26.4572 236.535C14.1553 183.891 5.32466 117.285 3.32347 45.1746L0.938606 45.2408ZM0.93992 45.1427L0.939916 45.1428L3.32216 45.2727L3.32217 45.2726L0.93992 45.1427ZM118.415 11.8378C85.8064 13.8225 56.4207 18.4242 35.2627 24.2756C24.6933 27.1987 16.1141 30.4505 10.2035 33.8791C7.25021 35.5923 4.9041 37.383 3.31194 39.2481C1.7155 41.1181 0.810489 43.1464 0.940355 45.2801L3.32173 45.1352C3.24147 43.8164 3.78054 42.3737 5.12645 40.7971C6.47663 39.2155 8.57112 37.5842 11.4007 35.9428C17.0558 32.6623 25.4116 29.4754 35.8986 26.5751C56.8533 20.7799 86.066 16.1969 118.56 14.2191L118.415 11.8378ZM239.078 30.7858C238.948 28.6521 237.804 26.7485 235.993 25.0859C234.186 23.4277 231.64 21.9347 228.501 20.5924C222.218 17.9059 213.308 15.7186 202.462 14.099C180.75 10.8569 151.023 9.85304 118.415 11.8378L118.56 14.2191C151.054 12.2414 180.607 13.2477 202.109 16.4586C212.871 18.0656 221.551 20.2156 227.563 22.786C230.57 24.0721 232.847 25.4374 234.379 26.8436C235.906 28.2453 236.617 29.612 236.697 30.9307L239.078 30.7858ZM236.303 215.109C241.271 218.222 247.307 217.906 253.583 215.615C259.865 213.323 266.588 208.986 273.159 203.714C286.311 193.163 299.11 178.657 306.921 168.461L305.027 167.011C297.286 177.115 284.619 191.462 271.666 201.853C265.185 207.053 258.696 211.209 252.765 213.374C246.829 215.541 241.654 215.646 237.57 213.087L236.303 215.109ZM306.921 168.461C311.785 162.111 317.193 148.979 318.246 135.153C319.301 121.304 315.997 106.455 303.028 97.0777L301.63 99.0111C313.664 107.712 316.888 121.566 315.867 134.972C314.844 148.401 309.573 161.076 305.027 167.011L306.921 168.461ZM303.028 97.0777C290.687 88.1545 277.651 88.2171 266.349 91.9727C255.088 95.7145 245.487 103.132 239.777 109.072L241.497 110.726C247.018 104.982 256.303 97.825 267.101 94.2368C277.858 90.6624 290.052 90.6397 301.63 99.0111L303.028 97.0777ZM238.125 214.199C240.765 183.202 242.101 147.949 241.83 109.891L239.444 109.908C239.714 147.902 238.381 183.081 235.748 213.997L238.125 214.199Z" fill="black"/>
</svg>
