<svg width="175" height="98" viewBox="0 0 175 98" fill="none" xmlns="http://www.w3.org/2000/svg">
<path fill-rule="evenodd" clip-rule="evenodd" d="M99.2999 97.6615L174.776 54.0852L99.2999 10.5089L99.2999 36.95L7.77628 36.95L7.77628 71.2204L99.2999 71.2204L99.2999 97.6615Z" fill="#3D7DA0"/>
<mask id="path-2-inside-1_4_360" fill="white">
<path fill-rule="evenodd" clip-rule="evenodd" d="M95.1444 90.2812L168.701 43.5369L91.4409 3.20727L92.5645 29.6245L1.1236 33.5138L2.57989 67.7532L94.0208 63.8639L95.1444 90.2812Z"/>
</mask>
<path d="M168.701 43.5369L169.237 44.3809L170.699 43.4519L169.164 42.6504L168.701 43.5369ZM95.1444 90.2812L94.1454 90.3237L94.219 92.0542L95.6808 91.1252L95.1444 90.2812ZM91.4409 3.20727L91.9037 2.32078L90.3682 1.51928L90.4419 3.24977L91.4409 3.20727ZM92.5645 29.6245L92.607 30.6236L93.6061 30.5811L93.5636 29.582L92.5645 29.6245ZM1.1236 33.5138L1.0811 32.5147L0.0820082 32.5572L0.124503 33.5563L1.1236 33.5138ZM2.57989 67.7532L1.5808 67.7957L1.62329 68.7947L2.62239 68.7523L2.57989 67.7532ZM94.0208 63.8639L95.0199 63.8214L94.9775 62.8223L93.9784 62.8648L94.0208 63.8639ZM168.165 42.6929L94.6081 89.4372L95.6808 91.1252L169.237 44.3809L168.165 42.6929ZM90.9782 4.09376L168.238 44.4234L169.164 42.6504L91.9037 2.32078L90.9782 4.09376ZM93.5636 29.582L92.44 3.16478L90.4419 3.24977L91.5654 29.667L93.5636 29.582ZM1.16609 34.5129L92.607 30.6236L92.5221 28.6254L1.0811 32.5147L1.16609 34.5129ZM3.57899 67.7107L2.1227 33.4713L0.124503 33.5563L1.5808 67.7957L3.57899 67.7107ZM93.9784 62.8648L2.5374 66.7541L2.62239 68.7523L94.0633 64.863L93.9784 62.8648ZM96.1435 90.2387L95.0199 63.8214L93.0218 63.9064L94.1454 90.3237L96.1435 90.2387Z" fill="black" mask="url(#path-2-inside-1_4_360)"/>
</svg>
