<svg width="175" height="98" viewBox="0 0 175 98" fill="none" xmlns="http://www.w3.org/2000/svg">
<path fill-rule="evenodd" clip-rule="evenodd" d="M75.4764 0L0 43.5763L75.4764 87.1526V60.7115H167V26.4411H75.4764V0Z" fill="#A03D97"/>
<mask id="path-2-inside-1_4_251" fill="white">
<path fill-rule="evenodd" clip-rule="evenodd" d="M79.6319 7.38032L6.07541 54.1246L83.3354 94.4542L82.2118 68.037L173.653 64.1477L172.196 29.9083L80.7555 33.7976L79.6319 7.38032Z"/>
</mask>
<path d="M6.07541 54.1246L5.53906 53.2806L4.07722 54.2096L5.61267 55.0111L6.07541 54.1246ZM79.6319 7.38032L80.631 7.33783L80.5574 5.60734L79.0955 6.53633L79.6319 7.38032ZM83.3354 94.4542L82.8726 95.3407L84.4081 96.1422L84.3345 94.4117L83.3354 94.4542ZM82.2118 68.037L82.1693 67.0379L81.1702 67.0804L81.2127 68.0795L82.2118 68.037ZM173.653 64.1477L173.695 65.1468L174.694 65.1043L174.652 64.1052L173.653 64.1477ZM172.196 29.9083L173.196 29.8658L173.153 28.8667L172.154 28.9092L172.196 29.9083ZM80.7555 33.7976L79.7564 33.8401L79.7989 34.8392L80.798 34.7967L80.7555 33.7976ZM6.61176 54.9686L80.1682 8.22432L79.0955 6.53633L5.53906 53.2806L6.61176 54.9686ZM83.7981 93.5677L6.53816 53.2381L5.61267 55.0111L82.8726 95.3407L83.7981 93.5677ZM81.2127 68.0795L82.3363 94.4967L84.3345 94.4117L83.2109 67.9945L81.2127 68.0795ZM173.61 63.1486L82.1693 67.0379L82.2543 69.0361L173.695 65.1468L173.61 63.1486ZM171.197 29.9508L172.654 64.1902L174.652 64.1052L173.196 29.8658L171.197 29.9508ZM80.798 34.7967L172.239 30.9074L172.154 28.9092L80.713 32.7985L80.798 34.7967ZM78.6328 7.42282L79.7564 33.8401L81.7546 33.7551L80.631 7.33783L78.6328 7.42282Z" fill="black" mask="url(#path-2-inside-1_4_251)"/>
</svg>
