<svg width="355" height="367" viewBox="0 0 355 367" fill="none" xmlns="http://www.w3.org/2000/svg">
<path d="M49.5187 328.045C19.6964 293.452 -4.16129 169.391 0.610255 25.0507L236.803 26.2436C236.803 175.117 214.734 298.223 189.087 328.045C129.92 346.655 71.3884 335.799 49.5187 328.045Z" fill="white"/>
<path d="M297.044 96.0279C273.186 76.4644 244.159 94.6362 233.224 105.571L235.61 63.8198H265.432C288.694 63.8198 317.323 71.8121 329.252 106.167C341.181 140.523 323.288 165.812 308.973 179.53L212.945 266.611L224.278 207.563C241.455 220.924 279.548 185.296 296.448 165.812C306.587 154.122 320.902 115.591 297.044 96.0279Z" fill="white"/>
<path d="M68.8336 309.837C47.1437 284.677 29.7919 161.37 33.2622 56.3913L205.046 57.2589C205.046 165.535 188.996 288.147 170.342 309.837C127.31 323.371 84.7395 315.476 68.8336 309.837Z" fill="#509EAF"/>
<ellipse cx="121.689" cy="56.2286" rx="101.992" ry="21.6347" fill="white"/>
<ellipse cx="118.707" cy="25.0507" rx="118.096" ry="25.0507" fill="#D9D9D9"/>
<path fill-rule="evenodd" clip-rule="evenodd" d="M204.116 41.9645C185.118 47.7213 153.045 51.3208 116.712 50.9792C83.7334 50.6691 54.3234 47.1782 35.0509 41.9646C48.4584 34.8492 81.2534 29.8223 119.583 29.8223C157.913 29.8223 190.708 34.8492 204.116 41.9645Z" fill="#315F69"/>
<path d="M256.485 49.4609L255.338 49.1306L254.929 50.5504L256.403 50.651L256.485 49.4609ZM256.616 49.4698L257.806 49.545L257.881 48.3605L256.697 48.2797L256.616 49.4698ZM253.775 86.9413L252.587 86.8361L252.479 88.0547L253.7 88.1318L253.775 86.9413ZM282.819 88.7759L282.894 87.5854L282.894 87.5854L282.819 88.7759ZM318.979 207.001L319.723 207.934L319.736 207.923L319.748 207.913L318.979 207.001ZM218.542 287.146L217.798 286.214L217.511 286.443L217.402 286.793L218.542 287.146ZM189.969 347.663L190.255 348.822L190.585 348.74L190.823 348.497L189.969 347.663ZM50.6782 338.865L49.7274 339.585L49.9185 339.838L50.2095 339.962L50.6782 338.865ZM20.9678 33.3897L19.7939 33.1781L19.7851 33.2264L19.7804 33.2752L20.9678 33.3897ZM20.9678 33.3896L22.1418 33.6012L22.154 33.5335L22.1584 33.4648L20.9678 33.3896ZM233.106 229.997L231.94 229.75L231.789 230.462L232.353 230.922L233.106 229.997ZM307.343 192.521L306.493 191.684L306.493 191.684L307.343 192.521ZM312.338 122.913L311.525 123.786L311.525 123.786L312.338 122.913ZM249.653 127.054L248.902 126.128L248.525 126.433L248.469 126.915L249.653 127.054ZM257.631 49.7911C257.766 49.3211 257.851 48.8417 257.881 48.3544L255.5 48.204C255.481 48.5145 255.427 48.823 255.338 49.1306L257.631 49.7911ZM256.697 48.2797L256.566 48.2707L256.403 50.651L256.534 50.6599L256.697 48.2797ZM254.964 87.0466C256.051 74.7718 257.003 62.2575 257.806 49.545L255.425 49.3946C254.623 62.087 253.673 74.5813 252.587 86.8361L254.964 87.0466ZM253.7 88.1318L282.744 89.9664L282.894 87.5854L253.851 85.7508L253.7 88.1318ZM282.744 89.9664C294.229 90.6919 306.836 93.4711 317.749 100.339C328.633 107.189 337.903 118.148 342.693 135.382L344.992 134.743C340.043 116.939 330.408 105.487 319.02 98.3199C307.66 91.171 294.625 88.3263 282.894 87.5854L282.744 89.9664ZM342.693 135.382C352.248 169.755 333.215 193.423 318.209 206.09L319.748 207.913C335.044 195.002 354.916 170.448 344.992 134.743L342.693 135.382ZM318.235 206.069L217.798 286.214L219.286 288.078L319.723 207.934L318.235 206.069ZM190.823 348.497C195.74 343.459 200.659 335.597 205.484 325.345C210.317 315.078 215.088 302.342 219.681 287.499L217.402 286.793C212.83 301.567 208.097 314.192 203.325 324.329C198.546 334.483 193.762 342.07 189.116 346.83L190.823 348.497ZM50.2095 339.962C71.7252 349.155 129.724 363.74 190.255 348.822L189.684 346.505C129.769 361.271 72.306 346.809 51.1469 337.768L50.2095 339.962ZM19.7804 33.2752C12.8429 105.222 13.3737 172.571 19.0955 226.508C21.9563 253.476 26.1169 277.111 31.2989 296.302C36.4735 315.466 42.6931 330.301 49.7274 339.585L51.629 338.145C44.8723 329.227 38.7498 314.744 33.6021 295.68C28.4617 276.643 24.3196 253.138 21.468 226.257C15.7648 172.496 15.2314 105.309 22.1552 33.5042L19.7804 33.2752ZM19.7939 33.178L19.7939 33.1781L22.1418 33.6013L22.1418 33.6012L19.7939 33.178ZM140.484 14.643C107.88 12.5835 78.1508 13.5192 56.4319 16.7116C45.5823 18.3063 36.6671 20.4732 30.3782 23.1453C27.2358 24.4804 24.6864 25.9676 22.876 27.6216C21.0608 29.2801 19.9121 31.181 19.7773 33.3144L22.1584 33.4648C22.2416 32.1463 22.9548 30.7812 24.4852 29.383C26.0205 27.9803 28.3005 26.6203 31.3112 25.3411C37.3283 22.7845 46.0139 20.6543 56.7788 19.072C78.2889 15.9103 107.844 14.9718 140.333 17.024L140.484 14.643ZM257.881 48.3544C258.016 46.221 257.116 44.1907 255.524 42.317C253.936 40.4483 251.594 38.6521 248.644 36.9322C242.742 33.49 234.17 30.2186 223.607 27.2714C202.463 21.3715 173.088 16.7024 140.484 14.643L140.333 17.024C172.823 19.0762 202.025 23.7262 222.966 29.5694C233.446 32.4936 241.795 35.6997 247.442 38.9932C250.268 40.641 252.359 42.2772 253.706 43.8618C255.048 45.4415 255.584 46.8855 255.5 48.204L257.881 48.3544ZM232.353 230.922C236.898 234.625 242.928 235.058 249.438 233.56C255.955 232.061 263.163 228.588 270.335 224.169C284.69 215.324 299.183 202.51 308.193 193.357L306.493 191.684C297.564 200.754 283.22 213.427 269.083 222.138C262.009 226.497 255.056 229.819 248.904 231.235C242.745 232.651 237.596 232.117 233.86 229.072L232.353 230.922ZM308.193 193.357C313.805 187.657 320.794 175.293 323.547 161.704C326.305 148.091 324.861 132.947 313.151 122.04L311.525 123.786C322.391 133.907 323.878 148.053 321.209 161.23C318.535 174.43 311.738 186.356 306.493 191.684L308.193 193.357ZM313.151 122.04C302.007 111.66 289.062 110.112 277.383 112.442C265.746 114.764 255.302 120.938 248.902 126.128L250.405 127.981C256.592 122.963 266.691 117.008 277.85 114.782C288.966 112.564 301.07 114.048 311.525 123.786L313.151 122.04ZM234.273 230.245C240.723 199.811 246.404 164.994 250.838 127.193L248.469 126.915C244.042 164.652 238.372 199.397 231.94 229.75L234.273 230.245Z" fill="black"/>
</svg>
