<svg width="423" height="421" viewBox="0 0 423 421" fill="none" xmlns="http://www.w3.org/2000/svg">
<g filter="url(#filter0_i_5_552)">
<circle cx="206.571" cy="214.104" r="206.104" fill="#E7E7E7"/>
</g>
<circle cx="206.571" cy="214.104" r="202.148" stroke="white" stroke-width="7.91187"/>
<circle cx="206.572" cy="214.104" r="189.885" stroke="url(#paint0_linear_5_552)" stroke-width="16.6149"/>
<g filter="url(#filter1_i_5_552)">
<circle cx="216.761" cy="206.58" r="205.313" stroke="black" stroke-width="1.58237"/>
</g>
<path fill-rule="evenodd" clip-rule="evenodd" d="M140.486 235.129C141.343 235.708 142.226 236.26 143.135 236.785C164.04 248.855 190.772 241.692 202.841 220.787C210.553 207.43 210.413 191.695 203.855 178.926C210.95 176.11 217.182 170.972 221.295 163.848C230.863 147.275 225.39 126.145 209.111 116.267L212.237 110.854C220.858 95.9215 215.742 76.8276 200.809 68.2064C185.877 59.5852 166.783 64.7014 158.162 79.6337L156.447 82.6043C140.575 76.4536 122.153 82.6124 113.377 97.8127C107.629 107.769 107.309 119.37 111.5 129.188C111.39 129.371 111.282 129.554 111.175 129.74C108.922 133.642 107.503 137.798 106.863 141.999C93.8121 141.002 80.7255 147.372 73.7439 159.465C64.3478 175.739 69.4566 196.408 85.0591 206.501C78.3261 221.003 83.6708 238.505 97.7831 246.653C112.715 255.274 131.809 250.158 140.43 235.226L140.486 235.129Z" fill="#573210"/>
<mask id="path-6-inside-1_5_552" fill="white">
<path fill-rule="evenodd" clip-rule="evenodd" d="M139.9 245.989C140.717 246.622 141.562 247.231 142.435 247.814C162.509 261.221 189.65 255.816 203.057 235.742C211.623 222.917 212.51 207.206 206.798 194.036C214.062 191.689 220.615 186.969 225.184 180.128C235.813 164.214 231.728 142.772 216.128 131.854L219.6 126.656C229.176 112.317 225.316 92.9304 210.977 83.354C196.639 73.7777 177.252 77.6381 167.676 91.9766L165.771 94.829C150.334 87.6566 131.549 92.6012 121.801 107.197C115.416 116.758 114.34 128.313 117.882 138.384C117.761 138.558 117.641 138.735 117.522 138.912C115.019 142.66 113.332 146.714 112.42 150.865C99.4617 149.019 85.9877 154.522 78.2325 166.134C67.7953 181.761 71.5457 202.719 86.4571 213.808C78.7928 227.84 82.985 245.653 96.5361 254.704C110.875 264.28 130.261 260.42 139.838 246.081L139.9 245.989Z"/>
</mask>
<path d="M139.9 245.989L141.114 244.422L139.433 243.12L138.252 244.888L139.9 245.989ZM206.798 194.036L206.189 192.151L204.111 192.822L204.98 194.825L206.798 194.036ZM216.128 131.854L214.48 130.753L213.403 132.366L214.992 133.478L216.128 131.854ZM165.771 94.829L164.936 96.6261L166.475 97.3416L167.418 95.9296L165.771 94.829ZM117.882 138.384L119.51 139.513L120.088 138.681L119.752 137.726L117.882 138.384ZM112.42 150.865L112.14 152.827L113.96 153.086L114.355 151.29L112.42 150.865ZM86.4571 213.808L88.1962 214.757L89.022 213.245L87.6396 212.217L86.4571 213.808ZM143.535 246.166C142.701 245.609 141.894 245.027 141.114 244.422L138.686 247.555C139.54 248.217 140.422 248.853 141.334 249.462L143.535 246.166ZM201.409 234.642C188.61 253.806 162.699 258.965 143.535 246.166L141.334 249.462C162.318 263.477 190.69 257.827 204.705 236.843L201.409 234.642ZM204.98 194.825C210.435 207.403 209.585 222.4 201.409 234.642L204.705 236.843C213.66 223.434 214.584 207.01 208.616 193.248L204.98 194.825ZM207.407 195.922C215.08 193.443 222.006 188.453 226.832 181.228L223.536 179.027C219.224 185.484 213.043 189.936 206.189 192.151L207.407 195.922ZM226.832 181.228C238.06 164.416 233.746 141.765 217.264 130.23L214.992 133.478C229.711 143.779 233.565 164.011 223.536 179.027L226.832 181.228ZM217.776 132.955L221.248 127.756L217.952 125.555L214.48 130.753L217.776 132.955ZM221.248 127.756C231.432 112.508 227.327 91.8903 212.078 81.7061L209.877 85.002C223.305 93.9705 226.92 112.127 217.952 125.555L221.248 127.756ZM212.078 81.7061C196.829 71.5219 176.212 75.6274 166.028 90.876L169.324 93.0772C178.292 79.6488 196.448 76.0334 209.877 85.002L212.078 81.7061ZM166.028 90.876L164.123 93.7284L167.418 95.9296L169.324 93.0772L166.028 90.876ZM166.606 93.0318C150.296 85.454 130.452 90.6756 120.153 106.096L123.449 108.298C132.646 94.5269 150.371 89.8591 164.936 96.6261L166.606 93.0318ZM120.153 106.096C113.407 116.197 112.273 128.408 116.013 139.041L119.752 137.726C116.408 128.219 117.425 117.318 123.449 108.298L120.153 106.096ZM116.254 137.254C116.126 137.438 116 137.624 115.874 137.812L119.17 140.013C119.282 139.845 119.396 139.679 119.51 139.513L116.254 137.254ZM115.874 137.812C113.232 141.768 111.449 146.051 110.484 150.439L114.355 151.29C115.216 147.377 116.807 143.552 119.17 140.013L115.874 137.812ZM112.699 148.903C99.0152 146.953 84.7789 152.764 76.5846 165.033L79.8804 167.234C87.1964 156.28 99.9082 151.084 112.14 152.827L112.699 148.903ZM76.5846 165.033C65.5582 181.543 69.5205 203.682 85.2745 215.398L87.6396 212.217C73.5709 201.755 70.0325 181.979 79.8804 167.234L76.5846 165.033ZM84.7179 212.858C76.5661 227.783 81.0234 246.726 95.4355 256.352L97.6367 253.056C84.9467 244.581 81.0195 227.898 88.1962 214.757L84.7179 212.858ZM95.4355 256.352C110.684 266.536 131.302 262.431 141.486 247.182L138.19 244.981C129.221 258.409 111.065 262.025 97.6367 253.056L95.4355 256.352ZM141.486 247.182L141.548 247.089L138.252 244.888L138.19 244.981L141.486 247.182Z" fill="black" mask="url(#path-6-inside-1_5_552)"/>
<path d="M151.606 208.174C146.528 203.179 132.075 192.998 114.889 192.231C123.367 197.09 142.58 207.083 151.606 208.174Z" fill="#382508"/>
<path d="M123.339 168.265C129.915 174.698 148.615 187.796 170.812 188.727C159.846 182.481 134.999 169.643 123.339 168.265Z" fill="#382508"/>
<path d="M182.413 169.469C175.2 162.764 154.828 149.255 131.045 148.863C142.953 155.25 169.896 168.312 182.413 169.469Z" fill="#382508"/>
<path d="M146.458 130.663C151.962 135.897 167.553 146.495 185.89 147.007C176.764 141.977 156.101 131.665 146.458 130.663Z" fill="#382508"/>
<path d="M156.367 111.958C161.04 116.563 174.343 125.953 190.173 126.675C182.367 122.191 164.679 112.971 156.367 111.958Z" fill="#382508"/>
<path d="M316.964 152.634C316.964 152.634 306.377 158.108 302.635 164.269C298.642 170.845 302.854 176.921 299.136 183.657C295.228 190.735 286.815 189.935 283.618 197.361C281.218 202.932 282.363 212.842 282.363 212.842" stroke="#F846B0" stroke-width="5.83104" stroke-linecap="round"/>
<path d="M286.871 162.339C286.871 162.339 288.321 174.17 292.796 179.821C297.572 185.852 304.734 184.016 309.756 189.845C315.033 195.97 311.357 203.579 317.207 209.16C321.595 213.347 331.285 215.721 331.285 215.721" stroke="#F846B0" stroke-width="5.83104" stroke-linecap="round"/>
<path d="M333.232 196.236C333.232 196.236 321.398 194.814 314.841 197.809C307.842 201.004 307.912 208.397 301.052 211.879C293.843 215.539 287.333 210.15 280.515 214.495C275.4 217.755 270.779 226.596 270.779 226.596" stroke="#F846B0" stroke-width="5.83104" stroke-linecap="round"/>
<path d="M328.436 186.317C328.436 186.317 317.421 181.764 310.3 182.883C302.699 184.077 300.777 191.216 293.233 192.724C285.305 194.308 280.486 187.366 272.75 189.716C266.946 191.48 260.116 198.751 260.116 198.751" stroke="#F846B0" stroke-width="5.83104" stroke-linecap="round"/>
<path d="M322.545 242.311C322.545 242.311 314.667 233.367 307.782 231.231C300.433 228.952 295.561 234.512 288.124 232.538C280.31 230.465 279.045 222.109 271.066 220.807C265.08 219.831 255.743 223.345 255.743 223.345" stroke="#F846B0" stroke-width="5.83104" stroke-linecap="round"/>
<path d="M271.244 256.129C271.244 256.129 276.5 245.431 282.583 241.564C289.076 237.436 295.237 241.523 301.895 237.667C308.891 233.616 307.919 225.221 315.278 221.872C320.798 219.359 330.73 220.3 330.73 220.3" stroke="#F846B0" stroke-width="5.83104" stroke-linecap="round"/>
<path d="M304.419 159.542C304.419 159.542 316.33 159.98 322.341 163.959C328.756 168.206 327.536 175.497 333.771 180.006C340.322 184.743 347.591 180.433 353.649 185.787C358.194 189.804 361.383 199.257 361.383 199.257" stroke="#F846B0" stroke-width="5.83104" stroke-linecap="round"/>
<path d="M342.056 158.315C342.056 158.315 347.366 168.986 346.746 176.168C346.084 183.833 339.096 186.248 338.118 193.879C337.09 201.899 344.351 206.222 342.545 214.103C341.19 220.015 334.413 227.336 334.413 227.336" stroke="#F846B0" stroke-width="5.83104" stroke-linecap="round"/>
<path d="M299.782 141.001C299.782 141.001 299.948 152.919 296.279 159.124C292.364 165.747 285.019 164.898 280.833 171.353C276.434 178.136 281.107 185.178 276.067 191.499C272.286 196.242 263.007 199.906 263.007 199.906" stroke="#F846B0" stroke-width="5.83104" stroke-linecap="round"/>
<path d="M319.084 162.175C319.084 162.175 308.497 167.649 304.755 173.811C300.762 180.387 304.974 186.463 301.255 193.198C297.348 200.276 288.935 199.477 285.738 206.902C283.338 212.473 284.483 222.383 284.483 222.383" stroke="black" stroke-width="1.06019" stroke-linecap="round"/>
<path d="M296.554 163.67C296.554 163.67 298.004 175.501 302.479 181.152C307.255 187.183 314.417 185.347 319.439 191.176C324.716 197.301 321.04 204.911 326.89 210.491C331.278 214.678 340.968 217.052 340.968 217.052" stroke="black" stroke-width="1.06019" stroke-linecap="round"/>
<path d="M329.624 205.32C329.624 205.32 317.79 203.898 311.233 206.892C304.235 210.088 304.305 217.481 297.444 220.963C290.235 224.623 283.725 219.234 276.907 223.579C271.792 226.839 267.171 235.68 267.171 235.68" stroke="black" stroke-width="1.06019" stroke-linecap="round"/>
<path d="M322.517 194.095C322.517 194.095 311.502 189.542 304.381 190.661C296.78 191.855 294.858 198.994 287.313 200.502C279.385 202.086 274.566 195.144 266.83 197.494C261.027 199.258 254.196 206.528 254.196 206.528" stroke="black" stroke-width="1.06019" stroke-linecap="round"/>
<path d="M313.803 246.681C313.803 246.681 305.924 237.738 299.039 235.602C291.691 233.323 286.818 238.883 279.382 236.909C271.567 234.835 270.303 226.48 262.324 225.178C256.337 224.202 247.001 227.716 247.001 227.716" stroke="black" stroke-width="1.06019" stroke-linecap="round"/>
<path d="M280.827 258.052C280.827 258.052 286.083 247.355 292.166 243.488C298.659 239.36 304.82 243.447 311.478 239.591C318.474 235.54 317.502 227.145 324.86 223.796C330.381 221.283 340.313 222.224 340.313 222.224" stroke="black" stroke-width="1.06019" stroke-linecap="round"/>
<path d="M306.568 169.076C306.568 169.076 318.479 169.515 324.49 173.494C330.906 177.74 329.685 185.032 335.92 189.54C342.471 194.278 349.741 189.968 355.799 195.322C360.344 199.339 363.532 208.792 363.532 208.792" stroke="black" stroke-width="1.06019" stroke-linecap="round"/>
<path d="M334.71 164.762C334.71 164.762 340.02 175.433 339.399 182.615C338.738 190.28 331.75 192.695 330.772 200.326C329.743 208.345 337.004 212.669 335.199 220.55C333.844 226.462 327.067 233.783 327.067 233.783" stroke="black" stroke-width="1.06019" stroke-linecap="round"/>
<path d="M290.368 143.631C290.368 143.631 290.534 155.549 286.866 161.754C282.95 168.377 275.606 167.528 271.42 173.983C267.02 180.767 271.693 187.808 266.653 194.13C262.872 198.872 253.593 202.537 253.593 202.537" stroke="black" stroke-width="1.06019" stroke-linecap="round"/>
<path d="M109.549 292.232C108.446 294.273 107.787 296.579 106.949 299.509C106.441 301.693 106 304 106.5 306.5C106.5 306.5 107.695 310.953 112.051 312.647C115.714 314.071 119.315 315.584 122.724 317.556C126.156 319.541 129.928 320.764 133.396 322.73C140.054 326.503 143.45 330.887 144.398 338.426C144.77 341.379 147.718 344.663 149.919 346.489C153.297 349.291 157.86 350.333 162.063 351.164C171.469 353.024 181.501 352.848 190.977 351.966C200.971 351.035 211.587 350.825 221.373 348.51C228.121 346.914 234.344 343.255 241.245 342.516C247.493 341.847 254.261 342.248 260.423 343.549C264.43 344.395 268.85 345.15 272.944 344.769C283.879 343.751 295.406 339.315 303.941 332.246C308.682 328.32 313.469 324.588 317.432 319.811C318.989 317.934 321.254 316.118 321.5 313.5C321.683 311.551 321.652 309.242 321.47 307.293C321.049 302.769 316.667 298.405 314.038 294.999C310.978 291.036 306.263 287.342 301.644 285.311C295.26 282.504 289.612 281.637 282.714 282.279C277.254 282.787 272.181 284.56 266.735 285.067C260.703 285.629 254.217 284.786 248.216 284.005L247.962 283.972C241.693 283.158 235.941 279.991 229.748 278.802C227.237 278.319 224.865 279.016 221.746 279.282C219.048 279.511 217.055 279.474 214.852 280.02C211.223 280.918 207.901 282.566 204.344 283.6C201.792 284.342 199.702 286.14 197.306 287.194C195.38 288.042 193.209 288.678 191.188 289.282C187.54 290.371 184.524 290.7 180.219 290.496C175.12 290.254 171.466 288.587 167.505 287.463C165.32 286.843 161.66 285.838 159.858 284.513C157.153 282.525 152.678 282.471 149.524 281.428C145.388 280.059 140.247 279.496 135.914 279.9C128.31 280.608 119.444 281.496 113.066 286.026C110.76 287.664 110.72 290.063 109.549 292.232Z" fill="#54C0E2"/>
<path d="M253.725 278.963C247.456 278.148 241.703 274.982 235.511 273.792C233 273.31 230.628 274.007 227.509 274.272C224.811 274.502 222.818 274.465 220.615 275.011C216.986 275.909 213.664 277.557 210.107 278.591C207.555 279.332 205.465 281.131 203.069 282.185C201.143 283.033 198.972 283.669 196.951 284.273C193.303 285.362 190.287 285.69 185.982 285.487C180.883 285.245 177.229 283.578 173.268 282.454C171.083 281.834 167.423 280.829 165.621 279.504C162.916 277.516 158.441 277.462 155.287 276.418C151.151 275.05 146.01 274.487 141.677 274.891C134.073 275.599 125.207 276.487 118.829 281.017C116.523 282.655 116.483 285.054 115.311 287.223C114.209 289.264 113.55 291.57 112.712 294.5C112.203 296.684 111.763 298.991 112.263 301.491C112.263 301.491 113.458 305.944 117.814 307.637C121.477 309.062 125.078 310.575 128.486 312.547C131.919 314.532 135.691 315.755 139.159 317.721C145.817 321.494 149.213 325.878 150.161 333.417C150.532 336.37 153.481 339.654 155.682 341.479C159.06 344.282 163.623 345.324 167.826 346.155C177.232 348.015 187.264 347.839 196.74 346.957C206.734 346.026 217.349 345.815 227.136 343.501C233.884 341.904 240.107 338.246 247.008 337.507C253.256 336.837 260.024 337.239 266.185 338.54C270.193 339.386 274.613 340.141 278.707 339.76C289.642 338.742 301.169 334.306 309.704 327.237C314.445 323.31 319.232 319.579 323.195 314.802C324.752 312.925 327.017 311.109 327.263 308.491C327.446 306.542 327.415 304.233 327.233 302.284C326.812 297.76 322.43 293.396 319.801 289.99C316.741 286.027 312.026 282.333 307.407 280.302C301.023 277.495 295.375 276.628 288.477 277.27C283.017 277.778 277.944 279.551 272.498 280.058C266.466 280.62 259.98 279.777 253.979 278.996M253.725 278.963L253.979 278.996M253.725 278.963C253.809 278.974 253.894 278.985 253.979 278.996" stroke="black" stroke-linecap="round"/>
<defs>
<filter id="filter0_i_5_552" x="0.466797" y="8" width="412.208" height="412.208" filterUnits="userSpaceOnUse" color-interpolation-filters="sRGB">
<feFlood flood-opacity="0" result="BackgroundImageFix"/>
<feBlend mode="normal" in="SourceGraphic" in2="BackgroundImageFix" result="shape"/>
<feColorMatrix in="SourceAlpha" type="matrix" values="0 0 0 0 0 0 0 0 0 0 0 0 0 0 0 0 0 0 127 0" result="hardAlpha"/>
<feOffset dx="45.0976" dy="-22.1532"/>
<feComposite in2="hardAlpha" operator="arithmetic" k2="-1" k3="1"/>
<feColorMatrix type="matrix" values="0 0 0 0 0 0 0 0 0 0 0 0 0 0 0 0 0 0 0.25 0"/>
<feBlend mode="normal" in2="shape" result="effect1_innerShadow_5_552"/>
</filter>
<filter id="filter1_i_5_552" x="10.6572" y="0.475342" width="412.208" height="412.208" filterUnits="userSpaceOnUse" color-interpolation-filters="sRGB">
<feFlood flood-opacity="0" result="BackgroundImageFix"/>
<feBlend mode="normal" in="SourceGraphic" in2="BackgroundImageFix" result="shape"/>
<feColorMatrix in="SourceAlpha" type="matrix" values="0 0 0 0 0 0 0 0 0 0 0 0 0 0 0 0 0 0 127 0" result="hardAlpha"/>
<feOffset dx="-39.5593" dy="27.6915"/>
<feComposite in2="hardAlpha" operator="arithmetic" k2="-1" k3="1"/>
<feColorMatrix type="matrix" values="0 0 0 0 0 0 0 0 0 0 0 0 0 0 0 0 0 0 0.25 0"/>
<feBlend mode="normal" in2="shape" result="effect1_innerShadow_5_552"/>
</filter>
<linearGradient id="paint0_linear_5_552" x1="36.467" y1="331.991" x2="359.271" y2="78.4156" gradientUnits="userSpaceOnUse">
<stop stop-color="#DCDCDC"/>
<stop offset="1" stop-color="white"/>
</linearGradient>
</defs>
</svg>
