<svg width="421" height="425" viewBox="0 0 421 425" fill="none" xmlns="http://www.w3.org/2000/svg">
<g filter="url(#filter0_i_4_376)">
<circle cx="214.571" cy="206.104" r="206.104" fill="#E7E7E7"/>
</g>
<circle cx="214.571" cy="206.104" r="202.148" stroke="white" stroke-width="7.91187"/>
<circle cx="214.572" cy="206.104" r="189.885" stroke="url(#paint0_linear_4_376)" stroke-width="16.6149"/>
<g filter="url(#filter1_i_4_376)">
<circle cx="206.761" cy="218.58" r="205.313" stroke="black" stroke-width="1.58237"/>
</g>
<path fill-rule="evenodd" clip-rule="evenodd" d="M257.844 166.855C258.163 166.793 258.483 166.719 258.803 166.634C266.149 164.665 270.508 157.114 268.54 149.768C267.282 145.075 263.746 141.601 259.44 140.217C260.393 138.009 260.637 135.476 259.966 132.973C258.406 127.149 252.479 123.661 246.652 125.087L246.142 123.185C244.736 117.938 239.343 114.824 234.096 116.23C228.849 117.636 225.735 123.029 227.141 128.276L238.851 171.98C240.257 177.227 245.651 180.341 250.898 178.935C256.145 177.529 259.259 172.136 257.853 166.889L257.844 166.855Z" fill="#4BA03D"/>
<mask id="path-6-inside-1_4_376" fill="white">
<path fill-rule="evenodd" clip-rule="evenodd" d="M260.793 162.873C261.116 162.83 261.439 162.775 261.763 162.708C269.212 161.173 274.006 153.89 272.471 146.442C271.49 141.683 268.163 138.007 263.945 136.374C265.026 134.226 265.418 131.711 264.895 129.173C263.678 123.268 257.966 119.439 252.065 120.522L251.668 118.593C250.571 113.272 245.369 109.848 240.049 110.945C234.728 112.041 231.304 117.243 232.4 122.563L241.533 166.878C242.629 172.198 247.831 175.622 253.152 174.526C258.472 173.43 261.896 168.228 260.8 162.907L260.793 162.873Z"/>
</mask>
<path d="M260.793 162.873L260.665 161.916L259.638 162.053L259.847 163.068L260.793 162.873ZM263.945 136.374L263.083 135.94L262.605 136.89L263.597 137.274L263.945 136.374ZM252.065 120.522L251.12 120.717L251.31 121.642L252.239 121.471L252.065 120.522ZM260.8 162.907L259.854 163.102L260.8 162.907ZM261.568 161.763C261.267 161.825 260.965 161.876 260.665 161.916L260.921 163.83C261.266 163.783 261.612 163.725 261.958 163.654L261.568 161.763ZM271.525 146.637C272.953 153.563 268.495 160.335 261.568 161.763L261.958 163.654C269.929 162.011 275.059 154.218 273.416 146.247L271.525 146.637ZM263.597 137.274C267.521 138.794 270.613 142.212 271.525 146.637L273.416 146.247C272.366 141.153 268.804 137.221 264.294 135.474L263.597 137.274ZM263.949 129.368C264.427 131.686 264.07 133.979 263.083 135.94L264.808 136.808C265.983 134.472 266.409 131.737 265.84 128.978L263.949 129.368ZM252.239 121.471C257.625 120.483 262.839 123.978 263.949 129.368L265.84 128.978C264.517 122.558 258.307 118.395 251.891 119.572L252.239 121.471ZM250.722 118.788L251.12 120.717L253.011 120.327L252.613 118.398L250.722 118.788ZM240.244 111.89C245.042 110.901 249.733 113.989 250.722 118.788L252.613 118.398C251.409 112.555 245.697 108.795 239.854 109.999L240.244 111.89ZM233.346 122.369C232.357 117.57 235.445 112.879 240.244 111.89L239.854 109.999C234.011 111.203 230.251 116.916 231.455 122.758L233.346 122.369ZM242.478 166.683L233.346 122.369L231.455 122.758L240.587 167.073L242.478 166.683ZM252.957 173.581C248.158 174.569 243.467 171.481 242.478 166.683L240.587 167.073C241.791 172.915 247.504 176.675 253.346 175.471L252.957 173.581ZM259.854 163.102C260.843 167.9 257.755 172.592 252.957 173.581L253.346 175.471C259.189 174.267 262.949 168.555 261.745 162.712L259.854 163.102ZM259.847 163.068L259.854 163.102L261.745 162.712L261.738 162.678L259.847 163.068Z" fill="black" mask="url(#path-6-inside-1_4_376)"/>
<path fill-rule="evenodd" clip-rule="evenodd" d="M168.288 85.2233C168.345 84.9025 168.391 84.5775 168.425 84.2486C169.215 76.6847 163.724 69.9121 156.16 69.1216C151.328 68.6166 146.818 70.6757 143.985 74.2014C142.265 72.5211 139.987 71.3872 137.409 71.1178C131.412 70.4912 126.035 74.7773 125.282 80.729L123.323 80.5243C117.92 79.9597 113.082 83.8818 112.518 89.2847C111.953 94.6875 115.875 99.5251 121.278 100.09L166.279 104.792C171.681 105.357 176.519 101.435 177.084 96.0319C177.648 90.6291 173.726 85.7915 168.323 85.2269L168.288 85.2233Z" fill="#4BA03D"/>
<mask id="path-9-inside-2_4_376" fill="white">
<path fill-rule="evenodd" clip-rule="evenodd" d="M167.285 79.6732C167.32 79.3495 167.344 79.0221 167.356 78.6917C167.64 71.0918 161.709 64.7006 154.11 64.4165C149.254 64.235 144.892 66.5904 142.3 70.2972C140.471 68.7354 138.123 67.7561 135.533 67.6592C129.508 67.434 124.428 72.0693 124.074 78.058L122.106 77.9844C116.677 77.7815 112.112 82.0177 111.909 87.4461C111.706 92.8746 115.942 97.4397 121.371 97.6427L166.585 99.3328C172.013 99.5357 176.578 95.2996 176.781 89.8711C176.984 84.4426 172.748 79.8775 167.32 79.6746L167.285 79.6732Z"/>
</mask>
<path d="M167.285 79.6732L166.325 79.5694L166.213 80.5992L167.249 80.6379L167.285 79.6732ZM142.3 70.2972L141.673 71.0313L142.482 71.7219L143.091 70.8503L142.3 70.2972ZM124.074 78.058L124.038 79.0226L124.982 79.0579L125.037 78.1151L124.074 78.058ZM122.106 77.9844L122.07 78.9491L122.106 77.9844ZM166.391 78.6556C166.38 78.9634 166.357 79.2681 166.325 79.5694L168.244 79.7771C168.282 79.4308 168.307 79.0809 168.321 78.7277L166.391 78.6556ZM154.073 65.3811C161.141 65.6453 166.655 71.5885 166.391 78.6556L168.321 78.7277C168.625 70.5951 162.278 63.7559 154.146 63.4519L154.073 65.3811ZM143.091 70.8503C145.503 67.4009 149.559 65.2124 154.073 65.3811L154.146 63.4519C148.949 63.2576 144.28 65.7799 141.509 69.7441L143.091 70.8503ZM135.497 68.6239C137.862 68.7123 140.004 69.6056 141.673 71.0313L142.927 69.5631C140.939 67.8652 138.384 66.7998 135.569 66.6946L135.497 68.6239ZM125.037 78.1151C125.361 72.6493 129.998 68.4183 135.497 68.6239L135.569 66.6946C129.018 66.4498 123.496 71.4894 123.11 78.0009L125.037 78.1151ZM122.07 78.9491L124.038 79.0226L124.11 77.0934L122.142 77.0198L122.07 78.9491ZM112.874 87.4822C113.057 82.5865 117.174 78.7661 122.07 78.9491L122.142 77.0198C116.181 76.797 111.167 81.4489 110.945 87.4101L112.874 87.4822ZM121.407 96.678C116.511 96.495 112.691 92.3779 112.874 87.4822L110.945 87.4101C110.722 93.3713 115.374 98.3845 121.335 98.6073L121.407 96.678ZM166.621 98.3682L121.407 96.678L121.335 98.6073L166.549 100.297L166.621 98.3682ZM175.817 89.835C175.634 94.7308 171.517 98.5512 166.621 98.3682L166.549 100.297C172.51 100.52 177.523 95.8684 177.746 89.9072L175.817 89.835ZM167.284 80.6392C172.179 80.8222 176 84.9393 175.817 89.835L177.746 89.9072C177.969 83.9459 173.317 78.9328 167.356 78.7099L167.284 80.6392ZM167.249 80.6379L167.284 80.6392L167.356 78.7099L167.321 78.7086L167.249 80.6379Z" fill="black" mask="url(#path-9-inside-2_4_376)"/>
<path fill-rule="evenodd" clip-rule="evenodd" d="M80.5365 170.968C80.6227 171.282 80.7205 171.595 80.8303 171.907C83.3538 179.081 91.2154 182.851 98.3897 180.328C102.973 178.716 106.168 174.924 107.219 170.525C109.493 171.307 112.037 171.357 114.482 170.497C120.169 168.496 123.194 162.321 121.328 156.619L123.185 155.966C128.31 154.163 131.003 148.548 129.2 143.424C127.398 138.299 121.782 135.606 116.658 137.409L73.9759 152.422C68.8514 154.224 66.1584 159.84 67.961 164.964C69.7635 170.089 75.3789 172.782 80.5034 170.979L80.5365 170.968Z" fill="#4BA03D"/>
<mask id="path-12-inside-3_4_376" fill="white">
<path fill-rule="evenodd" clip-rule="evenodd" d="M78.8243 168.947C78.9312 169.254 79.0498 169.56 79.1801 169.864C82.177 176.854 90.2728 180.091 97.2626 177.094C101.728 175.179 104.662 171.183 105.417 166.724C107.739 167.352 110.28 167.232 112.662 166.211C118.204 163.835 120.81 157.471 118.566 151.907L120.376 151.131C125.369 148.99 127.681 143.208 125.541 138.215C123.4 133.222 117.617 130.91 112.625 133.051L71.0401 150.88C66.0474 153.021 63.7353 158.804 65.876 163.796C68.0166 168.789 73.7993 171.101 78.7921 168.961L78.8243 168.947Z"/>
</mask>
<path d="M78.8243 168.947L79.7361 168.63L79.3959 167.651L78.4439 168.06L78.8243 168.947ZM105.417 166.724L105.669 165.792L104.643 165.514L104.465 166.563L105.417 166.724ZM118.566 151.907L118.186 151.02L117.318 151.392L117.671 152.268L118.566 151.907ZM120.376 151.131L119.996 150.244L120.376 151.131ZM112.625 133.051L113.005 133.938L112.625 133.051ZM71.0401 150.88L70.6597 149.993L71.0401 150.88ZM78.7921 168.961L78.4117 168.073L78.7921 168.961ZM80.0673 169.484C79.9459 169.201 79.8356 168.916 79.7361 168.63L77.9125 169.264C78.0269 169.593 78.1536 169.92 78.2929 170.245L80.0673 169.484ZM96.8822 176.207C90.3824 178.994 82.8541 175.984 80.0673 169.484L78.2929 170.245C81.4999 177.724 90.1632 181.188 97.643 177.981L96.8822 176.207ZM104.465 166.563C103.763 170.712 101.034 174.427 96.8822 176.207L97.643 177.981C102.423 175.932 105.562 171.654 106.369 166.885L104.465 166.563ZM112.282 165.323C110.107 166.256 107.789 166.366 105.669 165.792L105.165 167.656C107.689 168.339 110.454 168.208 113.043 167.098L112.282 165.323ZM117.671 152.268C119.719 157.346 117.34 163.155 112.282 165.323L113.043 167.098C119.068 164.515 121.901 157.596 119.462 151.546L117.671 152.268ZM119.996 150.244L118.186 151.02L118.947 152.794L120.757 152.018L119.996 150.244ZM124.653 138.595C126.584 143.098 124.499 148.313 119.996 150.244L120.757 152.018C126.24 149.667 128.779 143.317 126.428 137.835L124.653 138.595ZM113.005 133.938C117.508 132.007 122.723 134.093 124.653 138.595L126.428 137.835C124.077 132.352 117.727 129.813 112.244 132.164L113.005 133.938ZM71.4205 151.768L113.005 133.938L112.244 132.164L70.6597 149.993L71.4205 151.768ZM66.7632 163.416C64.8326 158.913 66.9177 153.698 71.4205 151.768L70.6597 149.993C65.177 152.344 62.6381 158.694 64.9888 164.177L66.7632 163.416ZM78.4117 168.073C73.9089 170.004 68.6937 167.919 66.7632 163.416L64.9888 164.177C67.3395 169.659 73.6898 172.198 79.1724 169.848L78.4117 168.073ZM78.4439 168.06L78.4117 168.073L79.1724 169.848L79.2047 169.834L78.4439 168.06Z" fill="black" mask="url(#path-12-inside-3_4_376)"/>
<path fill-rule="evenodd" clip-rule="evenodd" d="M127.949 240.704C128.047 241.015 128.158 241.324 128.279 241.631C131.083 248.701 139.086 252.16 146.156 249.356C150.673 247.565 153.716 243.651 154.593 239.215C156.896 239.907 159.44 239.856 161.85 238.901C167.454 236.679 170.235 230.389 168.145 224.766L169.976 224.04C175.026 222.037 177.496 216.32 175.494 211.271C173.492 206.221 167.775 203.751 162.725 205.753L120.665 222.43C115.616 224.433 113.145 230.15 115.147 235.199C117.15 240.249 122.867 242.72 127.916 240.717L127.949 240.704Z" fill="#4BA03D"/>
<mask id="path-15-inside-4_4_376" fill="white">
<path fill-rule="evenodd" clip-rule="evenodd" d="M128.956 244.508C129.042 244.823 129.138 245.136 129.247 245.449C131.747 252.631 139.597 256.427 146.779 253.926C151.368 252.329 154.575 248.548 155.64 244.152C157.911 244.942 160.455 244.999 162.903 244.147C168.597 242.165 171.642 235.999 169.794 230.292L171.654 229.645C176.784 227.859 179.495 222.252 177.709 217.122C175.923 211.991 170.316 209.28 165.186 211.066L122.456 225.941C117.325 227.727 114.614 233.334 116.4 238.464C118.186 243.595 123.793 246.306 128.923 244.52L128.956 244.508Z"/>
</mask>
<path d="M128.956 244.508L129.888 244.256L129.617 243.256L128.639 243.597L128.956 244.508ZM155.64 244.152L155.957 243.24L154.952 242.891L154.702 243.925L155.64 244.152ZM169.794 230.292L169.476 229.38L168.584 229.691L168.875 230.59L169.794 230.292ZM171.654 229.645L171.336 228.733L171.654 229.645ZM130.159 245.131C130.057 244.84 129.967 244.548 129.888 244.256L128.025 244.761C128.116 245.097 128.219 245.432 128.335 245.766L130.159 245.131ZM146.462 253.015C139.783 255.34 132.484 251.81 130.159 245.131L128.335 245.766C131.011 253.452 139.411 257.514 147.097 254.838L146.462 253.015ZM154.702 243.925C153.71 248.015 150.728 251.529 146.462 253.015L147.097 254.838C152.008 253.128 155.439 249.08 156.578 244.38L154.702 243.925ZM162.586 243.236C160.351 244.014 158.03 243.961 155.957 243.24L155.323 245.064C157.793 245.922 160.56 245.985 163.22 245.059L162.586 243.236ZM168.875 230.59C170.562 235.799 167.783 241.426 162.586 243.236L163.22 245.059C169.411 242.904 172.722 236.2 170.712 229.995L168.875 230.59ZM171.336 228.733L169.476 229.38L170.111 231.204L171.971 230.556L171.336 228.733ZM176.797 217.439C178.408 222.066 175.963 227.122 171.336 228.733L171.971 230.556C177.605 228.595 180.582 222.438 178.621 216.804L176.797 217.439ZM165.503 211.978C170.13 210.367 175.187 212.812 176.797 217.439L178.621 216.804C176.66 211.171 170.503 208.193 164.869 210.155L165.503 211.978ZM122.773 226.853L165.503 211.978L164.869 210.155L122.138 225.03L122.773 226.853ZM117.312 238.147C115.701 233.52 118.146 228.464 122.773 226.853L122.138 225.03C116.505 226.991 113.527 233.148 115.489 238.782L117.312 238.147ZM128.606 243.608C123.979 245.219 118.923 242.774 117.312 238.147L115.489 238.782C117.45 244.416 123.607 247.393 129.241 245.432L128.606 243.608ZM128.639 243.597L128.606 243.608L129.241 245.432L129.274 245.42L128.639 243.597Z" fill="black" mask="url(#path-15-inside-4_4_376)"/>
<circle cx="118.459" cy="188.6" r="23.5858" stroke="#DF52B3" stroke-width="6.937"/>
<circle cx="120.193" cy="189.641" r="23.5858" stroke="#FFDCF6" stroke-width="6.937"/>
<circle cx="119.504" cy="192.824" r="26.5716" stroke="black" stroke-width="0.965299"/>
<circle cx="120.591" cy="124.624" r="23.5858" transform="rotate(60 120.591 124.624)" stroke="#DF52B3" stroke-width="6.937"/>
<circle cx="120.557" cy="126.646" r="23.5858" transform="rotate(60 120.557 126.646)" stroke="#FFDCF6" stroke-width="6.937"/>
<circle cx="191.044" cy="101.487" r="23.5858" transform="rotate(-45 191.044 101.487)" stroke="#DF52B3" stroke-width="6.937"/>
<circle cx="193.007" cy="100.996" r="23.5858" transform="rotate(-45 193.007 100.996)" stroke="#FFDCF6" stroke-width="6.937"/>
<circle cx="218.369" cy="202.259" r="23.5858" transform="rotate(-120 218.369 202.259)" stroke="#DF52B3" stroke-width="6.937"/>
<circle cx="218.403" cy="200.237" r="23.5858" transform="rotate(-120 218.403 200.237)" stroke="#FFDCF6" stroke-width="6.937"/>
<circle cx="222.011" cy="201.52" r="26.5716" transform="rotate(-120 222.011 201.52)" stroke="black" stroke-width="0.965299"/>
<circle cx="195.771" cy="102.577" r="26.5716" transform="rotate(-120 195.771 102.577)" stroke="black" stroke-width="0.965299"/>
<circle cx="118.547" cy="130.329" r="26.5716" transform="rotate(-120 118.547 130.329)" stroke="black" stroke-width="0.965299"/>
<path d="M84.4677 157.493L120.719 124.666L153.546 160.917L117.295 193.745L84.4677 157.493Z" fill="#FEC701"/>
<path d="M190.951 139.402L201.803 91.7154L249.49 102.568L238.637 150.254L190.951 139.402Z" fill="#FEC701"/>
<path d="M147.248 225.445L171.431 182.937L213.939 207.121L189.755 249.629L147.248 225.445Z" fill="#FEC701"/>
<ellipse cx="172.914" cy="159.178" rx="80.1223" ry="79.9489" fill="#C96F21"/>
<path d="M258.245 163.668C258.245 207.555 222.59 243.134 178.605 243.134C134.62 243.134 98.9653 207.555 98.9653 163.668C98.9653 119.781 134.62 84.2019 178.605 84.2019C222.59 84.2019 258.245 119.781 258.245 163.668Z" stroke="black" stroke-width="0.965299"/>
<path d="M143.432 155.303C143.432 157.41 141.724 159.118 139.617 159.118C137.51 159.118 135.801 157.41 135.801 155.303C135.801 153.195 137.51 151.487 139.617 151.487C141.724 151.487 143.432 153.195 143.432 155.303Z" fill="#FBC705"/>
<path d="M113.95 150.447C113.95 152.171 112.552 153.568 110.828 153.568C109.104 153.568 107.707 152.171 107.707 150.447C107.707 148.723 109.104 147.325 110.828 147.325C112.552 147.325 113.95 148.723 113.95 150.447Z" fill="#FBC705"/>
<path d="M156.612 110.212C156.612 111.936 155.215 113.334 153.491 113.334C151.767 113.334 150.369 111.936 150.369 110.212C150.369 108.488 151.767 107.091 153.491 107.091C155.215 107.091 156.612 108.488 156.612 110.212Z" fill="#FBC705"/>
<path d="M182.279 96.3382C182.279 98.0622 180.882 99.4598 179.158 99.4598C177.434 99.4598 176.036 98.0622 176.036 96.3382C176.036 94.6141 177.434 93.2165 179.158 93.2165C180.882 93.2165 182.279 94.6141 182.279 96.3382Z" fill="#FBC705"/>
<path d="M222.861 169.524C222.861 171.248 221.463 172.645 219.739 172.645C218.015 172.645 216.617 171.248 216.617 169.524C216.617 167.799 218.015 166.402 219.739 166.402C221.463 166.402 222.861 167.799 222.861 169.524Z" fill="#FBC705"/>
<path d="M183.667 163.28C183.667 165.004 182.269 166.402 180.545 166.402C178.821 166.402 177.423 165.004 177.423 163.28C177.423 161.556 178.821 160.159 180.545 160.159C182.269 160.159 183.667 161.556 183.667 163.28Z" fill="#FBC705"/>
<path d="M144.473 178.195C144.473 179.919 143.075 181.316 141.351 181.316C139.627 181.316 138.229 179.919 138.229 178.195C138.229 176.471 139.627 175.073 141.351 175.073C143.075 175.073 144.473 176.471 144.473 178.195Z" fill="#FBC705"/>
<path d="M194.072 210.799C194.072 212.523 192.675 213.92 190.951 213.92C189.227 213.92 187.829 212.523 187.829 210.799C187.829 209.075 189.227 207.677 190.951 207.677C192.675 207.677 194.072 209.075 194.072 210.799Z" fill="#FBC705"/>
<path d="M204.825 177.154C204.825 178.878 203.427 180.276 201.703 180.276C199.979 180.276 198.581 178.878 198.581 177.154C198.581 175.43 199.979 174.033 201.703 174.033C203.427 174.033 204.825 175.43 204.825 177.154Z" fill="#FBC705"/>
<path d="M221.82 186.693C221.82 187.938 220.811 188.947 219.566 188.947C218.321 188.947 217.311 187.938 217.311 186.693C217.311 185.447 218.321 184.438 219.566 184.438C220.811 184.438 221.82 185.447 221.82 186.693Z" fill="#FBC705"/>
<path d="M239.51 186.693C239.51 187.938 238.5 188.947 237.255 188.947C236.01 188.947 235 187.938 235 186.693C235 185.447 236.01 184.438 237.255 184.438C238.5 184.438 239.51 185.447 239.51 186.693Z" fill="#FBC705"/>
<path d="M196.153 131.543C196.153 132.789 195.144 133.798 193.899 133.798C192.654 133.798 191.644 132.789 191.644 131.543C191.644 130.298 192.654 129.289 193.899 129.289C195.144 129.289 196.153 130.298 196.153 131.543Z" fill="#FBC705"/>
<path d="M140.31 120.791C140.31 122.036 139.301 123.046 138.056 123.046C136.811 123.046 135.801 122.036 135.801 120.791C135.801 119.546 136.811 118.537 138.056 118.537C139.301 118.537 140.31 119.546 140.31 120.791Z" fill="#FBC705"/>
<path d="M148.982 222.418C148.982 223.663 147.972 224.673 146.727 224.673C145.482 224.673 144.473 223.663 144.473 222.418C144.473 221.173 145.482 220.164 146.727 220.164C147.972 220.164 148.982 221.173 148.982 222.418Z" fill="#FBC705"/>
<path d="M122.968 192.589C122.968 193.834 121.959 194.844 120.713 194.844C119.468 194.844 118.459 193.834 118.459 192.589C118.459 191.344 119.468 190.334 120.713 190.334C121.959 190.334 122.968 191.344 122.968 192.589Z" fill="#FBC705"/>
<path d="M158.347 139.348C158.347 140.305 157.57 141.082 156.612 141.082C155.655 141.082 154.878 140.305 154.878 139.348C154.878 138.39 155.655 137.613 156.612 137.613C157.57 137.613 158.347 138.39 158.347 139.348Z" fill="#FBC705"/>
<path d="M179.505 113.334C179.505 114.292 178.728 115.068 177.77 115.068C176.812 115.068 176.036 114.292 176.036 113.334C176.036 112.376 176.812 111.6 177.77 111.6C178.728 111.6 179.505 112.376 179.505 113.334Z" fill="#FBC705"/>
<path d="M213.496 137.613C213.496 138.571 212.719 139.348 211.762 139.348C210.804 139.348 210.027 138.571 210.027 137.613C210.027 136.656 210.804 135.879 211.762 135.879C212.719 135.879 213.496 136.656 213.496 137.613Z" fill="#FBC705"/>
<path d="M177.77 143.857C177.77 144.814 176.994 145.591 176.036 145.591C175.078 145.591 174.302 144.814 174.302 143.857C174.302 142.899 175.078 142.122 176.036 142.122C176.994 142.122 177.77 142.899 177.77 143.857Z" fill="#FBC705"/>
<path d="M174.302 209.064C174.302 210.022 173.525 210.799 172.568 210.799C171.61 210.799 170.833 210.022 170.833 209.064C170.833 208.107 171.61 207.33 172.568 207.33C173.525 207.33 174.302 208.107 174.302 209.064Z" fill="#FBC705"/>
<path d="M211.762 150.794C211.762 153.284 209.743 155.303 207.252 155.303C204.762 155.303 202.743 153.284 202.743 150.794C202.743 148.303 204.762 146.285 207.252 146.285C209.743 146.285 211.762 148.303 211.762 150.794Z" fill="#FBC705"/>
<path d="M218.005 203.168C218.005 205.658 215.986 207.677 213.496 207.677C211.006 207.677 208.987 205.658 208.987 203.168C208.987 200.678 211.006 198.659 213.496 198.659C215.986 198.659 218.005 200.678 218.005 203.168Z" fill="#FBC705"/>
<path d="M303.819 138.588L328.455 99.7264L315.246 132.822L331.792 134.159L300 185.823L319.941 139.892L303.819 138.588Z" fill="#FFE146"/>
<path d="M313.129 160.234L326.826 116.307L322.666 151.697L338.992 148.691L321.71 206.839L329.036 157.305L313.129 160.234Z" fill="#FFE146"/>
<path d="M303.724 178.025L332.278 141.944L315.69 173.481L332.006 176.537L295 224.604L319.622 181.002L303.724 178.025Z" fill="#FFE146"/>
<path d="M328.693 147.187L342.039 103.153L338.161 138.575L354.463 135.439L337.645 193.723L344.576 144.132L328.693 147.187Z" fill="#FFE146"/>
<path d="M329.805 170.322L357.597 133.652L341.673 165.529L358.05 168.243L322.059 217.074L345.762 172.966L329.805 170.322Z" fill="#FFE146"/>
<path d="M344.789 180.21L376.408 146.782L357.108 176.737L373.093 181.217L332 225.841L360.363 184.575L344.789 180.21Z" fill="#FFE146"/>
<path d="M284.184 194.74L302.801 152.662L294.632 187.347L311.195 186.222L287.394 242.02L300.322 193.644L284.184 194.74Z" fill="#FFE146"/>
<path d="M292.758 221.491L311.375 179.413L303.206 214.098L319.769 212.974L295.968 268.772L308.896 220.396L292.758 221.491Z" fill="#FFE146"/>
<path d="M300.587 141.366L322.956 101.157L311.665 134.954L328.26 135.342L299.481 188.742L316.757 141.744L300.587 141.366Z" stroke="black" stroke-width="0.8"/>
<path d="M325.981 148.941L346.177 107.597L336.701 141.948L353.294 141.451L327.4 196.309L342.148 148.457L325.981 148.941Z" stroke="black" stroke-width="0.8"/>
<path d="M335.108 185.551L373.668 160.447L347.897 185.057L362.391 193.151L312 226.925L349.229 193.439L335.108 185.551Z" stroke="black" stroke-width="0.8"/>
<path d="M286.758 197.491L305.375 155.413L297.206 190.098L313.769 188.974L289.968 244.772L302.896 196.396L286.758 197.491Z" stroke="black" stroke-width="0.8"/>
<path d="M300.758 222.491L319.375 180.413L311.206 215.098L327.769 213.974L303.968 269.772L316.896 221.396L300.758 222.491Z" stroke="black" stroke-width="0.8"/>
<path d="M314.493 175.664L338.03 136.127L325.754 169.58L342.331 170.453L312 222.988L330.645 176.515L314.493 175.664Z" stroke="black" stroke-width="0.8"/>
<rect x="174.397" y="275" width="96.1292" height="61.5974" rx="11.1995" transform="rotate(7.8347 174.397 275)" fill="#B0B0B0"/>
<rect x="184.86" y="283.974" width="73.0228" height="46.7913" rx="4" transform="rotate(7.8347 184.86 283.974)" fill="#AC2828"/>
<rect x="187.027" y="288.438" width="72.2228" height="45.9913" rx="3.6" transform="rotate(5.72694 187.027 288.438)" stroke="black" stroke-width="0.8"/>
<rect x="177.593" y="281.438" width="95.3292" height="60.7974" rx="10.7995" transform="rotate(5.81025 177.593 281.438)" stroke="black" stroke-width="0.8"/>
<defs>
<filter id="filter0_i_4_376" x="8.4668" y="0" width="412.208" height="412.208" filterUnits="userSpaceOnUse" color-interpolation-filters="sRGB">
<feFlood flood-opacity="0" result="BackgroundImageFix"/>
<feBlend mode="normal" in="SourceGraphic" in2="BackgroundImageFix" result="shape"/>
<feColorMatrix in="SourceAlpha" type="matrix" values="0 0 0 0 0 0 0 0 0 0 0 0 0 0 0 0 0 0 127 0" result="hardAlpha"/>
<feOffset dx="45.0976" dy="-22.1532"/>
<feComposite in2="hardAlpha" operator="arithmetic" k2="-1" k3="1"/>
<feColorMatrix type="matrix" values="0 0 0 0 0 0 0 0 0 0 0 0 0 0 0 0 0 0 0.25 0"/>
<feBlend mode="normal" in2="shape" result="effect1_innerShadow_4_376"/>
</filter>
<filter id="filter1_i_4_376" x="0.657227" y="12.4753" width="412.208" height="412.208" filterUnits="userSpaceOnUse" color-interpolation-filters="sRGB">
<feFlood flood-opacity="0" result="BackgroundImageFix"/>
<feBlend mode="normal" in="SourceGraphic" in2="BackgroundImageFix" result="shape"/>
<feColorMatrix in="SourceAlpha" type="matrix" values="0 0 0 0 0 0 0 0 0 0 0 0 0 0 0 0 0 0 127 0" result="hardAlpha"/>
<feOffset dx="-39.5593" dy="27.6915"/>
<feComposite in2="hardAlpha" operator="arithmetic" k2="-1" k3="1"/>
<feColorMatrix type="matrix" values="0 0 0 0 0 0 0 0 0 0 0 0 0 0 0 0 0 0 0.25 0"/>
<feBlend mode="normal" in2="shape" result="effect1_innerShadow_4_376"/>
</filter>
<linearGradient id="paint0_linear_4_376" x1="44.467" y1="323.991" x2="367.271" y2="70.4156" gradientUnits="userSpaceOnUse">
<stop stop-color="#DCDCDC"/>
<stop offset="1" stop-color="white"/>
</linearGradient>
</defs>
</svg>
